<mxfile host="app.diagrams.net" modified="2022-08-24T03:47:30.358Z" agent="5.0 (Windows NT 10.0; Win64; x64) AppleWebKit/537.36 (KHTML, like Gecko) Chrome/104.0.0.0 Safari/537.36" etag="UT30NH0XGpC_9ngNIbCz" version="20.2.5" type="github">
  <diagram id="ZPcmBbQl1rgQj3kZ4n6N" name="Page-1">
    <mxGraphModel dx="1422" dy="762" grid="1" gridSize="10" guides="1" tooltips="1" connect="1" arrows="1" fold="1" page="1" pageScale="1" pageWidth="827" pageHeight="1169" math="0" shadow="0">
      <root>
        <mxCell id="0" />
        <mxCell id="1" parent="0" />
        <mxCell id="bsMbISX9EA4oYNUM3-fa-7" value="车联网云服务平台&lt;br style=&quot;font-size: 17px;&quot;&gt;（TSP）" style="ellipse;shape=cloud;whiteSpace=wrap;html=1;fontStyle=1;fontSize=17;strokeColor=#808080;fontColor=#4D4D4D;" vertex="1" parent="1">
          <mxGeometry x="15.77" y="100" width="308.86" height="260" as="geometry" />
        </mxCell>
        <mxCell id="bsMbISX9EA4oYNUM3-fa-37" value="" style="html=1;shadow=0;dashed=0;align=center;verticalAlign=middle;shape=mxgraph.arrows2.arrow;dy=0.6;dx=40;notch=0;fontSize=12;strokeColor=#d6b656;rotation=-90;fillColor=#fff2cc;" vertex="1" parent="1">
          <mxGeometry x="132.8" y="368.18" width="74.8" height="41.61" as="geometry" />
        </mxCell>
        <mxCell id="bsMbISX9EA4oYNUM3-fa-42" value="" style="group;dashed=1;" vertex="1" connectable="0" parent="1">
          <mxGeometry x="56.5" y="429" width="303" height="120" as="geometry" />
        </mxCell>
        <mxCell id="bsMbISX9EA4oYNUM3-fa-40" value="" style="rounded=0;whiteSpace=wrap;html=1;fontSize=12;strokeColor=#CCCCCC;" vertex="1" parent="bsMbISX9EA4oYNUM3-fa-42">
          <mxGeometry x="-21" y="1" width="303" height="119" as="geometry" />
        </mxCell>
        <mxCell id="bsMbISX9EA4oYNUM3-fa-2" value="" style="shape=image;verticalLabelPosition=bottom;labelBackgroundColor=default;verticalAlign=top;aspect=fixed;imageAspect=0;image=data:image/png,iVBORw0KGgoAAAANSUhEUgAAARMAAAC7CAYAAABGkXqPAAAAAXNSR0IArs4c6QAAAARnQU1BAACxjwv8YQUAAAAJcEhZcwAADsMAAA7DAcdvqGQAAKYqSURBVHhe7f0HlGXZdR0I7u+9jR8+IiO9q8zyBgUUigAIEgRACGrQgWRT6m6KLZGaHoqjmdGoR2uWRksjiXK91ohNSj2ikZqiJ0CCBAEUDGGqUCarsqrSVXoT3vyI772bvc+PlxWVLNCIqRYy6p3Im+/9Z+6777579t3nXOcZUOCKK6648pcU7/bWFVdcceUvJS6YuOKKK3dFXDBxxRVX7oq4YOKKK67cFXHBxBVXXLkr4oKJK664clfEBRNXXHHlrogLJq644spdERdMXHHFlbsiLpi44oord0VcMHHFFVfuirhg4oorrtwVccHEFVdcuSvigokrrrhyV8QFE1dcceWuiAsmrrjiyl0RF0xcccWVuyIumLjiiit3RVwwccUVV+6KuGDiiiuu3BVxwcQVV1y5K+KCiSuuuHJXxAUTV1xx5a6ICyauuOLKXREXTFxxxZW7Ii6YuOKKK3dFXDBxxRVX7oq4YOKKK67cFXHBxBVXXLkr4oKJK664clfEBRNXXHHlrogLJq644spdERdMXHHFlbsiLpi44oord0VcMHHFFVfuirhg4oorrtwVccHEFVdcuSvigokrrrhyV8QFE1dcceWuiAsmrrjiyl0RF0xcccWVuyIumLjiiit3RVwwccUVV+6KuGDiiiuu3BVxwcSVuyKDwQD5fB6bm5u278o7Tzz88O6XfwdKq9XCFhW/mKfy9/rw+f2IRKOIxKKIJROIRCLweDzbV/9J6ff7KBQKqNdqCIZC6Ha7uHz5sp07efIkQjymZ/R6PUQZbzwe/1Pjc+XeFxdM3oHSbDbx6guncPPVcxgZ+OHv9NH3edAL+tDGAL5EDPHRLCbmZpAayRrAhMJhu1cgUimWMH/tBq6evWAgEk8nEYvFkYwnUGvU0O50EA6EMeh20Gm30e51MT4zhYk9MxgZH0M0FrO4XNld4oLJO1Cun7uI5WdewGi1hwQ8SJOF9DxerGysY2RqEltkG6VOC5V+B03PAIFEFP5IGP5gAMFgGEEWmcgggJjXh6DPZ8f73T66NJq7BKVWowlvvo4AWUmr10aR8cZ5bTfgRTnph3c0CW8oCAT9POZHkOAVZhp8fh+8TIePx/xkNqEoj3FfjGbA4NOzAgFjUV6vFx4GbXXcYT3augzov464YPIOlK//+qeRfGUes4EYotQ7P4uAj8yjRyAIRKJYLxZQqjfQYclI5nIIUPGD0ZiZM1LeDtlIt0kTptuGn0wm5OX/na5d3wr70Km1ECk0EafSlxoVFJdXEK+2+Jwutvp1VHp19AhWYkJ1Xt/09hGED6FAEAGCTqffQ5Px9qNkQ5EgvGGaUV6CRIggQ9Dx+gMI8BiRDT2myUfQ8TON3W4PYQJTLJNCIp1GmIwqmogbAAlgvAQdpV9FXgxLIKSt2FOXbErnA4wzyKBzrvzFxAWTe1Dkh5ASOLWw1dJ/gdr4mf/vv8f+fBcjfSpwm8DQalLx4ghOzwBVspJ6DU3GH6bZEkkk4RFjYNAz9Oxmq4U2Q7fdQlDXecgUOj10yXK6oQC6jRYSzQEBKMprK8gvLWGwvIGYmVI0s1pVgNf4+oynXeX1DVKaHvxiOl6yHBbJDvroEYya/S5aBBJ/JIQ2r+n3B8Ze+lR+XyCEINPdlF8mkUCD4BaKx9AiDvQCPjPXKmC8qTgCTAttL/TFhAQWepdwELUegcwXQDoYgYfn2mJWZFCJPVMIEYjGJifNxHMYkCvfWlwwuYdEALJ48yZOf+mP0a/U0KOShbJJzB05jNz4hCnUbTOABd8p/A7QaNtlLfzVf/SvcbTpR6jZQ4wK2SMQRKg4oT1zqCwvwxdkrc+aPppMoU/F7fQG5hvp0mRRcVE8ijvAaNulMkIEEW+7T/X3moL2yVJiNIOQSZM99NFYuIX86xcQotIHo340yHwG5Sp8BK00yUe3XkWn1VZhBAYECj5zQDAAWUd90EONwBEiaMgX4yNwRajcnXoLUaZ9wGOVSgXxVBJdMpo+8wS8t9lp29ZPBtPodWy/x1MtHvcw7TLNSoM+/NPjNLkiiPCSXpvPCUeRnMzBM5ZFi8zoVrsO/0iGwObFyNwsZo4cQpKsR+//FwHwd4K4YHKPSK1Ww5WzZ/Hi730GjXOXsTeRQbFQoCngx/TBA0ik0sYmuqy5PVQUUIn8sYgBjpQnTAX0e6igxQqCL57HsdgIBs022rzeH47QhIkgkExgYWUNuYlJRJJJAgGBhjU3qcAwEVJWPkOtP2IoHip6s1pGgMe8Df6WuROlgneBqD8CTI4CWW5XFnDj6y8gSkBKxcNorq8jUKzBU6sQkJoEkDZrfr8paIvx1mhC1RlniwrMhKPBNA58ZA1kUUQsM6u8fQ8ivD5Kk6dWKm77c4KoNOoI8t15Gj3GIVNni+fFruJ8vx7NJ6VdYCsfT5GJ9TO+EU8IiVCM+wG0PH0UGep+spdIGB6ZVjT/mskIGhMZ+PdOIDY9gZHJCYxOTCBOEHfFBZNve+mw5r1x9TJe/cY3cPlrX0PjjWuYCURwcmY/aUHb/BzxRJS1fQWVzYK1qIxksqjRBNmolobUvUeTZoS1LRmIr9LAkcw40lGCRYdKQ3MlmiWwUFmrjSaKDFN79yLCOEhD0KQCD6iYHpEGgofYw4DKOBCo8HerU1ci4avRnPAF4aHySqJUTLDWx0wG2FrDpS98BTGmd4IKXb+1iHi5AW+9jkJxhVcTIXxeKngAHdb2LYYBWYEnGkOHZlMwlUKVANMltaiXaqjxXbMEzwCvC3oJDt0mWmQq6XQSiyurZAwDjGZH0Wo1uO9DqVSwbVisiY/S8wJkNX0f34UmTbfZQKLtQ9IfAg061MiSKoxDLMsXixGI/Ja+BvOhyusbuRj6E1n4ZyfQHR/Buz783dZK9U4XF0y+jUXM47kvPoNXv/QMKjduINXsIlKpYzIYxYMHDiMZCGOUINFtN3Hz4hWsLyxhZmwMe2mu1Fjr31xaQJdUvt5qYnZ2Dl6ZK5UmxlNZRGhO9Fgj1yMhRBhHj89b2thChEqazo0imuExFQ2yEvPRdHkFNVFgIsLgE1uhjm3VCmg16/CUOogEw/CmEqz7vYgTTLx7JoGDE6RVRZz9w88jRqCaIEiUL13HSLGJAJlRx0sGQrDrMO4OzaUOlVaAFB7NIZjLoUrFnzh+HM1a01p4ludXsXhjAcePHCWTYRoCfZp3EayvrGMsN4LTL79qTOW+o/cRYGqI+GlH9eUw7mJrfQ2FfAFBmjzRcAz1dhWDEAGy00So2kGwNUCIoOPne/TCfmM35WodIZqOUT+BkuDV9nrRDNH0i5MFZWK4kQhi9ns/iCc/9iFrkXoni+8fUrb3Xfk2EGF7tVLB2RdexB/8//49rn71q+gQJILFMuKdLqJUijSp/SzZRJLUvUHFScrOVytFvYEIa9QUa/MQlTKh5lgqlIfsY4qAkVJzK/EhLurOZ3lpFnSo+lJSmTOlwhZyBBJr1eAzzMfSkooPTQs/jxM/4CUT6bE2bzWqBBwCAhlGr0amweu9fHaHAKZmWzUpY5oMxz/A8rVrZg4leL5B0IqTFXmpuBWmuUXq0/OQQXm8qBK0tpjeTT53nSC4wnjH986hxHzxJtJYLZVxY20dM4cOYxCP4kopD9/oCNbJxFIzs7ixlUed733f448jOjqGGtOb5fEY36tCc6kbCGLPkWPYe98JpKcnMXpoDrmZGYRiSXPGdpknEcYXyCYxINBWm1WQwMAvHwzZkafZRLjXQZz5q9atGL/DpYUFjB89SBAe4dPeueJ2p/82EoHI68+/iN/7N7+AL/0v/yuK33wZ8XwZY11gjMo2RmqekDnQ77CybVGRewir+ZSQUOtU0eo30fV0+KtFEtEk22jB56c5gjYazRIVtgMEBzQlWmQEPNapkGXwbLWMaNCPDhWlWiwA3S7aBKEBFUj9SHzyWRBAQIVFj0rl4z8CWYT3hAkQY2QSM5kMQlTGTZoZ5a2CsZkOwQCs5dHtY3xqGpslpoFwlExnzL8i68YfIgsQI+EzBaTWkkMG5Q+HkZsYx+yBfYju2UNTJ45O0IvYZA7+TBwlvmWSZoYvnUY7FoFvJINNxjR6+CDygy42iQBFXu+bGUeT1695ee7B41j2dlFMhFBi2IyFsEogvsocSj/2KBYTYVT3TaF6cArBx+/D2Hc9gdnvejfasykUImRQfJU2804+Hj/ztlvMo7WxgUihgltnztPqZN68g8UFk28DkXP14rlz+O1f+Hf44s//O2x84yXEt8oY7XmQbnWRbHcR65CCd6iKrPW9VGD5K+ChNmorJiBj1UPUoULRgKF6KnStH4if1wd4nY9Bx3SvHJFqf6nXqOCthgFFJOAn/WfNLIcsg5dBLRx91sQeaT7vAU0SJhjN4hYqq2tUorOYP3sOy5cuYe3mLWwsraCU36K+8ZmxBG8hr4mmEKHZE/BHEAjRhCELGKjFiOxn6NBt8RW6ZjqFmYZ4yE/zxIsQn+ftkrkszRMDuyhvLGFzdZ7v2sT60g2yrood7xVLBmq1zTwSTH+AmVEs5LG6sYLltUUs8r5Sr4Zyr45OxIPVZgHr3TLyXbK2WAzVnhcVdZbL5rBExrUVAEpRPxbVH2acaR1Lohn2oeppk9n00fMRplt19GUeNTsIlKtYPXMBVYLlO1lcMPmvKKqJb928gc/+zm/h1//Vv8LNr30DYYLICMEhRyYy4qNidQeIUX9V65NkmN9DomZO3R/geSIDQjTwdd7P8x4FxhHg+SDvC6gPB68L8jpd7yVTYPVP7CEwkREEqLQ9sggfFVLspF4uoUpzobK2gnq9imKxiKXFeVy7chGX3ziPi5fO4ca1y1i6eQ37MiPYG89gKprAaCSOMJPTqFRRLlCxKgSpChmNjwDSDxJg5H9hwv1h1LltEJi8NIF8ZA3+AZWy10S030aM7CdcL8OzRXMm4IMnv4J40IN4tYRko4Sj6RjijS2adG1ktzYQvHkdyY1V9Ji+GQLTwYgPiXoBI54m4j2aKS2aVcE2Ar4acqNBwmKJSeCzIjIFg8zfAAJND2ZGxpm/Hh6PWye9Lk21hsAq7EeZ7G6T7K/N9LaY0fVBC94AzTrml0zPwUoehdV1+zbvVHF9Jv8VRHR4eXERz375S3jxmc9h/qWXEK5VkaKyR8gEgi0GmhX+Dmtr1thesQiyA/UO7XU7VD4vRlmLRnwhxPtUNrWiVNXKQSVh7Z5UBy0qtYdx9cg42tUm0mQD/iDZhsCkzzpEgMJrvDSbQpEgOnyWWnPEPzoEIbVo1Ph7LU8qT+YSCPqQoqkxnhuhQmYxkklgLJUg1S/BU28ZMxrQpKkwatb3CFIhQymaPuOjQDqL/uIq1haWEY/Hhr6SYtmYkT9EHkWzTU3aPrIDOXjFhjptmmxU1I3lJSzfuon+1iZuXriArcUFdApb2CILSjYa6FKBO2sb6K1voUBgztB86qn1hvmRIbtpM30NAo63SdOuwuOMs13ewmQqjSDzoLdZh7/SQojvGyTAtsplTI7J9yGA66FZIqjVyI7yNP9qdcTIqPSubYJ1KB5HiwzMy2MtOZZmRjF75LD5mt6J4oLJ/8GytrKMl/74K3jpmWewce48GlSAVKvFGhRIkBlorEzEO2At3kKrUTOnJ39R4QgqBJE+wUSgMkYwiRNEIj0fESFszaxVsoEgC3IsooF0BA0qR580vE3FSsfS8IQi8LTIWroeeNT33YyXLkIhggDvH4jqh6OIJBLW+zUYi2DvwQMYGRlBLE4TJeiFl0rUI3PodWmaMC3qAu8lgHmoUD6CSzudwiCRRGwkh/DYGIKZJDypFJU+j438Jno0Y3gTNuW09XmolD00CJwtMS4CgcdLG4OmkRiCh8DXa7RtIGKnXIOX+1GytADfKSaWRZDsrxXgp5nRXttEd4sKX6jAQ6DavHYLUYJy4fo8CtduEHA20VxaRajSRJOglu14aD6t8dw8YgSEFo9hawu+WgUxvuM6AUytTahUEOHzguUm/M0eomSMPaaLXAShMMG00UMgEkGZ+dHKJnDoXY+5YOLKf1lpUHnOvvgiXvqDP8DG2TPw5UnTa1TyXg8xsgI/WYCfhT9E9Q5SOdVBrKOem1Q464BFk0CMpNfu8rwXY+kcEjQXQmQmrN71ABRonqjdNkoQEOPoE4DEgqrVOhlBCj6BDBVTjKRL5RVBkRM3GCWYVOrW81WOz1g6g2hSY1tiaDBdzQ5ZAoFDaeKjEQx4yXJ88GmwHp8lT6qakYtMypqai7ltqzMZL84zfrUArS2tYHl9A0uVTRQJRstkF2utGja6ZD98T8IAarynrRamQAhdpqWvfZp6GntTZjqCGvjnD6JFsy0SjVvPV/V5UatKi8+JJ5PMM+alnk0ADfHaDhlJn3kWkClIgIoxNc2tCnxqKiaYlMl4aO2guryIfqWMAIGtUylhhWDi5XvX1vJkOry+SrOmpf41/B58rwEBJBCOoFsj4PB5VZpqZeLg0Q++j8/XG7/zxO1n8l9Y1KqxsrCAU5//HFZeOY00WUWCyt8lZW5s5jHNGr/H2rBSrNr8H+oFqp6cqrGbaj2h6BN16k1EWCv2qw0kad6cPHgM2WjCakofmUSzsI7rCzd5/wCjYzQvGI/8IE3W2hvLq5gZn0EqM8Z4xAJ6aJOZyHRRS08yl8HCyjoi6VH0yUziY+PwJ9LoUynk0rXes3GaTgQRtOus/TeQX1tBbSuPbqmEJk2EEjFqi+leIbjUQlGSjxS88SSCNHMmJqbIIGiarK3h8tI1RGhW1TY3UG9U+bwAOqzVQ+0BkmQlObKt2MCHCOOTL8dGJRNQNW2COp0JPHqdNjEsijpNEq+YVZD5QoCJ07xT71zzBdFsCjKvfWI5LOEaiOgn81ITt6ZQ0BwrpWoJrUCHZmEY/UIViQDBimxNpK3QbRDEojRj2ubjTjBd6tDWUvyxMDzZOAkUry63UGe2NKayuBHz4oM/+w+w99Ah+27vNHHB5L+QqPCvLS3hyquvYeXM68jI4dlsoEFG4ut2EfEFEGQtavZ9l2YDzzvdvAdkJo1OC+V6jcDCgi7H6A4wkdPw/gMEEypriDV3kCZJtbiOGwvXt8Eka/1MeqTprUoD62QF02PTGMmOEgtaZBpdKjDpOU0OKVlqbBTzS8tIjE+gQ1MomhtFgHF2mZYWa3U5YctMZ71a5vUtKiXZExlQWFu+k7rCi1WskKlcjgWxQdNn0AujxXf0ZDOYGJ1AvNax+09dPgs/waRZKJoy10PqQt8nI+giMfAjToWNUqHDBBMaUNY8baYdgU+g0G6ToQQCiJC5yNSKhGl2SOGZRwKCENNRJ5OYzo2hWiojzKNRNT8z/wJUfgGM4smk0+j2W/AEyN4avI7EKxOOo0GQZ1TWR6ZCNqRJnerM85h1WvOhRDbpVXN8Kmo+pbAnjE2ao8ljB3GtV8X0X/kA/upf/9F3pKnjgsldFgHC2vIyrp05i7XzbyDJgq6xKN5Gg8pBBVFzLsGkS6VU5y91iW/XGyTfXtTKtNdZG6qpWAylpn4alDaVyaltfTRTxGzmyDT2TUzDR3NF8360q0UsLNxAp1Oj8uYQJwVv1JqossatFiqYyE0gQYBQa40UUr1mowSjTpvKOzJGIFpEfGIMDbKAjp9sgNfKvFI6ZF4FyVJiBIswlXVAEGw0qVRV0v+NNQOtgieAebKX02MxLNAEINcgmPCtkglMZHMY79E8IfM6vXoDi2vriPe81h+l65c/iGYS80TvGCB7CPCZ6nUakIlDgJAZJeV8i4Ky2KqZmy9CS3DA3CMDYToD3FN6xUIEGjJz/GQnulPXKD51rpP4Bn1EGI9fzdK81sdPY9fxuAnjDWjgJA+GCZjKC0mP5zVNAqEIm00+m+aVlwxzkIwgfXAK3/cTP4yZPTPvOEBxweQuibJR0yDeeOMSbpx+DQFRaSpImArSr1UxaNZZ0MlOeF2fCmAduggSUiKxDimRatQE6XutUrVJgdQNXqIOXX2xFgKHmnUFJntoOghM/F3WxgSTXmULiwSTbruG8bGcjY1RF/RasYYSAWWSYBJLxADG2SIQtJtVhKNJmhpepGb3Y2lpAf4MASQcQkJgRFNH/VdIjYhmBL0Wg3w4cpT2aSoRGPxkTr6NdZpSFeR7fizmUnh5Oo0rYR8a6iVCk6nI954eHccefwJeMpYzWyu4QcYWbnvQLlXR82pwolpvembumHNzoL4wUkSCSyAk7ea+plkY2PGBAFlIRzDRyGUvfxPy4OF1GlWs1i8/t7o/Ho7ZfZ7B8H5CjV3n5W81hYcJ0IpeAKIYvQZSUgyCt3xB/FZ+goKc3n57Fp9Pu8fD+5q8ouwJoUMTSGwrnopDLqwjDx/C9//IJzA1PcmY3jniOmDvglSp/JfOncfZ555Hc2EJcZoGCRV6MowkazY/wcBL4PCxoKpuk2kx4LEBFdPDAm0T87AId1ttq5E1WY8cqHImqnZTzS2woi5YIQ6SbqfIHDIJ1ohUKk07MGg3UC4XDXTiUXUQCzFe+Ub6qKmbPUEqwuv6jLNLBWmRmagm7/D+yGiGAFZEmzV0g2ATCsmMCNoAuKb6i7B2V61tWiafBRlJcUP9KtZQ3NzA6mYB+XobG2Qvt4IDrKuJle/I4mXPyEZiyPojyGRSaEfIwGgWBPkeAZpzYl0DZorMOy+11aZP4NZPMPXRlBKQ9ggufSq3WrS0bas1SemQg5kAp4GMbf62wOdqrE+T9zUYt0yRCgGtSkamEcU1MsSqhSbKfL8agadIc6fEeIoEtWK/jSL3S9vbfowMT4P7AgTIIAE/6EeTpllTWwJvgSBbYp5p3pUeUanjBTZpEoajIezbN2fM5p0iLjP5S0iDhVLzi1x7/Qyqq+tIUPFjhIVuuWqdzLwsrDGCQrtaRbdeZ2ZTwahE6kMhU0PORLW4NKnsO5lJvUoTgqaGmImUUfN4yCcw7GTG2pY1ocNMAjQX3spMGhgns4hQgWXmNBsdrDJtmXgaqVgUHipan89u1SsIRcJQY8TE/kNYIFsI8HydSqi5Q5IaSSwCwN/NestMMKWr3WrYfCXWc5XKF6bia8RxN5TAaiqJs7kolkn5+5psiEHmwGgyjYlg1OaAXQ4M8MqFcygtkNEwviKBqevpGVjeDtv5K9FvIyHbot8yM5xru0yfzg/NIRVoBn4HIzMSXmMmkHOcwTmvuU/UCiQQ8IgJibnYfcxrXc+9SJCGE6+Xq1rfQiaUmsKtT4xCL4Amv0+YwKL+OgHmaSobx+zMJH7oB/8KTt53XBG+I8RlJv+ZsrG2hhe+8hWUr1xFqttDmKwiQhYQIdvws3BFCBqg4qkG7rFW7Ktlhgoov4fYgVgJSzoP9YyZqHBqgiAxkza3DjNRATbFpVKIlbA6thaJJBXemIkovTET1rTGTLqIExQCNCk0M1mPmrZFk4tRDBVRpgqVsd9tWu0/oLKEWfsWeW+EoFSjSbaysoT8yjrfcR35tQ1s5jdQLpaHrU2k+xFen0qnkcxlER7NYvTAASRn96DO4ytBH9pULK9/OElSRCyKLCdGxjE+PYHEZA7lehWVrQIaZAxe1vgK0twh+6C5IwXXvoXhvnNOoctjXb4nYYRAokGCXgZt1YyuLbOJuUsLUIYlwWJH4Hkd13Vtsoga0aPlG3Bfv7nlOc3spqDzFT6nyqBBgBWCf5V5WONza0xPnZ9DgyVtEqZomKyE9zN9gXiIzGiYz8cOH3rHsBMXTP6Cov4irz3/Ai6/cAoHUmnUWaOPRam8UhwqdoL0VwDi6bRRLxYRJn2XudCV30EaLQWwWp3B9lm7vo2Z42FhFsUXmNw2cxQvg8BEZk6aQTWyAybV0hBMNFO8PxBCi/fXCXCr+U0zBQYs3FIvmVvyf8ih6NGcHSHSdd6rSX5arS7KlSqfrfSxgATDSJClzOzfhyMnTmL25P0YO3oc2X37kN4zi9TsBGL752gqjaFAhrJE9iXzoEVTp0PwCVPRY1Q4HxUxmknaIL18eQuF/BZNKuaLwIKwIMDo2hhmipfMgO+tDiptYx4MTHOfDEapGnYZk8eE70NwU789gdGAt6jvjPJO+8xUAhPj3r5LW/sj7dB+j9su7xVDETHRpNVqsdF9pCPWqqa5ZTUnjJd5rEmwvWIqQYKlOusRIBusJHS/4qp3W2jwu+uNWvzet5YXMTs5gbnZd4Yz1jVz/hwi5a+Uy5i/dg0rl6+SfXSRDscRZO1TXriJ6ZERVApFG5PipdKIfWj+C4EI6QXqtYqZMgIPgYlRc4KPirT2m/XatzRzVKvJzHFaOzTB0VvMHGpBmGDWKxewPH/DFHhsPIegOnU1mmQldVy+eo3Mx0MAiiOtbvFSjBafSQZR8/iRnhjDyvIaZmf3wRcIU3mCCGZy5PhRIDfGUuIoArfOrlo2aLI0gwOUem2yojZu0rw7XdzENQJTk6zIesc2W0iGw8hvriM0koJ/bgJXVpextriGXruHkpzTBBQ5Vvsevh+Z1MBsDWo0t145UnVchoYcr+Ji29fTwiMI6T6aHtsJk9JqzzFlnBYYndex2+YQ92UeqQmfUbwp+iEbZ1sYyzAuAriAfbg/3Cp01FROUDGbkN9W6wWxPkGY23QqjsdPnsBP/82/gRzLyG4XF0z+DKlWq7h55Qo2F5cQoUKn1HmJYKIJlTXIC8UtTKSTKGwWbdh+kLWz+RRYMxVoHmSTKTMdhv0XWOCoEF3GoxnUbOQvle7PAyZyrApMWFUbmMyOT2JuchphVsE7waTLdI2qGzvBRI5BTXh0mSAoW3+EZlEuFECacXoaVZt1vh9PIjM5hVvXbyGdHUM4EkeScWN6DzRto3RvQFDo+L1QF7o6lafZaJsS1tDGareMm2vLKG810KTC3Wg0cJXvrSkRJ7JZzKWy1gT76vkzWG9V0Z9IY42g0yWQxMms1EPXUUwFFUcza5hXxkaUZxQ7RwbgiK6T3qvNRSxComsc0HB+M4Lb++YH0XY7CGzU/GznmY9vAZVt0VQJdq36pzAPHSCRCIykPHIgKz/kX8lmUja2yMuHzUxMkD1G8X/+if8ejz/6iN2zm8UFk28hyhYNxlu+cR0tmgkTVDqZLt1607qzq5m2Uy0TTDYRo81cq9D+F3UmkGjdGHWOqlXKVjPqt/o7GCuhokiBBCaaQ1VdvdVEbC083PfQNlcvTk2OLOelCq7MHRVftaj0m20b/StmcnDPXgQIMNFkAn2ygfzKCtaWl7D/4AF4WDOukSnNr2+YmSNn8RhBbzoWRYjPCtHEMDOHyh7NjKBWpUkSTWBsz74hG0lnzC/RS6ewWK1gmWGFz6CxZuBWUCtPxIsLS5cJWnVqE98dQRR5/ub6mrVqPP7AA/gr73oPegS4Tz/zh6j4+zifX0VsNEdwC6POPJMyO0XQUVQZJQIRtdio1jelFXhsB+e88tPEN7zPzikfudW7KQhcrOWHgfbibSDQNfzP+qWYyUlQV37ruK4RiAzTQzOK93YE5jyuuWaVph6/v/JBs+gnmEexcATlYgFhVgIyW6cnxvlduxjJpvDDn/g4fuxHP2k9m3ezuD6TbyHXyUZunD+HMBV/IpGgWROFp9VGX85RFiwfC59XvTOppBpLo2UfJH0BAQs0y6E5LGX7a1xNp69iJ8tdZVqOxGHtK0BRC49adrRVPxQVcquVtwu2Xcf7VJNKWdQJSz4TzYOq61VI+zSjmppnRON9sjl0yXRKzTrWCShlAoeckpqnJEpWEuh3obnWNMt7OJFCOJYi05LfgnBI5amqE1q9jquFLXzxzGs4t7GGq7UyNvlOG0z7pt4xGkM95MeF/BLa5PWDUBRtKm+XSjgg++kysQ0ysuOzc5gen4A/HcXk4f1YJwCXCK5tjbalCaMWEVGC7dc2eJAfSTO/KTSY32ri7hE0FaTUGuHcZu0vQJb5xruH+WYAozxjwVZ8/FNnOzuvwO8kx7aPwa+OeUxvMOBHgNcIJGSiaLKpKAFXE1Fr38NrAwIQXRfyGVP0qBfbtinkZ94XNrdslroe05OIxQyYNHI7RSbYZuWTItg/9OD9iDHO3SwumNwhqsEvXbiAxUuXcWBiEqM0UzQDep/AoPVdNKzfS4Xys6BrvhBNWah+Hy0qoCkEzwlMRL3NFGKBVaHvUoFV/mxiItX4DCzftHpENwQmw62UQjWlWi8EPgIT1YzaCkxUUHeCiTwCUpge09ZSUOHNZtDitZtU5gLTUCfzIVRREagYjFvOWh+VVM/ZLNaYPlAZimh0yJoIKCWmrUB9Wel10B7NYDAxikYyhm46gRvFEq6R7TTIvC6tLKERGiDM2jc9MopEJocxml5Hjh/HxL5ZomYXJ2bmkMtk0Y34cezRh8lKRpHJjSOZyCCVJisKRaxnrpzG6gujEcxqifL7CHr+IC0tAh5B0PrJ6Dz3gzS/dI3Wu1GeKF/FQLTuToDHNNu8WseUv2KKHX4ztZApaF/fR1s5STVZNHPidmvPgOBhLUM8JhapzmhegqU/HICP+/rt02Jg/K0m+QzLRyrGb0F24uV3EYiIpRw9eAiPPfzI8Jvz+zX5bUbVGXAXr7nsmjnbYrPAX7tmTtY4a58xspEYayR12OqxJtU8qppISD6LgZx2VOoAlb+SX7fZwapldX8a0ul2c2hC1GkaiBLLzFH3dWW1uqK/aebwt0wcxckC/meZOQKRXqP1FjMnyDNR1o6tQgE1hq2NPKb2zKFM8Lq5mcdKo44NpkPPzEQCmKIiJrttJDVCmcyg0fcjmZuwMTieSBz+7AgaVO7WWA75aAgLflpy8Qhu0mRrU4EvXb+O/EYB+6f34sr1i/j4j32cSh5C3MNaHay9+wEkUnEUujW8/vzzeCI7ZQp2rb6Fxz/8Qaarj61KAwtL6ygWaAay9CkvlD4FrWtjW+a3jpcqFfs+yjszfajgXeaH9m12Nju5bYKIYTBIhqYJQUMgwjx2tspbZuPwGsYpJ66Af2jS8HvoGO9V/MYIGa/5trbFmqsZr3woZqKpOz0BWP4S9cl57JGHkSRgrC8vY2VpCcePHrUKqtdp4uTJ+6xX7OzsFO47fozbGXvubpF3PJiowBS2tnD5whvokWUcmJll4SDjoBKmIhG0y2UMWBCHExWRdfCaBgt4n8qogWgNKnCIYFIpVW+DSYdg4icLULf4IOn00GfSsIKqgi9l0dgcUwiCkka8ymGrlh8HTKQIqhl3gol8JgITzar2FjAh+HXILNQ0vEnWMDY1TXbRw/XCJpbrNaxVi/ZMLTNxKJPGJNObIpPyqXUoGDVGUau1bGBek+bKJsGpPp5DMR3DfNCLdZotVzY3MSCF31gnnadJtHd8Fq+efRXf8Vc/AF/QhyRCmMsROHwhc5SW0MT5F1/CEW8UWSrXjW4Z7/roh2h6dbBVaqBUrDO3eF2pYKChEdK3AYVAotG6Ag2ZFdq2CASWb9xXHjuiMTjKV+WTAFxgon1dp+bwMAFQ96rZXb/VtC7WoXuY0xgQe5w1i+Uc1zfRvZpyQc8RwCh9Oq7zOqYexGrdUWuVT3PDMK6ImuIJGu958l1m6pw78zrmb97Cv/vf/i3SNHdKBPQ8K57f+dTvYGF+nkAyjZ/8G/8dHrr/fkv3bpB3rJmjwpHP53H5jTdw/Y2LrLVjOHbwID98wliEfCN+FiSPzAoWOpk2fRVmshLN2G4tAaydupq8R1sqGEsoI+Y/3cMCotGstgwlgUL9P0R5ZdZocmaBiH6bb4TgwQTpx5CtcN+O87kS+VckovKOmaNOa9lUypRJA+P6TJccnZqUOkRzQB2tiq0GKgSvihSVyqHac5R2e5JgEpRCknXpeSGylSbBTqOJK7xui7VoK0blSJDGH96PDplJSbUzgTEYCJMJhdGtNnHx0hs4d+0Srt64jqVbS0hHEhhhUFx1dKyfzSiZTyIcRhld7Dl0mArXRZ3A1ai0mA/qcBeiKUhzReaJxrjItGH8YZo/Yb7H8NUJGHy8+r7I8almYTlG5XOpM/87VGhmi4VOd0AgornGuDsMGrWjqSJ76oDCL6lZ6XwEPCKgAUKE6dUCZJqjNkIg1TbM54eCPEZzJTcyZmaYlhTZQ5NNy4js3bMP+/fux5EDh3Dk8BFMTkxggkG+nmw2zef1bbqEp59+GidOnsS+/eN8XggXr17F5774BeQrJeRLJawsr6BWLhKg1w3AEix79zKw7B6O9ecUgcjGxgZeffVVvPDNb5oP5ImTD+LE0SNoUSGLm1tkEwFEWZDUnCunmsBBgNCWwlLhBCJB2tYCFCm4DTJTASfdFUBYRzL+luvPBufpGJUiwOCXTmrLYJ3HWAAdUW25kyju3Jc4v3cedwBHtbFSo4FynW2HpXpueZjW4XgXKhWZTp2MpFZrWJN3tTacUoA0jCBH6u7psTD3qAhea4WYmhpn7KyJNeFzr8OCXzIWNMaatlPivXV1xpNJAGsar1Vq5rMQ7e9RoeW70NghgYaBLf/FyYRysTRNyRjBj+mpNJmeut2rUK9yX78ZtN+l+SUHrAJfQOTAgrKgz7j9jCfAEAzGmXZN1BRE3xNk5tLoCsZoLuq9WR3wmIfHvHy+R/OW+BV4vkHAUagz7zWussVv1qEJ06HJ1qGZWycc8VjcG8FkagyHpvfj6J5DOLbnIA7NHcCEmuHJ5MyUIoAnyfzS2QyK5SpNwqsIRDX7PvDy66/iy1/7Kl4+8xpuLi/ixsoivvTNZ/Eff+3X8Eu/9Ev4xV/8RTzzzDMokOneq/KOApMSa8pXXzmN1wkkrAfx7kefwOF9B6wWkYNMvU+TrB1UxWkejRRrf41KVWsNscMyy5x8pPWiytVGlQepLApEEak1MWTYlGlBx7nV8TuAQQAjFiOfgeIVCDmie3aKftr12/Jm/PZLSGKgpnS0+ZsWujVZKm0CP10m+i+npJ+MRL1R7b2oBAM/a31SfIGsjRmiSSYbv9luoEWAkUOSpIzx852bXYJBEBOaxjESxGhuBJlEnLQ+bspUYI2rQXZdxiV2JfCs5AvWnK5mWZkLdbEW9Rrlnw3s8zn+CqafeSQzQmlWj2EzfwjgHQJRnyA5HEms3GJgmpQu4iPzQ6aOnKYyb/QcmZvD652ge8RmbKY04ZJGJ/MZqjjk+5ATO+DlvgLLhpYJDXhDPBdCiCAVCcWRjKeQTWaQ5laOY4FlmGxmenYWs2Qteg/1wZFppvzWSOgSzeSLV5fw4qlT1st4bHICubFRtPhuNZrMYsdbNLPnafp86lOfwh/+4R/aBN73oujL7HqRrf3GhQt47fRryCUyePL+x7Bvcg/CLFyilaxbLSc0NL3brMFLmzjAUjpo1K3FRo5XsYgACz7rfdRbw8WnwvEg6lqactBBo99Ck1WbJ0TWkoxg6sBezB4+gMm9exBKxmxUaYXK2lQLCRVLa/xKgcRcfPztkdkh5x7T4gQeoJL3CCTcykwSEFC51TJUo7KruVfNmoIbgY2UUbN+lQY0JczuJ92WOUBl7DZaCPD+CI9peQaBpRbL4tui0OG7UjH6vWFPUs2sRtLAN+WzWKO3aSJ06+osF0V9q0IWkkcqS3Nw0ECWplB5Y43KUYeH+VEctFDpN5kevhPNQTmuwaDewH0Pf8f9aIVoeg2qGJBAdJmP6OtJfDdSDk2IbSRLEExAsqZfvZzREeURA/PGphOgReDjOd1L+8+2AQJUSNNK8rgGVjrxKmjfy2M2uRPvDfO/vofAxnQpHU4Q23OC+auY5zKxZJL5GNQ8rW72aqmTaaOlSDOpDJncDFnvJt5445KZPYuLi9Zz+ld/9VcxlsvhI9/zYbTJCtX5UIMc1SI3OTmJMq8RcKqcfuYzn8Fzzz1n4H6vya4FEymWatiLFy/iG19/lvQ8gqcef9ImCTLvO5VHHcvUIqBCq2ZMDwuOusKb0vKDe/iB1X2dWmmOUc1xIVHZ7vbaNi7Do1GzLPw9FXaaEnLoiTmUq7SLtzZRbpD6h0K2Sr/mKFErjUBEQYVHAOKYQgp3io6Zbm2bQ+ZT4QGlRIXdGI9Obd/b4g0tKho5hf0W47GwvR9iPGoeVq9UdQ8zPw1raY1G1gxwmmyJ1o4VZgFekYW+TvCR/8H6ezBv1K09QODIjmdRKmzaejFiaQ2aS3Xmi6acFDNRXipftc6PAFGtIl3e29MYG6ZTY24ECsb6toOYikDbZ9MQqD+IWIL6hmx3QuO+M/JXI3mH7zjMjZ3bOwO5y588brmodDG3mA4Fibr1G9tkkPBOy2cFy3MeHl4JJJNJYiW/I2Vqchr75/ba3LQXL17G0tISfuVXfgWJeBzHjx+3NNdoXuoxAhL1GZqbm8P4+LjlqybFWltbw+///u8bW7nXZFeCiajxzZs38fwLzxvlfejBhzB3YJ/5PlSgI9kU/Ana7DIBeF6g4SUl9Qk4ZNvTTteHVuuKapKOOlk1NTExr5PiqzATkOQMVQHrUgmlfFbYWfC0VcGQX6KkGdN5TtMMyswwZeQ9qm3NCSuF2y6oO4Pk7X47W2f/tjBNEh13alU+ybYSFWRHnH35bzT3SpzvFiVghPm+tj6P4heY0HTRzPEymTRUv0YWVmxWkK9sYbNeQoegUGStKtC2Vhheb71CmR/DVo/hsAHljaVX76pAUQpU+NTNX+kRSDhgoa2ZZdtbx2xwjjlm0Z9X3u7d/zS58xonv+/Mc/1Wy5Pmkx0bG7NZ/I8dO4bHHnsMhw8fNpB48cUXceTIETzwwAOIRCIWt/JK76B8y2YyePTRRy0uldtsNouVlRUXTL4dRB/hpVMv4db8LTz26GM4cuiwNc2RElhh1MfUZMYNXsfvCS9BQ0DioVIZkJD+C0zU50NOV37loQIIWKhwXRYE67JNIJDNrX1HYRS3FEiFX6JCpoLTIDtRQdHwfxUaUy4qrRRD+05wCqwTJG/ZMh3aqmZzrnHOS7Qn8HDiulOUPkdRFIcYQ1jp5TtrLd0AWYScx7qGRMSYiQ3vZzo1tL7N69X3RYPzCqUtMpYazT3mGWtwOXglDojovRWcvJEoTdrXs+05fzKJ9mxjH3cEB0QUnHd4u3e8U5xrJXfu7/wt2XnM2Xd+7/xGEm0VVGk4FYeC0jk7O4u9e/caoMRiMczMzCAeG5Y9/XbAV/FFaVL+6I/+KH7gB34ABw4cMFDK0SS6F2VXgUmJdPvs2bOYmp7Gu554l9n+YiLtjjqMETDCQYQ0G3qnxdqzZT0pjd4LTFjojaVw/3YnMgKGml7ldFWREnCoEDAqU4TbhY0HxFYU5MB0FCWdTBkNloKpAEnk7JOJJCVT8/HOQqqtM82AE3jCzt1ZiHcGk21K7sRn3fXvvGaH6Jj15NWSogIEmnvWaYtm2iDgQ4dK2+T5GtOpEcCauUzmm2rXAIFDi4JpJjQ9y1F2icNGxFDUAe020PKcTDSZbWIjYmnKJyd9O9N45++3kz/PNTvFAQXJzv23i8P5rs51usbJ153Xa19sRC0wMmn07pubmxZUFsVMlC9iL43mEHgkikfHHaYlsPnkJz+Jv/N3/g7e//734yMf+Qimpqbs2ntJdg2YqOZ/5fRpjE9O4OD+A/aRbLIhjT/RUPtyBYW1ZbTqNaQzKSRo5rRqFWjmMQXzkXA7HCPDgkNlEQiotpFNbMrJsuXzBhCJRZHNjVphEQvRs4ZBQ9LJZmhzG3hQOcdGR4yhDP0CqllZCMlKBFSKnyXSCqXMCttuF9ad+2IkAhbn2J+45o7fTqG/fX5bpLwyw8wPs33YhvVrvhBvz/wtnYAXbYJEk+9S4zU1AmhL3ezbfH9u1apSr9TMfKuXqzZkQO+hZwporcOZHK5ULCdIHMXU/0qHLUOxDSh3Kq4Tdr6HZOd1t0Xp/1Pkznu+1b4jzvU7g5MWJz2OaF/A4bAThQsXLlhZ0DdX0DVqnQmFhvGonOq8xgGprMjM0TNUNg4ePIiPf/zj+NjHPmbd7u812RVgoo909dpVm2P00IH9qFRKLOQNW4yqlN+wWjeeGU5bKJDQVAEyPRrcSlHlKFQcpuTcWsHhVj1Q5QcQEqi/gBaB0lZD/qP82LFk2gqBmj3VeqHpB1Q8pbBVgpeWWtAxzckaCYUNpNRvxQopb+uw5n6LwmxvbX9b3m7fuUaAsPO8RL+VbvOXMDEKAwZHaSW6Tx+eTzYAaRJIKgx1AkidYKJQ5VmBSVN4p2573LYbvKZYQX5pHetLa7bEp0DRUTQph6ZNECNpMqj5Uw5npdCAVGngDwMRBR5zFMnyZDvsFOf9dp4fgvLwnuFJAeKfHW63Cjn7fMdvJc6zHHnLd6I4W4GH+i2Jnch5+tJLL9l9MmeUxtHRUaxrdQJGNWTKwxHNTn6Jlex8jgBI192LsivARDXC4tIiHnrwQfuAWldFA8eqxS0kCCgatt8tF83foe7tan7UivvqETocd6FCxcLCAqYmWfITdFnqpQYJgVAui3g2Y8tmauIg+RKabdL4ZsNqZZlNqoH1bD9rdZkyTfU+JaipJtIaM+rTocWjxJakSDKdzMkr2cE63qpKQ3EKrj6WlNEBA4lzjiXSQGOoum8e3z5rorjV1GrNrdsnyMvQZmwa89zkBZq+sMXzap9QE6iB6UAMgmYMs0pjeKpNzSjGXOJ7qhep3kdAYe9AcJGSOKzkdvp2iD1/Ozig4ASJs3Vk53Fd79yj7X+O3Bm/Izuf44j2b+fl22wzZBZiZGKiMmnVkqOmXv3WOaeJOL9ZtfTKtNF9ukfd7o8eOWJx7QbZFWBy48Z1HNi339C+ScbRp9KSgljLS099HagU6idikymLDcgRSrbSV5MgjzvsQ7OXewN+aPkFP00jDQKzNWkYlxRL83rmiwWbfVzT8wl0ZOZomsWUmgi1nAUVTIVJI3rVDKgWpGHnKMZLJROItPScbYUQGCkNUkaJ3kGzqmkyJJsQaVsXddwJul6B/w1PypRgXKrxpMg2d6z8GkyfrteznHsMxGRiWZo0g72u4dN9QWEaGZ3WMg7YTGHq8av1iutlgqJmiiPQdBlXWz6VKM/zGZq6MBoM2UhZzdkiJdL7ymcg0fs57yrQl8/F3oNgpHEz2tc1Cg4A3QlG2uq8RMrotO44im55QdFvPWtocg59EjuvkzjndJ3zW+d25que5+Sb+ch4THHou8qEU8WgaxS3rtF7KU0yiaenp7GwsIB0Om1xy6EqU8i5Xvfq/VKplJk6Y2Quu0XueTDRR1pdXSUTiZoD1Lq6M8j00CRG6nRmfQoICOYTISBocmebUoBbrcDPom05IQX0h1hYQ5plXOvuUmHIXIZLJ5C2s0D7wkHECBTRuMZRaPLnoWOVFgLCVCrRVPVp0HE5bzVfydCP0LACSgQwc8pYCdP2FlbCn9pKdm7NGTv8eVvu/L1TjGcxPbrEMXO0dUT36qd634b0NwjYmsVBXjRck7eLKEEkTtDxE/iCZF4BArA688lJG0rQ3EvH0Y8EbICe3kVpNOAUmDE44CBmJmkyD9T71XlXiXp/vh0wOOd1TPEoPsVTr9ctSMGVlzrvAIaUWvc51+sa3aPfDlBo66TLuebPEqVPACDFtykZua/nOYAk9iH/hjlZCaQyb/RbwKImXo230XH9lsmjTmpiMAZWfL7i2S1yz4NJiza6Coi6watQW/d0aVOjaWNj1GnKAgsPS7r1/OxzX4CigXEsj7xBNbMmviGY0PTxsQB5A6TTqnnJVDxkG/r4KoDSTBUm/VZNpcItFsQDZCU+Uteh002Fx1EG1epWs3NfHbB0r1p0tMyFrt3pXJU4W8nO/TvlLee4b36SP+V6ibkKKAIUH8GDsIBI10fw8CLG10u2e0g0WkjyvdJkWpO8cIwxJzU+p15Bo15C30eFDHlQbFVNMTRfiZiYGIpAXIAi5mMgwDz2aXi+PgXTZk3IzAPNuaJepFJshZ1KLyVVHkuR5T8Qm1GQMuuYo8gKAjcnyAEuM9NMTX7LoOYh2d63b8v9Yfd9S4LFo2+0MzjxOsEBMAGCwEnBcTILjAQmanlRJSLRbzXt6rfYh37rWpk/ajJWP5T777/fwt5dZOJI7nkwaZJay0ciyqyFugdq3mXBbNeo5PzYA9U+BA71H7GFrxhU4Ifd11kAzX8hZ6AK2DA7VKBVuJ1aTOxBBd06vYlRdAgsLdZ8FZlUpMS8RoVNhUuFXddryLsYkTrGaSlNLeugOFRg9XzFZXaF9reVyMBBx7bToH0pvykYj1F1DAS0f/t6iQCR4hyTeaMzDiu5UxSnguLyDRgbn+NjOsMMkXYD0VoZqUoRmXIB4eUFRNeWkaR5l6wWkeo2MRWPYXYkizQV/NDcnI1v2jsziyTZmuISkDgAoTx1FFXvKZFCiv2pBnfAQsqnWl1B+zou8FC+CpQsD7bj0r7zbQQICg5buDM4z5ZY3mynQXFptrU7xclDJyiNSo/Sont0v56785vt2bPHQGL//v0GGLpeadbzlS6BybVr13Dr1i2cOXPGemVfvXrVfCl6j90iQ+25h0UfLUTqKRNGtro17fIDa/1bdTTrbvdcdfqOqOVGXck14a+fZUxLdcoxak21AgbSeR3TvQIK6wHLODw9mgAe1pbMMlvft+8lgIVv9xWxIfxyyOoZLHQOPVZBErAoLpk3xmI8w4IocQqlAyoKBigMOm6/d4ijTE4w0Xb7t9iJc85RorfG8FahyqM7IJPok3L3mwiRbURrBUSLaxgpbGBfu4ajZHSP0rx7nGDxYCSO+yJR7PMGECPbGuOx8YwG/KVsUmz1FnbMC4lAoVqvoUZzSVuNYNZYF81X0uB1jtxOK9/XGA3PiRFIGR2gUL46CioAEvDcaXrsjEdpcMKdvyWKz8krJzji7DvpkA9IrTLqTyKfiIL2L1++bKxDDE1gcvToUTNlBChKo9Imv4meL2CU6aPrVfFooN8a49wtcs+DiQqGml+tazy/v5ycGqqutkw5WcVWBCxDwOjY+Bv5MQxQGAQ2TuipP4ldS8Xnx5cDV3GrWVV+mKjm26Bmtqt1NDUZ0vZcJiooKnwqIDJvWH+ZuaPejbVaxWoynddWwRgH43Tuc7Z3mjsS2xe43CG3GYtzavs+594BdUrhTtEhC7xMAwVrnh5q6KDlIeAxBAgogWYJ0fIWEgSUuVYdB2mSPUrl+I7sKJ5IZPBgKIHD3iAmWnx+XW1BMJNSbE0z62syKDmPlRaZMsoT7RfLJTMbc+NjpmgyKdWMvTPdOwFDgKzrtFUeOUqtoDil6I75sZO96HqBmBRayryT/TiMR9foGUMT6U0zZ2eQCLDk9xBYyGxxTBeZMvKBKK1qFhbruHHjhoGLOk5qiouXX37Zmo6VXrEQOWJlGitue0/mxQKP7xa55ydH0oess2BpDk4tMK1V/qXwmsjIZkzjb5u9jIVRrSQscbyLhddMDZoiXV4sZedfQ6OECQ5ae8ZDIFFv1pCfBZ5AM2iysBJoGjRtGqUaTRzWtFQOTcen/ipq/ZACNetDxfGz9hVj2trMm5Kp96f6nmgrwJPt3hNb6jI99m+oUJY6bbeDlN6KNfflYNYFeo5aTzRhj+anDXhI1wmAVZpSN7bW4YtSUX0BkiuNr1GnszY007zWy5kOhGzJDo/ePehDOeBBwys+Q6D1kVVpq1lRyVS0sFh3i4W/QLZSbSONIKK0nUZjceRo6rTrBGFfCFGmQ36mHkFPrUGapUy9Y1FvIsvrc7kR9LNxzBfz8FM5NdzXhiYwft2n9xSDEzDUyXbMR8HvJpBYWFi0IRJb/M7a6nsrSEHVGUyTc4sRtmnKCswFKgJsVTJD8GblwrfTaGtln0Zh61rFrWdWa0NQciaobvFbKx3qqGjsgSxieK16UctM1TzBdYJCydKpjpJXrlzBrZs3LX2NGk1fPiNG4Mpk0giR0QkINSl1dmQEX/jC5w3g6nyGytonPvphM5N2g7Bs80vew3KdtmhxbRWH9+5DmB+nwUIWIeKrb4nm7Gjyg6tfg/qT6KNqpKhqE5k1MotCVMReR8teBlAsbdmkSCokYg4CKW1rxbJ1uxeNb5SraNXq5vPoEkjQk6e+gtxo1nwFKuRJKlpMNSoL8M2r16j8VBpi1sbKMkJkOgKXcCiABmtxGzBIhSPcmVLtrKmthURpFqDwt/w7YikCu1x2BMcPHsRoMIYI36dDlrRW3MJzF88hkssQyGKoUhmKVLQKFabTqGEuEsMjsRTSBElPs2KTI1cEanx2sN9BQIxNv8Tq+OZ9rx+xeA61JllBj3kWTaHAlPrHchhkE/jylctozO1D7MhhtAI+5Amky2o2p6JEmJ++fAn7EcbJkydRn0zgd7/5NYzM7MEkzQF/SBMa0VQh2yszz5bXN7C8uoK1jQ0DCS04LmWW4mnWMzEKsQmxLeUJeSP3hwacjDv1hRET1dwlarkbzmGiRbF0r9hJlFWn3GgEXXMkEwgJNhYXg5iCmsq15QHGN2xqT/Bbaqu4wsyveFzjrYamj6598IEHrNKJRuNkMRFLc5NMLhITMwrbXC9Lt25a5Xbi5HH83b/7MwTUCIqVMo4c3I/P/up/wsz0tL3HvS73PJhcJa2sb6xi/9QMIoIKKnpA1Yf8JZp+UaYOaynHTtakN2YaEAwECJpdTE3Eftbwqm3UvFtmYRaISCnkRBUgDbvas6ZnzaUmXzl9ZUK162WylSF1VR8T9c1QfGIRcvZGAqyFeL5SLPFategMAc3AjOeHk/e8aeo4QSIQ0b5ARbWmgQrjFTNRP4ajs/swRwXXBD+EN1xZWsS1+UX0WMhjiRQZRx95gkiJJkuQ6doXjuE+KnFWZpPyptdBmAxGQNb2EciYF8obtYipmdg78EFrBrf4Xk2/z3rIasyO3kDgVg6E8SoZTn9mCr6JEax6OrjUI/AyD8c7fnjXqkg1PLj/wYcw8vAJLLUaePH11/Ha9avY8A8QTaYwHU6inN/C+lYBRa1BzGvUT0bzhghA5H/wE/Ads8cjp6nygN9AYKL8sGUrCHw8QtOUas/7G7UGwbpKM7OONt9TrMlHwAvJwZuM2Sz3AomIP3o7X33803eXyKcmkZmjJuz81oZ9Ay1O7pg6AopQ12smnk8rD7L26gXI7RhapMdaED3I792rVDEWDOP+Y4fJTD6HqyvzuLQ+j+//yEfxb/7RP7N32w1yz4PJG+fPobeVx4GJKVvjd8BCJHNHzcB9DehjwRKQWA3PQimF91NJZPoITNodFjbW3qplylR4NSdWSmVr5hVwqEYSE6AeGUCoQAlMdL0m/GlXijanh+JSi5IKoyYsEqCJqdjSoDSNZOKY+SQHLMUBE8b6FjDRVrJdlm/7UfRcieLX+whMjs3OYV80Y0BYIhBcXV4m3V4yRVNv3QaVbb1DBS1tIsyaeH8kjONBKgLj63WbNulTgmCh+JtEkA4fyl1jUVISqZXmZm3zeJNmS5t6LOBR2kJdmUcB3CDoFOJhVMI+XOmX8Ya3jvTYGB7N7ceMJ8VvU8eBYyeQuu8QNgjs5y9dxesL13lfHV0yyPbaJkqbW1jlNyxpwifmuy8SMjCMJxPYWNuwvLbAtMh5O+B3VA9lgYkAR6lS5SCglm9LTnJ1JGwRvCXiWcpOD7+tLxS0vkI2laUmhJLfh3/yi+kZb3bzHwKMvpH5Z1hBBMMBS5eYDguDOfPDHn5zESN9I6ajx4LSD/kxCGv2NgIv2WeMpux77juJdz/6MK7cvIbzNy+i7u/hJ374r+E7nnzK0rgb5J73mSySQmr4fEJNdwIN1sB+KaxaZaiA8pPIX6DaXEF9UNTiI4esgnqtqkeq+kbIrGGdexs8eIPZtaqtg7R5DSykbDxGPkGwUE/bLplHxaiuREAi/4l6vApgCoUtO6c1W/R81egS+XCGADf0gaswKjj7VvqHP7Y3Q0ehAE33SYlyrNkzNAG8jEMTIm0xHaVihUpGQGMapHDVXmvYgY5MLUPlzXlDZHCKkGnhO/blbhE6SJnIkvR+9uo8aWv56k15QH1S/FQKm8OWWwGOhzcn+kEkmA3xDo/V2+iWKkhWuzjciWKuF8JefwIz8QwyGp/EOGK1DoIMnhrBrFRFdXUBrXKe362KKB+eiUcwnk7a6oMjiThKG+tMU5eBeSXzi/kt5tGnKaElJxr1IkG/TjOO3Ixsy8Pvrvlsu2SNWhFAPaIHNOEMUrjtaLJsG5dVZShb3rTaNW5raLbkP+FxmoDD5vwq371Hs4jsk/saDKkMavWaKNdLKNaKKDbKKHQqKPQbKPTqKPPeOo/3ymRohTLSzBs/K7iRcAhFloUyr5/eM42Pf/ijeOKRx3YNK5Hc88zkxWe/gTQLyYSaJqWcVNywtETgQbDQ/BtiJ5qwRx0vVAsZK+mwQFLZBQrqnSomohpIg/LUAqMOWLJ/NTF0izWm+Sso8pdoXhKxg3qtCh9pfoEFXiaRWnYEJtGQVpCBtWxUyixYcu4RTIgCphQSPX9oeg2ZiYLDThRMvyliJpIhixkyE+2bmTOzx5hJQMyEKClmcvPGIgZMh8NM1toVsqItRBpt7GWtfCyQNGYiBytTgRbkdPVYU7feVfsCEXWbN4ghC5DZ4++Qym+nicYZzwty/IgMwmgNyARiYax6WzhdWkaZYHwgOo7p5Bj2TM4hOTMN38E9QDKOOgFnYXMTl5hni6VVbFXXUCN7qlLxa3yvGr9XhUBQqDHvyAxtThU+SWxLfhLNr8Kk2lbmoiqQOBU1TrNFrFN+LeWdWubkYJWyioVoq/fS0AgNPuwz/TaTGt/P8pvPsK0xQf1iHMoP5oP18uW5IJldOBpRMbIpFtQ7uiwg8/ObkDFJ9Py0P4zpQAKjgQjSZC5a2W/fsYOIT43i6e/7COb27TVfkCqH3ST3PJg8/9U/xjiLWzYcpZnTt5XqQipwxkzeBBO1aqhUqmbXFB7Wp4QhROprtjDtaY2xkANW/QBslT7RbrXgEChYwgxENHenYzY16hXW0NxWykNl5zWKy5qTuW8LkLNky6Qx4OIxB0z+LDPHaQ5W4XbotjGTbTCR3X5kehb7Y1lTouI2mLydmeOAyRzZ1RFf3MAEA+YPa1mZN+JZcc3ITuXRfpvHG1Q0KZ+UKcRkqodsgIxEitolm6kbsniQ6EbIAgiW0QA2fR28UdpAhSA8lxjHZGYU0cQIkntnETx6CJiaoLZFQe3EVqGIQnkdndo637Vlk1dXqbRb9TpWCDa31tawViigptYhpkGTNWmlPfOVMG0CgxDf41B2HLlIDPFYzJryBdpinmqlcxic/CyWhwRBlQUxNq2Vw4yzCbP52kIry38LYq+270FJ/jDeHwgyHjK7OgFuPZ/HJlmG/DuBXAplGjhFmo0CqjiZ4v70GE5kpjAXH8HRvfsRJctqpCKo5qJ4/Ae+1xaW341yz4PJc196BtNUmqTWWyHj0BrAYiYCki5Zg5TbChA/tDz+Yg/q9SnlFpiIScg7L4UUiGh6RbXqiMYLRKT0dVJilkwDEXVio8pb4ZSvRd3ze2pm5W9dq3uk8GImWirDJzBhunT/beerCqqebwDyZiF2AEVBSitxmImevRNM1O9BYHKABXYnmNzJTAQmtUrBfCZ7qAyHPFEyOaWDqkVQ6BEE5DGIk6jI6apn0yBDddv8UdxaQTDRZt4RTGQGyYfSGE4mRxBiXpJ5DSJBNIIezJPGazKlXDhJtpCAP5lBlLQ+dvQgwPQiqlnveGOBpmExj6U3XkbEx3fz8jvwG2mayApBfKtSRZHA0uf3aYkJ8bkCFLECZoQNcQgTPA6kRpDit5cDVCZNi+8pUyioPkECRF6jRItl8Avyj+/IfJH/RRNB8cIhQ+Fxy1+1CnErkJc0CWZ9slZNHq2Z5rSY1lahZJ3wlA++VIJ51bcpHDTTf4RpGfXHMe1lPpOVdJieXiSEtSjPPXgI3/k//Thm5uYs7t0m9z6YPPN5TNN+jlOBVFMJULTWvAq4pgbQvBq21KYpo8+cp+qGZmDCIGV1zBh1KJJfRM27uk5znshTb606or8sjp067XIVZgb5W7Tcp9aU0W+xHV0rk0lFUcyED3kLmAybL5nl3Bd42PIL/K3wdmCi6yxupt+ckEyPANIBEzETteYITK4sLRkzeTswCdWamGUNexARpJQX0mjSc40A1mJWMdoO5j7mswQiYh7a+nlOPX6jHV4u0sR8EGNpUhHVhBwXU1A+RkPoUzEL8lUwfo350aRKkbFxeCfHENy/B4mpGYRiGdlQ6OYraKyvIVRcIwsU0Ktfz3AcjHrH1vjt6gIW1v4CmRbzwcwT5hETYeChQZzBrodPYjbZEIfhOj7q4mKtK7wuEGC6mOd9gQnzQ31c+Pntt0ClTlbktAqJlwlYmSG8l5Eo35VT+la6j/msjmZ+spRoPGZ5vLCybqOnuxF+m7AAjGVMTt0yK5qaZpsjm6VJ05sdRfzxk3j3T/8N7D1MlrYL5d53wF67iiQLXpAFWst3BrjVCnxyvnYJJOYb4XE105oDlEFKL+dplza1BvtpEJ78GuqgJNBoqts3y5OUxMaZ8Bp57nVu2GVfAEGWQsWRU1DH5OiV41YzjwkIBBxqUta4H5k3+m1g4SiEwEmgQWWUaH+nqDib2DXDX8MCT6Xg/erF6Thg5RBuUHFuO2B5jVbnZ0qpLARVMi8tb5rk/RnSEVvNj9eL59QJMsMpD6iQTLgt4E2QUauEKZPSzqv5xmgJYKhTTdb0Q6ftwJaVaPeaqHcbqLdq1kkwStMhTkahtHflTwiSvYRD8DGENUkUn+utteEn+yivLCDQ0ULqTCfBt8NjpAPmVPd3O/Dy2/p7DHqHdg2hVh0RgkaMvyM0izwEIA/v97TrCA66iAdoshFN/DTjBqwkwgQqDysbL82QAN8ixN8BOXSZ5gHji/B3iNeGCDgKAV4b4PN83Pq4DelbdWjmMh26R+npkH21ykVUaeqYacXy0mRF1CVr8TLt8qP5mO8DxqtevkXmi5dgW2eWzL3nCeQmxpkHu0+GJfkeFjEK9d+w1pRW17q6tzQAj2BhXekZ5NnvseBpaU+ZKa2qOp4xkHkMvf00g9T0pxpGhZZqpnVmaE/QjOmwrqKSyWRSE7KAiUxEtaCzLrAmXVKvVrEGBQMrKqyYhLYKDoDIJyHWI3EARI5e9XlwrpWzUOxD998JMhIdU3y61mEtMn201bmdQXErHl0v/4H6Tai/hrqW6z39rNl79Y75K7SUqMwb8i3mybDfhdIlQCj4ulholXGjWcT6oIkWa3P1S2lSueV/8bMODw36yBCDEgQGH79BVIBARetvFdBaWUNvfZNAQYpTLAP5EgGAYB/0o8znbhKMxKQEYm3GV2e8Wp+o1a4SDAmQffVO7pA9EUA6BP1mgQpeJqsgE/KwUvAR0Hm+OZAjl/eB5SHE9+e5Bu/V7y6vaTPtdZ5v83cgzHeUDefl/X2WEV7HquR2AO+1Lc/7AgSaIL8hj3X7NdtPjcXhG4mgFqCZPZoSbyUQ95DdM4J6gt9oJg7vbBKNSBcemoBizPyw9g13o9zzYGImhNiCGAgVQuaN2IaNsZEzjuyCvHu4Vd8TbjXK18bf8Phwy3t5TH0V7DeZR8/6qahbOY9vg4aZLArObwaxDoGEVdTcKsivoOM6pgy+fW5bpOQ7t99K/qzzEmMrDFJ6Z7yJwGPncQXtS5w49VvXxcgUQrTztSBXibWuerEWmzVbE0gApGvkxJaDcUsLbNHWabH277P2tzh4n/mBCASELFsqQzPeK4S6fSR4NE6TYjQcRSIQRlP9SfIbBHFWAMx/mTFlDUngszXlo8xSAaCGALR5zGa/owk3DFRQbmkZMmOZz9zySxFMFMicvMNt28et2JOaciNBmmCkBOEA+rSHumRSPTIsgRatLVvMnF/SxgwpiJLKh6LVBvXb1tBh1g1NIX5TPtOmN4gEECTT8kZCCCXiNDvT1sKWSiUQitPIS8fgy0RQHJBtBZluLe5Fs7hRrlj+70a558FEJshAALINHupoplG+Gr0qdiEzRQAjU8TMEdYMxhws6BivZRwK2neCMRmdp1LIkatxPAIi/RYzUbAZ2wxkWJMLWAQq2t9mIdqX7ASP2wCh89zdeezO7Z9HHIbisJKdx7S9c3/n8/T8RCzBkERYkz1RMQZBH5VQ8MB4CBZyXmuGOfkwaqTuLQ/zTYqtvx3P5B6vJ/Pib/lY1NgjFidW2CVzlL9F+X36wgU8d/Z1nFm4jouL8zZrXZmhSrbSoImjpnd9P30f+SrUNNzgvZqPtsq4q0xbjeDY9AXR8PqZngD5gJ8MZBiaPNbUdnu/0pWp57FQY2gw2LU091p9LxqsKzr83d2OR8dafZ7rkfGStXV5XYe/uzze7Q23fR7rKh7e26gznSQb/Ra/f4fX19vW+bFM5lsiMLcJdHH1uKVZqlashdNnsL60bHm22+Se95ncYuGM12lzU8l9qkKMjQyZhoEAC6Qcdz0xEhZyx/Fq7ITKoKZEUzLuD0FD9xEwxFIMLKgmUkbdI5aiuOzYkJ2ovh/OXTIEARtMSFHlaaYKt6bAfIYJa3Lnt7ZqJVB8jpmjY7bPeLTVdWIAOq6t/nSdCudIIolcOM5rqHBU/1K9jiKVUmv9agBd3+dFhbW+2JSXpsdoJIxRX8h8Jqpd9d6atlGkvqOu4DTz1JKhwXF6f/MxKS18uZ78EKypwzKRqMiRgZqKyUT4Wkwdmn6+E//CfH31V1E91ZUvh88oM58CmQzqNLM+99rLeGN1GZs0Nzc21xCleeGrDX0NHuaj1wY/8tnMzw7TUudzVZcrNHwECF+A5hCV3qvWI5kYIdTIrhpB/Q69uQ1wy3MFPr9KUKky7TpeZ/rrGuLAbYMsrsZ3bpIx1f0BXuezbTM4/F0haDSZz4qrafERnHhNhemqkrFVSFMKtIJqBAkVjWqlbK08FZrOhQpNO1ZQ9VKVwEjwJQsr8/2KBJki83P/saP8BttNYrtE7vnWnK//zu9gija5CmOUhUOd1jSOxiYmojKIvmvwXJf7PSkyAcWAgDWWlEwjSEkhzGTR9QINgYhMHimblWpep5qSB+xeOXSH12ksi1p1WKK2xYCFhU0TVqswyY/pgJWy2gbRcTsEJyl90Gi9wEHX65w6NMkprK0Uy/F5mFlB1dX1GhZ/eGoGx0emjHFtDjqYz+exML+CFu+JJpPohfxYbhT5rCa8xQqOJBPWmhMm6AQJHoqnR6XkWbTNdKECM48MBPneWqZTzw6qr0Z4OLucmsLFMvxUkCAVP8R80Vq9paDaPfrINGhZMKusy7sUn++3wSxMHj6M7t49+F++/FksMY+ykRGMVmt4P02QSZo8Idb0ASqvh/mpccsNglgl6MEWzY08341vYS1Pipc0yNIw4DVN5rO6+X8r0TcyEGbYWdTtG1ieDkFa+wrquayBhbzAWpXsHL+hzRDHfVsnmvmjY0FfGJFelGWuhzCpmBy+nj6/G00pOV8jcroyrwME/DZNySLjjhw/gpnvfj9+6Md/3CZe2k1yz5s51hIhxW4Pg62Az223NWQeAgHra7IdxDqccOdvu55AMtwOg8yZ4Xb424CEhU773LHae3h8WBid4BRWbXcGydtt7wx/XtEznLTrPue3gvYdJdJ5532da603aTRsQGLXt+RXIltivOrMJWZRF9gynhgVPd31IdH2IEzl8TWJGAQTdWTz0yTQ6GcwqJ/GsFhJoaTE8teojwbTFmLtHqeCZaLYiHpQifngDWg8TctaXzCgedNrDzuw8XeBwHajWcPFZgNnaC69xgrjNIHzFL/xi/zGL/H5pwjApwnmr/DcK3dsT/GeM1T+M3zf0wSwU1TsUwTpVwkSZ8mqzvK9zpPtnKOSv84sP8VrXiTLfYnPe4XPOU3gfIXv/xrz7VWG11hJnWHazrHyOUdEO0vT72ynjnODOs9XcdHTxDxBZb3P92DeKl+SvgiiZEb6DuQvaDFYC9lf4BvfK3LPmzk3zp5FuFJBr6ECyXLPwtUnTRfIiP5rxKjMHNnfYicydXosSMMgpWMtQ7Yg/4fGephZpHu1z/scELn9mwVQSiqzyUwQ/skvIzNH5F7Apq3+UzxiKLqepWe7AA0L0Ztmjt/it+7e3Epk3shfo2PmW9kGBG3vNHOyIa0FxEJK/W3wedVq3d7VMXPUm1UtUQMqkcbmyMyJM/50OokQa8ZGkKYD4/QSG4K8XlMkKPFNdNFknuid1TM2TKDRmJpAXfOcMC18hsb7JKkw6uAndiBfSYxgE1JHFIr6ZrSZzx3G6Umk4JkYx1dXbmGNpyu8J8FnHPe2kWpXmSv8RmIfPFdjzV4kq8pHgjjfquEqlfcaz80zfYuMa4HgtMS8WGVYZ15sEHTyzLo8txuMd4N5a1v+3iKo5Zl3a0yHrq2RdQw0/+z4JLxj4wjMzNi2lYjz+gFWCCjr/IYbjG+D777J98jzk23y+evMXx3b4rfd4nfdYFoXmO5bfrJCfwOFmBeNCMsPr43x3eWM9hB0NRF5jffk+x00E1FkD+7DAw8/sj1IcffIvQ8mZ84iSgrfpa2qTldyxqp1hxpmCqjJc6T4AhLzcWybOdR0XiJAEOiIZUjB+dvMH4ELD9gxmSQEEF4rULDf3Oq8TCY1n3bIftSdTIBhPS6pGhp8J3DSloeZDsZrUGCXGaQoaB4VTWLko43eUbxSbIJIm8/zcNvlDQIFwUyfJodW7xJYBEJh5BIZTDJociQPf/fEJAimHd7jj9A0CdEm9zNlfA8fa+qxaBKTyTSyyRSCU1MIjI8iODYKf3YEqZFR5KZnkJieQIjK1lfTcSCGPsEhyD9Ph+/JvOkSiDwaecv0BvjufuUNkbTNNAqEBCQalS2Gop7GGhPlCYbQTRH0Jkfw7MLNoUK2OkjyvoN9mmytOsGYec90q5WlFaL5Eg6gFo3gJgFrlc9aYxwFAmcjGEOd+dKQA5amR5/HOzSlOupXExjut3XM+a2tfjOOQSSGBIFj6sAh7Dl6FFOHDmH26H2Y2HfAJnhqMR+LZDvqw6z7ukGyNo2alr+F52oCWW5bjKtLs0XbJr9fXSPNw/y+aZqQ0SDCfI+xng9JfogkCM78bvVkBKUIK4xcGqP7D+ChRx51weTbTebPn0V7/jpSrKk1YnhApZFdH2KB0xB0AYHTtGtOVdb4NoUjt2IdUgGBBrmn/dbyl7pOoGGuFN5nWk8jWbTdcIeH1INS1F7XCEgcwPGysOl6MR+7hwVQTELx9AVEiouAMAxUBpkGYie6RwDEgtfiRR0qino5tFn71hUv388Z9EbKwi/nw2R2DGNSePUTabbtmgajLZOJgGAiWq3+N36+T9ofYW0ZBBHLWEs8NwZQmSpMY+boMcQfegCBIwcR3DuH2L59GJ09hMnxA5gdOYTx0QMEmHFUY3HkQ17WzMN3sYm4mRSxGMIBwS+MQDCKgDc0HMdDxdREVU2aLIPRJHzTOby0OI/Fcg3+5Ah6pQr2EszHCERh5qfAd6AJ7sOs4fmiVcLVaousoucnC4hQuZMIc2tmFd9Nax4bCWJ+yH+ioPE7pHD8KAQ9/tbXEfAFCTKaxe29730aBw8dxrPPPYcEgXVudi/OnT2PUy+9ggMHtNB4kte1sLVVIgYQMP0hxqPmdjW7h5jtqrLItAiYPqYr2YsgHoqj7O1hbHYCPZbBBE2w/QTfRLGOtFqKmMa1iAeXuzUC6ijG9x/EIw8+bFNJ7ia558Hk+mun4dlYs8F9NnM8a0KBh+akkINRhd5ac6TQRIGhYg9ZihiGOSF5X5f3dal0Qx/IUFkEKNoXAzFmod+Kg1szl0gxyCPQ5bZLBdOcqn0WHBXo4T7BhL/FFHTtcCsnJ/eZJjnz1FJCvUNLcQg8GDSdgICkw3sbVDDRZDXTNrkvFqPWGm6QTCYwOTaBrVrVxoZUSEG2GEuNdnuRtnylWUcsHKUJM7BxN1FPACHZ79zX4lr+BkGASuIJRIzVaepHYaA3FCMYZcHqGgikaI+MkMmMI3v0AKYfOobZfTPIELg0pL/SqqDOdy/z9grTWWUEWmdIc+yKrGihs5qI/0iSZs4oziwvESAI6GRJnmYHB8gaxqmkYWaYrWXEdyevJNsjmPrCyBNQ1qmQ66ocGNT0rKkye70GgZXXk9HIwa4/gZGYqHW75zF+MQID+QTTsVXYwr79+3DkyCGsrC5jbu8e3HfiOG5cu4Z3Pf4EDh44gBvXryGTTtvsfZoPJULmoPuHLYGMT7UIn8/PaBVGgB+3W6YpyJ81piWWicHTamKUeTBHey3F/O02Gigzn1ZJQuY7DQxyWUzt2YfHH3ncBZNvJ5EZc+3VIZiwvBjrMF+EPjqVr6Y+DvzqqqH1yVvbBc0KnxRZWwYVEA0xVzAzRvuMQ1uBh56jPwMZ5zqd47EGY1Zg8bYgH4V6h2oQmJxtDjA0qVQ6J4AYXiNwYVzWeUr7BAmCgDpbdVnb6xiZsg1596iTVFS1opc1P2tJBi0WlqGZEppM41o9j3LCj/luBQutEqr+AfLNKvxhtQrVrVdwv6Eu4zRZqACDFgGqQrDZKKG8VEBreRPVm0tYeeMqFi9ewcaVm6heW0Dz6g3WssyfcgmDRokmT4WJL1OZWvDGCQA0W5IzE8junUGUW99oGgPS+UGE5pUmCAoS0Mk81P3el8nAPzKCc8uruK7RwAL7ahMT/SAyiCLaJqg1qaAIIegluwnE4aMJt052kQ94kKfe9eJ+gqMXodAAoTBZT1Qzp0UQtSkSg4hGglRQ9e4NIsFjcYbcSMp+x5l/e+emMTU1hnJ5C4cO7IWm3fz1//S/47HHHiRJ24fl5XmM8PrV1QU+g/yD+Zjk+8T5rvG4eg9rOwza1/KeuWwOidwI/JkwpsczSBDQpsmEpkhH4qw5AmRmHaarmgijTJMzNTWN6ak5PPzwI0w3QXsXyT3dNCyF/9J/+GXg4lmbeMfD2lY1sJyDqoG1tIJ6MQpQBBwCEjESMRM1fRIV1JGSmzePO0FVvwEGa2vLIgYDGAGVQIVbAyqCQIdAYWyH18hJKtG+c72zr8Wy1UndFs1mOlnliTDb9ardzGdAsDFWw7gdUdNviDRdzMsmJWJ8hBTsp0LM7JnCtfmbCCaTOHvtCq4szMMXCqNZaWBucoYFmgBEMyjBwj0eTmAkRMVlVa2mVWuKZQ2aiKrDGu1/5oNYhHqAarVCTX5UzhdtxrBAQOZCjyaS0tJFghZTlMflF9Gaw3X111B+kOENSPU9RYIOzZl+uUwwB2IH92FwaD9+9dxZ/J6mbSSwDFhzP9YO4qlwCsfaA6RqFYR9Hfj5rH4oglI2g8WZSbzoaeH1QB/1ZBQZspUg89zrYV7wuhYzy0PzTU3YjhCj7bc1azNtmoA6x+dp5cfjx4/bVJCat+bLX/4yXnjpRbz/Ax/A3r17bUJojRzXTPKallH9QOTX0Pfb+T2db+qhmePvhO17lVDBSJIguryIfWQm+/I0caotFNbWsD5o43rMi0t9spYHHsT9j70Xf+tv/e1dNxXBPQ8mX/yVX0T7wlnSZJrOrAlsGD1pqabv07okGhauj20sRAVBlJVbAc5wkSw5a/9kYbkNJgIWimMW2b3b18q06ZM1iOk416kgS3SvE6dlsQIhQlMFaqtHCEzUS1T32LOoDwIUB1gkilcd6zSXrNb+0eTYskXUw3Q/qfrRQ6Tnt67Dx1ru9KU3cOHGTXhogtRqDUxNTCHqDQ1bapi8WCBkQ+SDYjqsPaOeIEZ8SaQiMURTcZuWUEtTqKUoRPNIrUrtWhPV9Tyqi0sYFDcR7TasKbfb1/iYNqLNIM2ZINqsfQdkCUhF4SEjadbLqBWKtrjXgOwrvX+/9TP5nfmr+PXL57AyOSr3LY7kB3hfeAQPdj0YKRUR69b5bjQPmE+lVAKvRTx4btDEywSTGtlAyh+lSat+PKwICGD+cJzAMhxC4IiyzgETZxKqkUzWFr969NFH8b73vc+6vv9vv/yLOH/jKsanJ22BcZkd+l7nz5+3MUwKAhfnOyoeJ+i3T86Qct+c0ERljJHNhPPruC+WxFS5iaQqLLKqRZpkV0N9XCGsTj72OE4+9hR++if+T7aezm6Se97MuUIzp7u2Yq0HUnJtNVqYe6TYHXNa0kJHh0Bj85pwq56swy0BgSAhu9tMGmk1C6rNZyGDn4XVtgzWaYnAJJNDAGUT7tCGV1DptWZbBrXeqBA7DMUrR6DOGTqwFmd61OKjFiAt9WAOYTVl85iaqbssmMN5WAg4PCf/hrr3q4XEBh0abSEydAYYYe06QqVrUNn7TcZXaxno5DI5m89DLUWaj6PO52wxjuVaGbeqRVyvlnC9UcENhhWagjfqJVyqbeJKOY/5Uh6LvGaRZs1yo4rMvhkCJmt4xhGsN6wZXp3eAqRIcYJT0hNBmKaJFinToMtYPIZkNs1t3NZrVitalxkUjqfR4/XLtRpNnSXUaQZpYqkEwUrLb4wT5KMaCcxv5meQM1yTXOeZ/QvtOm4xLSUytA7ZTKXSRLFSQ4k1//ytJaytbpJ1bGB1Zd3CirbL2t/A9RvzaNGsu3btBoqlCk2UFD+WD9Mze7CxWcS5i28gM5KjSZRAfmMTE+OTeOH5F7Fwcx5LNMkqfE6hULKg3sUlxlEuV1FhKNN8bPQ6qNGkDLJMJfl9Erz+UJQATXxJktVoWkz5sOpkfnWWo+z0LHIE+Ucffpxp2V2d1u55MLn08in0SCVZp0ITSQ+Vj2yDSix/h033J/2jMmtrCs3/bYkJKT8/sGbQotYPWwR4TM5OBXGN2/vbQZWNjg9bDajTZA02UHA7aPCg1YZMg7bqPKeZyIZjhwgW3HYaLbQZNJEPtc3S2yHrkDNYSzEozm5TI5O1Tk8DDRbgboPAqCkjuW1pZDSVME1G4F8voUOlaeTL6GtBrLamYqD5oS7njC8YjqFLwKuzJi+yUG/yVfNkDmuBAZZ9PRTJSG4FerhBtnGjW8MtMoqrlS1cZrhIYHn2ygXkq2VkgxFMBMPI8P28GqRHyq6pG2vMxzrzQv4h9REJJqIIy4dAQIkm49DyrW0CnZqX/QwdguDq0pqBXYx5MdKiOUawGtecNDYlQIfMh+/Ar9QN8h2iEawxj5YJoE2yLNIeVg5BKmYQGpcTiWhtGrEqgheDltDwq0WJW/3WhBQ61mz27FgiNcKU+m1cjVpzorw2G8+iW++itFFCk4xibWENyUiKjC1lx71kIL6eWm80G13A3kV/PZabeqyPVoAMLepHhmUtWW9in5rr+X2ZWjQJMF2VHbUmMR8EZrnxaTz25LuN+ewm2QVg8gp6rFECrKFtQhwqu3rBqtelWknUbKiZsgQu6kSl+UOGfgsFogEZhvX25KXq56GJeDSwzQma+UutE81u1/bVutKwc2pl4TkWHi3Y1GRoERSa26FNEKlzW2VtXm82eZ5xsAQ7oUFgaaoliUlo00zSc/V8xWtdtlkzd6hEajYWW1HfE2s7MsAbAmE2wRqQihH1hxgP34GAWOKzylRSXzRKpaOyM64qQ4XP0HTZjRBrSJoyVSpwge9fZ4EucF+zy9fJutQ9vcRr81TDTU8PN5sVm5O1x/f0M94I0y5LrR4EKgEqC5W9LQZCIFEnN/Ve1dyolVYV6yUtcu5Hsax+JH6EwwkqfxxlgmNac7HwnUZoKs7FwtAMHwF1+/fKVU5AZRpaTEuV77vSrGFZ+ct39vtY29NEU8sOqKAe5rH1HSLKW18gJ6giEfNJJMxUSSWT5jsRa5Q5c/r0aSRpRsmBunDzJpnMCibGxvHqK6dZ3XjMp6IVBTTZkZUY5q/Czv0uAbkdZMVFAMyRXY2xtkoS7OcSaQwIuJoasksGBpp/vkQMNX7Pyf2H8fB7n8axBx4wn8xuknveZ/KZn/+3aF44hxRrYPXAFM1XzS/nq1pCGjR5nLE5ZuawUIo1iE3I9pUDtdXR+jq0gQU6lCFD4HU8bz4MnttpLysYRWEwe1mA02rZ/ZEIa0E9k88JhKlkPK8sVhOy2fB2uRSG99Jc0uzn3QEZja6hsmir+Kmb9luFWQxFc6CEqUTWX4ZpV602EU9SEeM2L0i100KJz61QmRtMlxSvQ0AVmLQIlnUpJlNR4fsWBx1UmBdVXhNMj9qSE0wawmQvEb6a5k9tEUzkkG3221R0H/as1fBUNIOnaK5kNDtZTPPEtpHIjqFBsEiy5m9ulqjY5AKxIDbUfEtmEWUtvXxrBaEua3UyizzNgwHZSz+TwFJxFSMjEaQJeyMN3kcG1OnVzfwJE3xavL5MU+A88+ulbgPXqIw1bxjVcARbBCC1piXbfZBYfUtRnitPHXCRP0j+Ea0LPDE1bktslGn+aelOrY+jWfacMVLKfxsfxf23E7W49ZP8LqwAJut9HOj7ccgXwYyfhh/zTr2vEQthtV6xzoGe8Ql84Mf/Bh79zu/cdSaO5J4GEynlr/+rf436hUtIkIJr1qtEKGLLOapQaJ0UOWHVd8FxkpopwtrVRqayOFqPy67GhAwHhKnACUi6LCCgAqr2cArjcKAgC6XozzaYaH0ctcjoHoGV0Efzcig+FRiZV3aO1wpsxIp0TnGpKWlASi8wUb8VPoU1LF+M6ZXvx8u0ZVMZlNSUSlucPxHwBRCi8qdZ++VYs6YYn4YCCMCqfA91cNMUhx0+V74K7tL88Flo8P4qo68x/jpDg/cG0jn0WMt7fSL/ctTyBoERf2hWtRrTFiP4jq2W8UgwhiciCeyJhpAei5JF1ZEeH0eSIBcp1rFw7iKSVL5jjz2CQTqG9XYTz509jwuXrzLPqVdkJuUCAYNZFx5JMavIcghbMeZhhunW5EqeUJ/6F0KSJoVKZrHVwwK/8xsEy0Xmb70fRDkcRD6mzmDe4dy1SrPB71u3motEZiZfk9/Fy7wgiBN41FoUi5IlxcM0iQha25WBU4GoHOhbOUAk0TFHnH2raPiMMJnwaNuDKYLILMthknF2+KwKTcFbxU0Ec1mkZmfx8Mf+Kr7vb/6kAdpulHsaTDTf6r/5e/9PVK5cY21GwKB9HuPHVIuNlsQUmKg7t8BEncYECNYkzMJn846w8Iqed1XIeE5ZYSyG96ggCUj0DIGHAco2iGjLKG2ryai1KBNvN4VWYW3TDNI8oSMjIyhXq7aubEN0nIVQEyc7z9GEO10qlIGawIS1mXw5Woc44A3IMsPB/YewtrKM9fW8OWIFJpo+IBKMUDlDw8mzt00LZ65URmXP0Gxp1uGO5p98R0NQ8dvoW81Z0mNc0dgIn6Nn8QX0fLIS/clf0VE/EVmI9RYyxSqO0sQ4zvtPjI1g/0yOILeOmelJjFA5wpUGFi9ewgTfefIj3wVMTzC+Nn7tmS/g9597FvNMf2Jk1EBcqwBosiA15U9Hs4gzz2IdgRlBPuJBmoA0SgyItHvIEIAEkHkypBKVvs0PpjlNClGNSlZ3fiq+SrA0Wx9lx1YTK2m4g5fgoZ7J+nJdPrNL8FXnP7EoddbTGfs2DPruzlaiciFxAMS5zvYHBHIirtYSivK7JcIBW/a1w2+62atho9dAOxHBcoPmEoH/7//zn8MHv+ejdu9ulHseTP7Z/+X/js1LV9FtkI1sbtkSFapVRIGjCdrnjdoQSPhbr+r0L1EBVNNwh5Rfiu2InLYS1R7qY7Cyvma/DUgopqTbQUonFqJ1ZaW4AhMZNCrPIZo72dwINrYKBiY1mirDOMgYtoFLq9O1pVTbhdPAjoU4RBBzCvMkqbFsfU24o1rTjlMRrJAzjrAcGEoJo1DTslKvuCWKwRnNq2778hl1aQb2yWx6wYABm38QJHAxMBrd11NLlwCVgNNjOjwyrcj0cj0P9hMg9xAoHxofw8mpMRRuXMUYTUnNR5Jg/INmHaPZDCYPH0ItGUU5GcMvffWP8ceXLmCZ+ZSanKBpRzCrVwn+BFwmuLxRsSbqKBOu6QC8ySDG+N32B2IY5bcMN3idQJevIZD3NWWCDVAJERAJeMOF34f5d6coT5Rfw281zBMnr633MvMxyMPii85xXWvXM38VHNP3bWWgmf3VnKyc5rUELc36VmjXsNYqYavXRCOkaSm7yO6Zw9/8v/59fN8n/9s/Pc57WO5pMJFy/dZ/+I94+YtfQTm/iY3lVWsdUQHSwkvJkQwWV1eGzGS7cAhMWGGxMDOoHLI21nGr0FigTEkp8nfIUVeuDKfZU8F0CppjpujeQChovVFFkwUa1nqkyNSPIx5DVc5XMgot/yD3SpfPl/9Gz1KNqbhEuyXal6ijlUTKo0pWW0UppmSmEo9ZQacC+zQGhtcOwWQIKmI8/N+uC5J1aEyR4pbZ0yVL6chXI6CQGtHmECAFWdtLIcwRrHfUe/C8zU5P0zDB5+6JRjFBMHlsdBxPTkyid+0mZsT88uuslUMEQQ8iBGHFv1ZroRpP4GK9hno6gw6pfrHbxtUbl7G+OI8wFSyUSGCL+dTl+3rqXVR4bZlQESEzmaa5Okp2Nkrw06yLvMxG4cZqfC/moaaOFNhp+Qk5sXeK8sARP69R/skEVZ5ZvrN8ON/TxlK9jThq4Si+8+13BkIbExVHQ/vMbK1D1Og0bJa1FsFTTvLRySk89t734sD996PCyuPRD38PDh49anHuNrmnwUQi/8iX/+hz+L3/+GtYujWPvpphpexUpghruGKjSuUemhU7wcQWnOKxEJXNZlfbLmi6RveLNUh5nRptCDHDQmVjP3idhudHWcPLSVfTinSNOqtC1vosWG2Ch0fOYF6jJRvU38VMHCqpgEjps9qQz9L9jPi248/x8suGt8mnmRYVagNJbRlUwyvtnjbTx7iHbSD6U4o7jIfPZxyqO9W6oRpc0wGoIrdpGRmvnp8gg1I++PlcvWlTLMDekc+llgbIHgS8rMaRiwQxwcx7LDuGD0/tw8RWGdnNAsJkJMFYgMyszjRSgWmC5UsNVGhELDGOiQceQPLYUdT8HqxtrqChRcGo3Orurz4kdcZf26zg1toGrpbytoC5FlPzErhGyG5IQOANkQPQZMvWBwgSALVAuFqK5Ch2wESAu1OUbAMOvpnydbg+zlDsG/AbalkQGyKhfW4lyhcnqCw4xy2O7Wsl1gLo96HJYz3NNMf4bXIshlwgitF4BlNjU0yfB51IGP7RDPY//RQ+8RN/HalMxuLYTXLPg4nkuW88i3/zL/4Vlm7Om2KpJtKExFqkWnOaitIOmcTQzJGCCUwUIgITMgcVLIcSy7ErEFBhEnBoKy3RVgVzCCRDYPKxwCfCUfOTyOSxplyqsZqV1SwtEKnQBNNgvVAsilgiaU2GmrBZYOGlgodkSrDWFTDqGWqpEVjoPbRUgtKkQq002TuwABtDEXOgiaKy3aG5JEdul8olxVdDsoLiVyuXlxqne7nHQq/gYxiwYg1BM/L3yKrESmyiJMbd18Ag2hbhnt/ArdRtIB72YZLhZDiBj4/vxwk+23PrOok+wSvhR766Zd8jkUihW+XtgzA6oSyyh48htGcPWgQcwioalQIa68voasyPWsGolS0iymq9hWs0DRZZAawWi1iv0bSj2dMg1rZDzE6+aIZgEtHCX3oPn0CRX8SY2JuMxCnQAhfNdGadDvnO9n15zPKBQXFopb6d31THJfoOCioL30pUGjzeoc9LPaHF7kLtPkYHITyQncGJyX2YSo3CT1MwsW8OnfE0rvabmHn8frzrqXffZj27RXYFmLzwwov4l//0X2L+5i0zEVQIGlRUdUZrklo7zleJDAp1bpNvRc43UWeBiWpy3avlQ9WJTDWM2IxaYTT/qc3GzkIpBfVQ6VQ7+nmvj8qaIp3XwL6qFJJbjQCuEwi0or9X83DQVNJM7MnsCEbHx8w5Kwex+jEM+OwwAU1gIWYilpLJjNhSFPo0Gi8iIBSwaBY4KYzeT+Anp23AH+Z5KS6BxEMY4/PlwNV4Gqq6AaZam/S+fjIjLUqlhaQ8YjWkHPnKJsGuRLZQJSASVAleZlNouTvqUdQXRTgexWa7ilgkgDGadPv6fnwoswePJdIYU0e6ZhnNuIfXlMnCtOYy4bpKkyScwcmHnkL04BFg7x6ALIMIjMbmGmobG1Q8AsviGkItAmpT/VSAVV8Pt2oVnF+ex6X1RZzjthLooRoYAkC8yXfpbDtd+W28PK75VCQCFX1lbQUa4ibDpUHVN4dshLRMxcAqAoKp+oromEQmolrvlLdeblUONJet/CqEIF47PCfTRdfJ/0QOigQZiTx0aubX6odK13Qoie/Ycx+e2HcC4S4BlJXarQhwurSGtbgfuRMH8WM/9qO7rnl4V4DJSy+ewj/9//ws93y20t3ly1dRKdeQTKcwPj5uiru2tmY1gRT4kUcewsU33kCQr54NBXBgbgYzM1NIRaLIzy9g/dYiq8K+gUCIAJA9uBct0myt59IpbKGzto7AehHeupqDNVI/a2v2+pMJdKMhXFlexBKvk1+izfMVKpzGj0xOTmN2bq+xE4HE8uISOlo1nzW0mipVc6pfyuHDRzA1NWUDzlTwb83P49ChQ3j5lVOs9WNWW1ofFRbodoeF3U9YpAlhtStBUaxGna7ipNaaTU7MR52tYpG4PTdG80/ANTKaxWp+CRub6ygwDcqfgIdMiPFo4iMBTyQaRyAZQZ1sx8Pnpqh8I40+3jsyix944F3YQwZTp2my4Wugl5DTlsyw00Ksz2/BdxrJjSN2gGAyOoL5pQXMk3GoSXdtZQO9WhvFtSImEcZhspj7yF4aBKZBzIflRsGWwHj9zDkUaEZt1ptoMl0+KqwAMtjoktW0qdhkBQIPbofLYWgrHxPzwsCFTJN5mknlUK+1EA0lUK02MJGbstnwU5EItgp5RLJJlDXSmoDZY/qT4Qi0SqRWMgwz7yIEYuWPlsqw5TKYxwHGH6VZnaQGjbHcafb+XpZmWSCM4EoDh8cPwNsOYjNKc/eJY9iayeCNah5nb17G3/7xH7f+LrtJdgWYnDr1Cn72Z/812ayPSpnClStXUKMCZ9IjpoQCkjcIHqrtp6YnMDe3B+vr67hx6Q3kYmH8j3/tv8X7vuMp6x/w0le+im989hmttSTjH4cffwzT9x2FfzyDQNiLluL6ytex8cJptQXbrOX+TAqPfuf7MHZwDl0q+8//x1/BH3z5SwiI7lMBqrUGUomsAZ3fF6IS56zArRB08quLpnyqPcVKopGELUqudVgECqLpG6zFZ2ence7cWTsWjpBzsDaWD6YmU0mMShSen9IZ5ayCb+Cg2lJKwOtkRklmZ2ftmmazhlqrgkJpE0UtZUrRHB3yk2hQoMytcDaD2Ghq2IGtUkaw0kay3MbDqWl877H7EVtYQmVjBcvdElph1ugEgjDfY4rpnyCQaKxLZJRUf2oa8wSFwOQU/OlRFDSuReOJ2l20b61iarVEgF5DwtNBOhEmcNRQ2MyDqsk8aKLY6trET92w3zryxepEad7bD8rUYRE2NsJ3Vw9abXlMrVvhRAIlMUbyCG8oDk8oihopUCyVRavaBPnfMC9p7tVpYqWyrBCYzoTyZ3UDyZaWRu3bipGkg9CwgQZBS/1wzPdG0yzQbBnwNMgOF7xNZKen0F3hu3ZDrLyYjlkC17uPoTCVxkq3jpWtNfzU//A/7DowuecnR5KoBn/u2edZkwapOAEUWfup9k4k41SaIa11Rn/qmNYUlqIUtvKolQp48olHkQxFWFPWUVpexcLlawj5ggizdnrk8cdx8v77MbV/Pyl+FKN9LwoXr6Ny9RbSrP1pkePAgyfwkR/8fuSmWAvnsnj+lZfx6vlzND1Y0PlM9fXIsPAGyBBKhbIpvgaWqRm2VhEjIOuhaSUwSacypvQCQ4GPqLXAIEq7Wy0EModyuRGj4hoaEGEagjRNtAC7BZowge3fijdBANXs+coP3TuWyyGbyfA5KdTqVdbWFfPfqN+F8koD9gKMNxaOIUpFlBtXvp5+gPSe+agev+p3kiB3mYuEMFrbQn9zgYq/iMrWEuprK2itriKwWYa/VEdnq4b1xQ1UCAY31gvwEEhKfEY7ECGLC6PmbaPS3KKp6Mely6+TJSyhurmM7sYasLSCuIZKkAn2CuvoVzcwqG/BX91EpLhOU6qINgGx16jCQ6DzMy9DxRrCpQoCfLa/3ER5eZ3fuAFfOIr3fOh7sOeRh5E9cRyJ44eQe+A4pk6cwPTDDyJ5ZB/Sh/YiRxaapCm6/9BhtAlCZ1hRldbzKBJY8nyvDS3TsbKKTe7nWbGUKzWsFjaRLxSwUtrCPIG5x+88v7qO169fx03lb46VytQIBimWR/nwuh08+ACBmGVwN8muABMNLX/u2W+yRmdtzpq4VKLtXm9sM4Fhy4iUqU3arI5q2qc+o9NuIEjz4OiB/bj06hmce+kUgeQqzp85i1XWkrdWVnCNhadDpdzg/mc+9ds4/c3nce7lU1hduAlvWEs5+DF1aD88VOCOOmvQbHrpzGu4dusWlTloPXB9ZB3qsxKPxMzUGLIIXsqCpcXPtWaxZnmzof8hzQsqg39otqh5WiaN9gUGWo4zR0CoViuoVMsWf6VaNbAUi9G7GdkUiDEINNQbWEA1SoYwt2fO2I3iULxiRxoQ2GIBVxOyX2yGjCwcjNiWdTx6fH+1FoWZvoTGxpApRDsezJLVjdQ2aMetodNvIOKjycfr4gItMoqcjwBdrtvIZX86jVubmyjz3c/O30KhQxORptOrZ15BvVLASDqB1Y1FXL7xBuYXrmJr6RbCzJfGwgJqZD5bxVWaYjTH+KxKYRXt/ArBawPrrAy2qMxVmmp1rRRIFlff2LJQ2SxgbX0LpWYbHpaNY3/tx+CdnsYazdUlMhkvwb/FSmSpUUeBv9sEt5v5VRQJvnPHjqPMuF74+nNkMBU0yaSajZqNSLeOkGRqmmxrndeWVVn1WiiyPKXHRlHjN9io1Wzi6eSxwwgdmkNwcpwgNQqfnwyGZvd9959wweTbTaREX/va13HhwkXs27ef5kOIzKTE41Xzl5w4cdKYSKlcGNbM/NgPPPAAa/4qmqyZ/Tz2wNEjaKyxYN5cQL1QxKJ6nLJG2Rw08dridWQP7CED6eAX/9N/wKnXXsF8fhmrjS1sdEjVqbdVsorf/ewfYt/Rw0hOjOJLX/8aXn71VSqputdTwSJR2uoR7Jmds/SIoVTKJSTiMSugBS2ALerOwiV2JX+JlF3HI5oYmuxEHfTENJqthg1e07kt1oYNUmwxj36vSzPPS4AKWggSFEheCC4aZ9RiGjQbWcRYjNox5mZnrMn4+vUr5j9p0TyCQC8YRoQMTKZEn2nXvLLkNNafQ++R0kjcKtNCBZ0geKbrm/A0S+hRGbVeTIixR9oDjBBMsv4wYpoKgQoUpyKtNqvWorNQzqMfAVkVgbLRQobPy2TSSE/nsNWroxXUIuybNN8GzJee+WFaYYbIgGYO0+QfIMjKYEATp0nwFmuyXsMEsyBZleamlenXlwlKEKuHQ2gwzx746EdwcWURv/LlL+CPzryKBSr8i2cu4Hef+SIukVGt1yv40nPP4hYB9gTLxM3rN3Hm9GkyiR5BpANbU4iZ2mGdoUGImlKgFg+jQ+bWYqWkJuKTx+7DPNmtnjnywDE8+N98FJjM8WUjSGey5h8rk0WdeGj3MRM1btzT8uyzzzF802rh0dFhK4i6l2s+UDET+R+6rEmkMKrd9Vv+B13nKGmF4CMXZYMf2UaKBv3mcGxH/Mj3Gqj5+giNpOxYgYW9RkUoRD24UssjPj2Gg8eP2rwWAykqC7EmGEpncxjJDfsSSDHV4rNvbg4PnLgPhw4eJJDEjUVICZRebcVMNMPX0aNHcT9NK9nUDiPR+4hRDP0oVd7bgibGJrkw1qP3Uvd9Be3r/RSfBrDpWbpP5t+1a9fM1tdz1NphrRnWprrdjZxMTunXJMw8YyZXm8yiUq2RyhdRbRC4GJdmT1tnfqkGztMkk5O0KJZEJlLraplWmpUEyhD3vY0S2lvLiPWryAbb2DdK8yjSQdzXxCMnHsCRQ1Ss3CQe++6P4MP/3Y/jqU/8IMYfeAjr8GGLeVcmMGr1vRbztsL33fD2sRgEFkIerBF41kMDbAQHWOXv5bAHSxGGsA/LIS+udRtYJshsEACENlrBr0CTq0Xmp/lqe8yjBsEnmM7Am0xjwO/UjcZRIJLWYxE0kgmUE1EUklFsJWPIJ0LYICNbJQ1bYhpu9tq43q3jBkFes9T3+nwGTS1/Iok9Dz0A7MmhmVDHRjLDeAqeOnOO+bkb5Z4HE430LNOskUKJiWgrJZUSyrdgjKQ/HBcjwFFznGi/agVdFyE7UPPhJBVXs49p3IhXJgsLoJ+FJz42gk2aE/WmmIEPftY4tgh2ioiSiWFi/z5M7tuH7MQ4afo6NktF6wkr8BKIqRVFjrupiUns37sPcT53mtcK0CpMh4BCii9R/HKO7mN8YidHjhwxk0hBZorO673kkFX8+q13UD+RNpW5QTZVIe1XqDHNYj0aBBjh+2gRdiIHgbNAZsT4ND6H5o3YiZy/iotIQlxherkfJAuJULFyuTEcOHDApjrUM4vyTTAPvKyNNwget4oN1vA9rLaA4sBny1D0GV9IaxhnE4yyg2iwh0CvjLFwC6P+Eo5kB5gJlJHxVMjEaIbG06h5ImgijrGZ48hNHcXD7/oeTB94kMeSaHsSzMIYGqQl660gLnW9eJ7J/AZR8RWyptf7LZwmPLzkaeF5XwvP+lv4RqCB5xhe8DRwKdzHLX8fSzQRIwSN40eO4wOPvAcPzB7EQ0fvw3e+52k8cvIB5FIZnDx+EnMHD2BhcwvrzNuzW+t4tZDHqfImXqxu4YVGFd8kOD5bK+H5agFXCavXWjWserqYOHwYtUIdiWACI6xMImRFr12/iqs0ldXsl/T60SEg+8lwVB53m9zzZs7U1CQ/DKzJ85FHHjWT5srlq6xRW3jiiSd4zmvgoVpZ1z322COmkLF4BBcvvoEaqe1DJ0/g3Q8+jKb6WhA0ErksImQ5Dz75BJ5873txeN8BHBiZxOVTr6JfrqFTqqBHBRab+ZEf+jGUWDO/fPYMDp44jqe/8wN4idT4pVMvIxKOmPPVTzr8yMOP0sS5zyhziICn+TfO8B71b5EzVXOixAlsJ+8/iZkZtbYMGcetW7cs3QIUzfReLNK82lizd5AECDISgZI6wQnAZJ+IiQiANN2C4pE5qKkK2wQEAYMYzMrSMm5cv2X3d5lPA5VvAon5RuSAJTV/+NFH8cBDD9tER5t5mh5MmNbr0RrDRE6cZDxZmhNhng9HYzStmHCaTOR9BBHW1Mwnf4SAGA+g5+/SZGrSPmmhXdows6rgTaARiCDP77O6vsHvWMTywhJOHD+BXDKDi6+fo8Gkrv8BMglglXHfIiheIvbdYsZskVVtMo/XmK5V5uUy2dYSGeSi2AtNr1WmZ42/L66tosP3euPKNZw9cx6VrTKuX7yCC6+9jsVbN3HjymWay1/G6soSFm7dwPPPfRPffPFFrOQ3UCK7KjK/y6x0ymQYRYJpgSZegd+1wnRUVRaY19/9xHtQOHMNHvUHyKVsmskr5S2b02YmmMJ4KIHXXzmNftSPE+96bNdNKH3PMxM5FQ+yJlENl81m7bdQX/R8jmaFfCQKG2QNUiZrMeF2ZmaGBXiLdnUAS6ytB5EwAmQiA7IOra07kRvFJz/2ffjrH/1+fPjEu/DuycP4sSc+iA/N3IdP3v8UPjhxBH/1wffigeP3Y2x2Bp/45Cex7+AhLK2to0GFVR8XsZxapWqsJBmLI0ZwEXvKs4CChXzAWlXmSpWMIkjFE1tSU3Yw5Od1mh90wGNRA0i9j95RDlmBg9VsjEMjibXaIK0kRFnINXixTlayRqVYpe2fTlFZaRZNTowZU6lXKxgdyaLTahoAy+SR/huLIgAlUkmyCQIKn/vQQw8hRztfDGrv7B48/fTTdp2GCwSjEeSYxrgnYBNWD6pNYkTHmJjMy2Q2Zf0+1P/FI0ZIpUvJcFpZR3QtjyMeMi0yLF+kh88+/wX0ogM0yWK+8uJz4NfACk3L2Q8+jd7+aazIH+ENIZkaR7kygC82jkI8i+VYGmvRDJZCadwKxnEjnMR1AtpV5vMbfIfzBJc3+m1c5Puv0Bz5uV/6Rfz8v/u3+MrnPo8//LVfw5d/97fxjc//Ab7xzGfxxc9+GhdOn8Kzf/wlfPUrX8Hzp17C+RvXsUlgXifKrpO1bpBtbdB8WY7EsRxN0fTJoBQJoSKfTSKOCk2YSqGEJMFxhGnZkx1DuDPAe048hDBNq1UCWWOrgCrz00B/l8k9DyYSUXQtQ2FLQZC+qwZnRW4+A9XC8ouoZm/RrpUyZ0fSprgCnzxNgtcunsdv/eFn8JWXXsDi1ib6NAvUWxW0qeO+MKay44hrFGs0jRwLia/WQcYbwWQyZ/HM0dQ58eAD2Htgvw3ucyisyIPAS5mcYmGTn0KKJmCoEGg04E+i6/UOERbMJGt4p2ekWmdkmsmUaTQJBFSKBgFBDESd0yR6N+d52k/y3vvuu8+AQCZTtVo1M0rn2mRrEpmGN2/exPLiPALMMyvYat1gzas0yb7fs2ePzeQ+x+3J+45j/9xeHKG5c1hUnuCneXBnJkaRIj4kyKoijD/E/PWrVUgTI8mhy28ioFIvYW+DjKzeR7JBNtkLY08wiwfS46hevoBgeRWFi+fQZnr2E4RymThqgwbWOkU8+r0fQCtFJtAoo0+WtW9sBm0tOtbqoRYIo+SPoRxIosRQCSRQCXJLM6NKha7y27WDNHvJnPp+BhUKa1InG9T70jTp9RvMSyaKppKH4E7Ms2+hVQ20IqKmYtDi6/VgiPEFUfZpG0ad8dcVNyuhCL/r5OSUOcK1aFcqkbZezc1CGdGuB0vnL+PKK2dw7fxFA9yoGKuo5y6TXQEmUuj+oGM1uJRGQbRf4CH/g5RFICPlVEuIFFq0X0rabLRx4+Y8fv+Lz+Crr5zCazeu2vbTf/Q5/M//8P+Nf/wv/gV+41Of4vkv4BKpciPiN2obnZjA+L691st1ZHwCs3v3sbaOmUmlWd7kdFXP00gobIVz6BhNmHlVpWmlYJP39IeDBgV2UnoBnByoKmyaekCi9OudxHQERPqt8wKRsdwI4mQJYiRiJh/6ru/C3/97fw8/89M/jQ+8731471PvwY/+yA/jIYLd1MQ4Yiz8W6Luha2hr4Zp6HRbZhYpjzQJt4/bZDpBBhTEgb1zePj+B5Dku6lr+QyVRnkr86xFBqR1gtNUem0zvDfBEKTSe0n9bdwRaG71Gdo0VqpU0o0eegs0dW7WEbxewKFCFR9LpvEQmdLDzIPvPXgQ75qZxN5cEpkRgs6JWYRzfpqMffg7dczGIgSkFpW0h2BPTeZBdAbyOcVlWMHfZ+iGEOgwtHwIdMmcuuRLGnPAPOqxomkTROqeFkMbLX8HbZpfXX8PXR/z1cd3Y54MiM/MYX4jPoPfUjCjUcLdvsYt0cDt87vSAGvShFGnw0wwgtLqBho0idbJeK9duYo3Xn4N5etLuPTcy7h5/hIunTnDvF83FupUALtJdgWYyJxRy4f6m8zPzxtoqPa+fv26Kar2JU4NLzNndXWZ9L2MLAtynJRVXbWjY1TMqXFbNEnTGmrpiHPqeFTM4+zqIpZZ+NbCwLOLV/DpF76Gf//7v42f+rs/g3/6L/85fv23fhPPfOmLeJ529uIi467UrCVFQOKYVjJPNCTe1vJhwVZXb6VNQeAgJiUgEeiw/Bqr0PEuKbomYdJ1UmRV9yqMCnongYzARmaQWMlTTz1l/iKtBSN28bGPfQyPPPiQLa2g+5eXl20NGTWhDhddJ6sL+mzsEdXNGEqRjO2l51/AH332s9bHpkfTTWOY5DzOaNFz5VGFdJ0shLEgJKcr30ugpHWBNB9vkLX0QONoNGVjP4BQ149+qY3ijVWsvnYV88+fQeXFVxG+fAU4exHNV85i89mXcOuZr+PW157F2c9/CVdfeB4Jvv9kLIxUj6BHk3SS+TTi8yOkvOhT4an0tlynJntmCFPZgx0vQlpEnUCiZT4CZImauoDQDeYimmQnDS+ZCd+bWGcz7okr2GhixivAVt522mpJGw6wtKGVmqybcWnwpKZ/jXkDyJD1TNHk0mjhYDKCfKeK5cIaNtbXUFla0XgKjNO0lANblY0+rqbI2G2yK8BECvjkk0/i9ddfx4ULF+yj6eMLXF6i6ZJnbSCAUaFYWloypZO/QBS8QSpa3ixinbbsWq2OBda2SzQnujQ55EchfxguojSoY3MsgtbhaZRms1iMAa9tLeMbr57Cb//Op/BP/tk/xc/8zM/gH//jf4Kvfe1r9qyx3ChaVHI9R0AiJiBmMj45ZoPtBADqB2LNvH0N0mPdymvEnLTVPCdDIBl2hddWhVwAqfgFMIXCpnV8G8mmzT+i1pvFhVtYX1sZtuYw/oT1L5FD1m8zgSXiUatNy5Ui41PztMh9H00Cg8evUcsRy5/nv/kcvvHHf4z15VU8cv/9+DBZz+OPPozJ8TEzmTT4scSXK7EYlYJebJKVbDHva1JwsjIvzQJ1xuu1qH0dgmWPwKr5AsgGZQK0VvOoXLyG4qtvYOvVC1j86os4++t/hOu/+Xks/cYX8dr/+qu48Kufhv/KPGKbBaT5/l6C3AzzMMn8ilDZ/WRIvu0Q4DEBjAZvqgt8hMxIUyr6uwQCMROCicCySyDpeMmsCHqqRFqkIRq/Y8u18j6NZ7JhCUy7AFRTIaihPMikR3h/mBWNgthRuN7E/sQIxrxBtFiGulEC6kwWowfnkJ0Yw4GZOWsxeuyJx5FkZaXZ/3YjK5HsCjCRMhw/foy16aaNy5F5IxEz+WMqg2pi1d6q6c+ePWuAc/nyZSpEk4WRisSay0tl71LRtqigW80G6qxlWLbgp5mySQYzv5XH1fwa5ssFKk8PJRbcdVL0Sq1hg+RKNJs0n4me0yZwlViwbs3fMtNLzxWYyRzTejLTs7Nm3pQqVCgqn2pAAUWHFFki4BGTkY9F5wU6ul/+Ev1WaBJABDBqeZHIcasgc2mFTEJDDDQmyelromPaqiCfPKkWo5lhTU3FIZO3uOqNql0fobKq74t8IzLXzr/+GhlGm2bSGM22oJlK6xtrBra1TBqV8UmU0llshmIohglUiRTaoSgqVGRvgIDC2n4gwOwSrPot5jcVtNcQL0OIwKZRtY1oCKt8Rp550GatXSjXWAlsocU46jRhN5tltAMEhZAHceZPoNVBhPH60cHA26YpovnX5EtiHvJ6j5y/BDo5mnvKW7GM7SBAHrIPskOCGzGQQCPGQQbFGBk7or7husx+6wxHdsM8ChCEtECYn/EHeZMmeNJ0k0dGpxEo11Hd3EI37MXI0Tkce88j2HfsIB64/wQO7t+PZDYDD83GCMuAn8xvN8LJruhOL1Erx9rauo3RUa2qgiIFVZOwHI5SQCm1LGE1rYrF1FgAKsUKNknXG6K9VCANw9eHHjRIbRsdlNdLWFsliCwsUkEXsEFm02QhD1abCIoCUyG1NorGtsgJbIuKs7DGonFSfRoArOGCZEIHDu7Hgw89wILPGpxU/YVXXsKZs6/zfMfWA1YTtlqi3vvU09s+k+GYo6tXrxoQqMeuhgIIVExBpKACAr6PxuyoVpia1Mp042QgGgO0hddePY0oWYbue+XUKbzxxgVrSfrQh74bAaZjYWGeVHwDPdbQNb43yEqy46NIxZMAwZS6azX6jRtXsWf/XpRLRZx64UUU85vmTNw/PYUjh48jwuf69+1FeG4Wub37MMeQiiTQLlcQpvnD6h3BCFPq69o4nO6gRkVvYWPQQPjJx5B66j1IvusxFAhWI9xOPf0utGcymH3PQxh9cD/CUyl4o0EU+J7tQAhV5ucy371K0CkHmFSfWsYEKnIkq7WJ34PKzq+jHoPwBGgGkeWpJ66fJonm0dV0DJqFLhqMI+SLIOolcyST0oqHES2kTtNUDDZIMAzwPs2Kpx7GRB9zfmsqyRjD8fEcntyzH56bq9Yknj2+B/7JDBIzE2QhIZp4HmyR+a6Wi7i2OG8dIjN7Z3DsiUcRkc9qF8muARPZ6vKdqNuzVrwXbVc38lq9Rtu+TMrt4bbIWp814OqKdUcPyxPPD15p0qxhORmI0ch5yAIFAomH9LhBltIg46iTCVQ386gSmBpkISo4JC4225Z1TWNBk2nFm22iI02WpLSoe79YyPT0NB5+/DHrlr7OOJ5//nlcI4vq1Bvmt9A8GbmRUTz99HvJSjIGAFL2S5cum39HICJ2LFAcMD6jE3yeZnvTlAFaiF0iP4nMIHVIU4uNmXO8UYCofd3/iU98gmkf4PqNGwTJBZtyUDW1l4A8OjomTLHVAeORKAFqgu/kxSe+/7/h+3TxHE04Lyn+lQtvYN/EBD769NPYMzuFfQcP4vChgzh++Agm9+xFlqZDY2MDbQL1gEAVIhiEIuQRPY1cVt+aPvJU+EUq6yiZUpxMaZEmTHZ2GrGJLNZrWzj+8Ek8/NQj5g+LE5wvXbrK+z1oCrT5PVtkMS0qtpdgFeYzImQ+EZp5ITIcrcET4PlRMp8kwTV1OwSRpomZIVCof8yYL2xzzeaYn1nmU5bfUn2Dk8wTTS2Q4XMS/BYJmjRRxhcloEXbDaR4bJTv8eBoDlO8f+m1sxhJx5HdO4H5dYJ/hQy1qsXhN7Fw6ybWipsoVAqIpGKYvf8Yjj/+qPnSdpPsGjCRqKXm3e95Eh//+Mfwoe/5bhw6fMBaJBLJGM9FkEqztiTAKKh2sVaVZsUchh4qoFFP2dVUxB6VVPOWyU3aJi3v9WSCsOCywNmIXQZ5+VsscLYolu41QOFWim6xDWdq04xvmlx6D2vvyelJnD93Fl/72lexSEWmTtls+mIw6vV68MABzO2ZRYnsReHF51+gqVRAg6AoxmNTMAqz9EymVT/0dHVG0yA9pU3r7DjrwAhYBLRr6+s2oG+ZLOep977X3u/Fl17CGgFSEyvRVrSFzJo025o1Apc4D+NSBzsNJExn0zh5/AT2z+zBa6dP48rFSxhjLeu/fhXNq5dRuHIZlctX0FtcQmhlDU0yuAYBu1ktI8hvoDzWyOg231OgpP0BGUCTwF2vVOGr1jCdiCFA0O7yfadTSQT5rrloCmGaH/V8FWWalXm+F5EScb53jEwyQOXO8F3GGd8oAXxUW/3md5qgeZLj++eo+FmGEYYMr0kSeFI0u3I07WYaTUzxmZMdbglE04xzmt98muVjlvk6wQphP7/zQX7DIzQBjzA/jkYjOB6N4RDN4rRMVb5rRC1zBBmNKO7IDze/hI0bN5FfWkaFrKTJcwGCaT/kx8n3P439x49v+6p2j+yK+Uy+lai2VfOqTB35HaRcMh3U4qN9mT1qIpafQ74NXauu6lJEZYtqdCnj24nOmxrfBo4doix1spVx+FgDaazN933f91kX+VM0OT796U9b86HW1BWzkBw6fBg/8iM/QjD8uNn2r7zyCn75l3/Z0qt30DMdB6zSJoaitowoC7reVZMma1Ik1eQCEL2T/C4aNChWojg1j8tP/dRPmZP3tTNn8Huf+X2ChSbN9iKcTmJyahZZa8bOWH+XN85fwCbNx7/2Iz+MH2T6u9UGPvPpT+Fzf/AZ3Ef7//0awEimoIXifdxq6Y2IQJQmTo35maaZFWFaImQDmk5y6LeQw7mDBlnbAu8j0iI2Qk4QT6BFxtAlg6ANAD+VN8at1iZqb9FUuH4NdTKsAMHER9DQ5ElFKrbmlnWKsfLFAoFdW+WLCYHFOSchcTITLtDuwsd7neN3bmUqyw+loGcoPqdsMErzoahTHj+FNSOrV2+fICy2qkmg9C5VRtWLRREeG8PJD74fH/7RH8UYTcPdJrsaTN5OpIh65Z1bKaiUVb6J1157DT/3cz93u1lZQeJkk7bOvmahl4Nxpzjnd14nwBgdH7cV+NWJTk5iPadCZRcT4oXWVKi+KFqh/4d+6IfMWfvss8/it37rt6wZV8CnAmzKoXhV2LkVmMim17k2lexOkc0vf5KUWAAjc+mRRx6xZmLVjC+eIjvZWCfrIUCx4Kezo7ZEiOZxFeAsLSxi7545fPL7vw9RKvrLz7+IS+fP4da1q5igIn53YgRTLZpzaqplatRyokWx1PIRZjI1RWZIDkz5LsT1mNcatCjp8J48WVmL7ESrCmoJDnUw6/gCtsaPFF5NqZq0O0zl9Mk3RFM02NEqfj00yAYqGnnNuG9/EwYDAiq0xPkOzhzAjui7aqKj3vbSpre/1fb1zu+d3195P0z/EKA0h27f+qVsn+e7q4LJTE8hkRu35WJTE+OYe/BBzBw9jH1Hj2IPzUE52HejvOPA5M8SFRQ17f7Gb/wGXnjhBVNiFSAVaqcQOSK/g+ZK7bMwOTWZxMlSbQ2sqMgauyEgkSmmVpY8GYKPymkrDPIa9T9Rc/BBFrbv+Z7vMSes/CovvviiMSWnhpSZIzEfDSn58Klvsiczf3Z8UhXvtxOBjFiLQFSMRkqgnq8Rgkgqk7ZZ6uLJhIHJoQMH8eRjj2KVrO70S6fQo1JrFrTGxgoeA4EHmrEsQEYSHCo9zcGYJ4BMNI4BzYohmAjwpKTDfhsS1eQ2tSXf35pomYc9AQuBpEmQ1bIg1m+FQBBkCjW9gZ+A6WGcAiq1JmnsTX2bNVh+642d/e1PYpXC9nHnO2m/xXtL/KlBncpCXbVzq9nayElsa4uZMe3OeR2n9YWWt21rVasyCIX4/e67Hz/8t34SM/v2WY/YBL/jzN691kq228UFk7cRFXYpvJqQZQ6p2fRLX/qSmSc6rvMqlFYjqUfkdqGVWCFm4dXWyVpnXwxBTjcBU58AE+Tvdn3YjC3RwC+xAU1BoNpLU01K2WWKKc7bYMJni1X0um0b6awerBIBiY4L/PjE28eUVksT/zQnSV1LclDML8I/TXfpI7jojhjNm7HJCcTiSbtHz5+ZmsZ7nnwCYYLNuVdfx8VzZ7GxvmqmRpAmi/qy2L0MmoqK+mbbOBVOIKOpI9XHRVtyAYtXviSZaWGCjETq2WE+al0fQaS4i7xYAjS1XvGlYJN5810HAmeBAk2oZeZHQx7jbbG83t5KNKO/Y6Y430zb4W+NnNb1PMiPqJ6vWrRMW+e3tkqzc1xQqQFN+h1IhJGbncLBo4dscOae2b14/PF34Qi/n76z0qBnvVPEBZM/RVToTQmZRWIHly5dsn4q8jt8+ctftn0/7X6rYVWIGZx7nPtkXqiJUftOIW42NBZEvU6Dt5mJRE2FulaAomsFXKqZ5e+R6JgDJjqujmd2nMVdgKC4O6y1HdGsc05hdo6HgqzfmRYBjv3m83RNg6aK4CYcS9oM+j6+l6ZdEJPSZFL3n7zPnNTnXz+Dl0+9iI211WFrRMhL06lqLVIBpsHPGrzLuCTq46kZ8oNqhuVzVHvLEWsrBgrwlCaaVwIeaqkFdVvv8T3ke5Cp4uSl2In6fPio0PqtuPsBL4GEZgrjFYgq3AYOOTQoaiVTXlne8FvoncTylAc2Q724FIHBySdHnN+6TkGiY85xxfmhD38IP/W3/kfsnZu7XVHo+90Z1ztFXDD5zxT5VH7+538en/v8M1ZIpfAyiVTQJU626rhYho6L0ajAq3lWLTManetcrwKoAio6rKBrh83Bw4XPtbWCvX29rVTH5zqieCWOCSHRc/Us3es8R+LEpSKvuU4Uv1y5Sk+UYJJRc+fMHnPkapyRHLhiIlsbG5a2aqWE+ZvXUS6X4CFzUH8XMYeh/4eRbvc2VfwBgoKe5yi7WogEWkpPv6cRz0yvbtN9vEE4IhDxqoldh3ivuvfruJr31d9D003yAfLnIhlKITAI2vpCUmTloeUFwUT36pjSLHCRo12VgphhW+kl2IqjafXCnbJTJSzN278Vn4LSPpLN4p/9v/4BfuQHf+B23r/TxQWTv4SodpWyCjA049unP/17OHf+vIELy5wVvA5rbBW2EhWv0WgOj/G85hI17aHKaFYzTTJsis/aUr4TgYLiVxjGtw0I259LtbwBErVsJ1BIdK1kpxLoOjl11cLjiDrVeQY0N6TcpAVqBtbSGWE+/4kn342n3/c+U0KZeadeeoFMadWU9eb1qyjm1xHLZlDTSGQ5OzVjW0u9TxmxAt9Z/Tw1f8tbRGlTsLRpVT+aNFovZMcreLYZld5LoKI1fJXKvprnadIEo+Eh82j1kAskEdR6ydvMRxNpCxQtX/gYrYio6RTEGtRDeXMjj0KpOMwzml4tgpB6+Gv+WyVCW/l1+FL229bc4W9tbS1kpke9g5946GH8wr/857jv+DEl2RWKCyZ3SaT8MkvUjCtQeFPUWa6CK1evoswa8e2yW8cUXjp1Cs8//8Lt34pzZ1zO8e0fw+1fQqQ+VDnb1zgagUKHoBAiZT94+AgOHTmC+x98wNJRKG7i2rWrNu2jWIq682vsis1hQhaihduVJqqi/RG+LN43RU/jJdvHh09VH9WhueVcfed9fk/QfBVatkJvPFwjh3crOponcV+M1wxZj4chKDBhMLbA96H+G7MxhsF7tMBao9W0CqAhX49aghiVwELsxwENZ6uFznRcqx4o1UPc7uOnf/In8Q/+3v/NgN+Vobhg8n+AKItlStzJIHaKrjl37hz+4T/8R3j+hRcMRKTECs4n0vb253K2fwFxGMtOkS9Cym/qzPMD+Q+ojOOTU9Zr9/iJE6aEGhSo4QTqp6PZ3uT01ehZf7sHLxXO0mbx6P87n/MmQDjnhjmha6mg/NMVAhL9SXTVMFVDuNO+8Or2cqC6jGn19ggC5ECOn0RbA5ZtBiRGot8GJgQX5ae+hYL6u+g6WTm2fZug91KcChJ9w1Gafb/56/8Jjz7ysB1zZSgumHwbiQrqK6dP4xd+4Rfwta9/zRjNsNAPfSN/4lNRmYbnhg5gO/Qttm8n8l7YHCZ8hqktFc7rDZjTMhKLmyN4koAiRWp2GtjczFvnN7ESsQpqm63y5+UjlHZ7lIOXQgOet4NM5zaGUIZKORRefEfyHGZyx1VvXiYgsbgZ7Hkyp/RTnGj4EIGACcHDgIUgcxtgKEqrzEdtvTRhlP6dALIzGEht7ysv5X/52//T38bf+5//H2ZaufKmuGDybSYq4HISKmj+V82R8oUvfME61A0VVhR8WLglbQ3vpzifUdud+1IaZ3/nOe7wPyoTlayvYbNiJAGaB96gKVAgFB46g2nySBE1FUKlNlybR/1bpMGmz9tmmEYgW8zb0ZvYBcNdk7f8Jlxof/v38G3eFDESpW/IWfSOMkeG77pTtOzqznt3Pk7SJ/NiZjG9b4KCRPmgNaP9PO3jNc65nddo64CJRCznw9/7UfyTf/GzmJyasmOuvCkumHwbiz6NWh7U30Rg8o1nn8Wzzz1rc7KIrhsrGfjfAhJ3bneCicDIAaRhkAklBR0qqzlS1ehKBQqHo9bcqevki9BUmM1mAy11GpMjQgxBLTZNTa5kBcmcpG8RKqGTDhNFf8dPGSk7WchQ3gQRB1QsfZShWg9FUVmD9s6Dd4q9E8W5ZhsYTBitFie3RdApdwKJxDFv5Bv5wAe/k4zk7+PBhx6yY668VVwwuYdE4CHGIvNHfV1+91OfxiuvvApNvaDOdY45tFOcz/tWEBkG+SA6ZBwGDlRWa3YW9lCBQpHY7SZtKZSG9GuApEBMdsFAgwM1XwkfOVQ3HrPtEAqolravozq+Q4VNhvcMjwswBBe68804hkLjxLbD67QlU9je13PUXU6tMbcfMnyV2yJMuA022ipi5zqK9THhvowldY/XVs3P4UDY5nVJJ9MYnRjDB973fnz/D/3A7eVHXPmT4oLJPSxiHQuaZ4VM5dTLr6Beq5uiOIoskSqXiiVcv3HTWjDk2L12XX1EKtDsbh31N6U2CUesv4g0k8qipU13Ko2aQzXk34oLWYlmdEO7x115LIZtNA4AyBxxanbnekd5HXFSaIedH9ru3HfEuZdbLxFQT9Tzhpe/GbF8PfqlZ5t5su0nUZCppjWYwzLfCJIy4aLxOMIEzWgsinQqsz26PIVMJoXR3BhmZ2dsAnKtFKCtddJz5VuKCybvABGIqNlaw/7VZ+Ts+fO4eOENbBYKJBdiM1R2dTSTqBo3INCkPls4/drrNuxfwGMtSwQGKWeXwNJvEXxUsw/vNBnGwvgsDopTvAQoEuenszt81FDu3JdsX29bBs82zRCYaLKioIDPP1wmRL11E8mkzWancUca/Sx2JRCQM1md70ZGR21fJpyGL2iroBHSutb8RAzqT+MAoit/PnHB5B0oMocEMGI2f5poXM7nPv8F/OZv/iZef/2M9SCVZ2Sn9NVZ7U+Iw1H+bBGDuG2GUJzYdEhNtjJDBAYCC/ktBBKa90UjrDUzXY5bAYHN6p9O2wBJ/VYQuDg9YrV1grEWAoUTXLk74oKJK3+qCHDUEU9z5iqcOXPG5tQdNhE3zWx6s9/GcC5bx9GrIJHympkRCLxFkR1Fd7rBixmIJQgYZFZopn3NnqdjYhMO+xBgiD0IZJw4XfmvLy6YuPLnFgcgBBgCEQc8FAQsjk9GxxV0TMXLMR8ECgIPAYkAQECwMzgAoa2u2wk8rnz7iwsmrrjiyl0Rlx+64oord0VcMHHFFVfuirhg4oorrtwVccHEFVdcuSvigokrrrhyV8QFE1dcceWuiAsmrrjiyl0RF0xcccWVuyIumLjiiit3RVwwccUVV+6KuGDiiiuu3BVxwcQVV1y5K+KCiSuuuHJXxAUTV1xx5a6ICyauuOLKXREXTFxxxZW7Ii6YuOKKK3dFXDBxxRVX7oq4YOKKK67cFXHBxBVXXLkr4oKJK664clfEBRNXXHHlrogLJq644spdEOD/D0ixaPXLuE5uAAAAAElFTkSuQmCC;" vertex="1" parent="bsMbISX9EA4oYNUM3-fa-42">
          <mxGeometry x="13" y="14.800000000000011" width="127.06" height="86.4" as="geometry" />
        </mxCell>
        <mxCell id="bsMbISX9EA4oYNUM3-fa-5" value="" style="group" vertex="1" connectable="0" parent="bsMbISX9EA4oYNUM3-fa-42">
          <mxGeometry x="163" y="26" width="136" height="70" as="geometry" />
        </mxCell>
        <mxCell id="bsMbISX9EA4oYNUM3-fa-3" value="" style="shape=image;verticalLabelPosition=bottom;labelBackgroundColor=default;verticalAlign=top;aspect=fixed;imageAspect=0;image=data:image/png,iVBORw0KGgoAAAANSUhEUgAAAJsAAABoCAYAAADmZ4I7AAAgAElEQVR4nO29d5gkV3m3fVeuzrknh81ZYZUTkkACZASyyTljI2yDbb02xh/YsmxsGb/G2EIE2wJebGwTDEYEIQGKKGyQtNLGmZ3ZydM556ququ+PHi3a1Wq1q50NgrmvS5eune6uOlX96+c85wmnBMdxHJZY4hQgnu4BLPHrw5LYljhlLIltiVPGktiWOGUsiW2JU8aS2JY4ZSyJbYlTxpLYljhlLIltiVPGktiWOGUsiW2JU8aS2JY4ZSyJbYlTxpLYljhlLIltiVPGktiWOGUsiW2JU4Z8ugewxLHRaDTZNXKAXaPTuHSFi85ew7Kh/tM9rONCWCoLP3MxTZNMrsAPf/ow37jzAVqOSigSRfcEKSXH+cG/3YzH7TrdwzxmlsR2BmJZFt/78b187bv3YXv6aNfzGI0qpewcHl+A/lWbSSem8FLlu1/5DLL80piglsR2BnHvQ4/yvz/bznQRBNmFoihUCykSEzsxG1W8wRiqJ4goCGhuP0gy73vNubz1hlee7qEfEy+Nn8SvKLZtsXvvGPc88jTb9s5SNRRc3gCqC6BjAwRRwqiVEWUZ2wEBUDQ39XKO7uUbue0/72PD6mE2rVt9Oi/lmFiybKeB6bkEW3eM8OMHHmeuBP5wHBGHI30VgiiSmd5Hbm4MRffg8gYQRQlXIEog0osoyVA6wJc//TH8ft9puJpjZ0lsp4hKtcbo2ARf+c5P2TNbJ9zVjyyJOLb9gp8VRBHHcWjVygiA7g1i2zbPWL9Wq8UFwxKf/NgHTu5FnCBL0+hJJplM8bk7vsPWkTTB7uXIYphYdxjgmIT27Pdp7o7lsm0LAFFSsB2H9PijfONnT3DR+mGuvfYVJ+EqFocly3YSyOTyfOv7d/PgU7MYkh9RVpEl6YjT5PEiygpWu016chdmej9hXcKlaciyQrlS5Lvf/yaapi3CVSw+S2JbJGr1Gvc+tJ17t40wnqgiqF50lxtnwQqdCKIkYVk2lewstcQISqtEwKWiuzwL02mHdruN26fy5S/fzvbtj/PQg48wtn+cZrOFIIj4fB7O3XwWb3zT64lGoyc8ruNlSWyLwOx8ijd95GYiQ+fg8XgWRWCCIOLg0KyVKM+PYmanCOkifn8Q2+HIiwlBoNlsUm9WcGledN3FM37dM6+32xaO0+a2L/wDvb29JzzO42EpN3oC5PIFzHabYqmEJbiwWyU4kd+uICAIAg6Qmxtj4qH/prXrLnqlGgOxMB5vAMs+8qoVOgLUNA2jZSII8GyhPfO6JIlIksp73vkh8vn8ix/ri2BJbMeJ1W4zNXkAgFe94yZu/9d/R5YVJFUHx8Fo1o//oIKAoumUc2lGH/om2Ue+QbwxxYqeGMFwDMuyjsvf6+3pJ51JLQgORFFEeOYfndMRCcf4x8/edvxjPQGWptFj5KGHH2XVyuVse/xp/vIL/8O3//mP+eAnv4TRauBxSjjhtdRLWdz+CP5IH4J49N+xIAiIsko5lyQzvh2PVSXo1lEUBVE88cWEZZmksxk0VSWZTKIoCt1d3fj9wYPHNgyD93/wnbz2da85oXMdK0tiOwq5XJ7v/eBu3veuN/Pqt3+MgZ4oV1+6mX/5zoPIRh7cMWzbplLM4LQNuoY30GrUcPvCeMPdR/TdBEGg1ayTmdxFPTlKl8+F3+tDlORFWa0++zy5XJZAyM0HPvh+REHkRz+6iz27R4lGYgfP5Tg2t/79LSxfvmzRzv18LE2jR+ChR7Zz74OPsG//AT77jXu588d34wtGGZkt8pl/+ld8wRhtJUhqah+qy4vbG6KcnadWziJKEs16mXo5d8Rjty2L2Ye+gVIZx+9RqDSqiy406PhnkUiUZsPk5S+/mle9+pX8823/yOBg32HvFPnKHV9f1HM/H0tiA2zbplwu88GP3EStVuPzX/0Wf/qZr5LNFwgEA3z6S//L1NQkLrcPb7SfmZFt6G4/wfggyQM7UVSNeqVAu9UCx8ZuG1hGE4Tn3l5Vc2MKAoKo4PP7WbPhbASEI4zqxWOYBs1mA8dxcOlePnLjR8nl8nztq18nnysfImxBgKmJ6UU9//Pxay+2r/3Ht/jDT/wVc4kUv9ib5u2/8yf4glF0T4A/+5sv4XF70DQNs1XDbDXQ3D5U3YNpNjBbdeZGH6daSOMLdVEtpkhP7UPz+KkUUxTTU3CYkCyzyfDlb4eWgWoJ1LN5bOfYMgnHSrNRZ2JyP47jIIoihVyJN/zmW7nrR/c+J+ArCAKlcmFRz/98/FqKrVwu8ao3fICHH32MvQdmeeDpOf77Oz8kHO8j11R55JGHOparq4/ZfdsIxPrxR/vJzu5Hc3mRNZ3RLT9BUXVC3cto1orUqwUCsQEEUSI7M4rbG8JoVKiXs4esBAF03YPTtR6rbeCw+C5zMBjG448wOz+NIAioqo7t2LSM5iHvEwSBVqtJIHhqEvi/FmJrNhs4ts3P7nuIa97wIZKpDOmaw0f/8stMTc8RDEX5/gM7MMtpVN2NL9xHfn4cty9MuG8FsyPbcXsC6N4gU7sfRZIUHARy8+M4toUv3EswNoA3FCcYH6CST2K0aoiSTLvVwGg1DhGc49h0rdxMztKQxMWdQqHjFvT39OL3hRbO59DXO0Aulz5o7QRBIJVOkskm+OtP37LoYzgS0s0333zzKTnTKcZxbPbuGyEcDnL9W36Hp3bvRVVVHnp6hr179tC0VRTNxfj4fvzheMfvKuXwhWIIgki9nEVSVGRFpVHOI6s69XKOerWw4Je1Ccb6Udxe/NEeREmmWkzjCcaQVZ35saeID6yhVs4iAJrLB8+2cI6NFuplft8WAv7Aol+/IAi4NP2g5XQcB1XVyOez5At5Zmcn2Xz+2Xzpy7fT13f4ouHk8Ctn2aq1GplMhl07d3Pduz/OvQ8+iuSJ8PCeFN/87g8JhCKMz5fJzIziCcWJ9a0kObEbly+MP9rL+I4HcPlCBGIDZGf34w3GKOcSpCZ2IwgigtCJgYmyjCcUx7HaCAioupt2q45lGLjcQSI9y0lN7MITjGG06tRK2cNibwKay0tg06swm42Tci8On6J13YUgSVz7qqvZuXsHX/zi7cTj8ZNy7iPxKyO2LVu20Go1+fNbv8Cr33kTRtuip2+Av/zc16nWamiKQtHUaJSyuLxBgl1DpCZ2o+pu/JEeUhO7cPnCDK6/iPn9T6BoLir5JDN7tqC6vDiORS5xAM3lIRDrR5SUjiij/cyP7cAXjOML95CdHUFze3F5AzQbFeqVfCcc0ihTL2YPGbNj2/hC3ewvGfCshHqz2UA4wkr2RHEch1iki0cf3nJIAv9U8ZIW2+T0DF/8t6/RNg0++td38JnbvorpiOjeMB/+PzfjDYQRVC/FfBbdG0DTvVTySSy7jaTomK0aVttE8/gRRYlaMUOtlCM7N06jUkB1ealXizQqeTzBOEPrL0Z1efAG48QH11BITKD7ggTi/SQmduL2R/BF+8jO7ccdiCLLGuNP/BwA2zSwLPM5mQXHsdlw5ZuZzmQQF17bN7qbcrnwnIXF4uDg9QT5oz/8Pyfh2EfnJemzfeGOb+B16zy67Wm+9O0HWdnjZcueefaNzzI5Pkqwexhb1CgkJwnGB5EkmdmRbcSH1iPJKoXkJNH+VQiiTHJiJ9G+lWRmRygkJwjGBqiVMpitOmazRtfwehSXB3+4B0V3YzRrqC4voijTrBaRVR1N99Jq1pAkGdXloVWv0DZatOoVFN2LZTTxRXtoVHK0TQPd7T/kehzbQvJ3U5vfh8ftJhyMMjoxRigQRJIWv75VFEVmpufo6o6xYuWKRT/+8573lJ3pBJmbT/AnN/9fTNPk+z/bxi3/9HUOzCTwuN187ObPYxotNLcXUfVSys4jKxqyqlNITaF7/ET7VpOd24/m9qG5vIw9+XO8wSjF9DS5+XFUlxfNEyA1uRtZdREbXNsJeUR68Yd7KGVmUV1ePIEI2dkRXN4gnlCccmYORXPj9oXIz48jySq2ZTG6/R4EUaJVL+E4NoXEFJrHj902aVSLhy4WAF+4m4anD6PVQtU0uqJRLMvi8DjdYhGJRLn1b/+B2dnZk3L8I3HGia3ZbLFrzz6+9T/fA+CWz9zGv339v5maSXDfjjlu++IdyJ4w0+kK//7NO/GE4oS6hsjNjSOpOronQDEzg+rydJzzZg3btpE1nezMKJZpYLQaNCslTKOJP9JDNZ8in5hElhVig2sIxQfQdA8uX5hCagqXN4AnFKeYmsbti+ILdZOZHcXtD+PyBkhN7sITjBPsGmR23zZ0jx+3L0Rmai9uXwR/tJ9mrUjbaGG1TcxmDbN1aMzLsS36Nl7JTKmOKIh0d/Xhcrk5vExosXAcG5emc9PHP4VlnRr/7YyZRgv5LJ/78n/yd1+9m4dHy2zdPcuV5w7zzTvv5b7H92PWi+QaIk+NTJNPTROM9aNqLmb3bSU+vB5ZUclM7yM2uBZZkpna9QjdyzZSK2cZe/xelp91BZm5cZq1Apo7QKteplUrUSvl6FmxCd3txxfuRVJUaqUc3nAcWdFoNcro3hCiINKsFVE1N4ruxmw1Os0nbj/tdhvHtnDabZITu0AUEUWZobMup1krEe4ZRhAE5vY/SdeyDVTzScDB5QsdUv/mWG083SuY3/0gfn9w0e+xIsvUKyUmEwnq3n7CG15BVQxTmN/PReedvejnO5zTKrZiscB/f/9n/O3t/8n/++FW5msq/kgvAg6a28v//O+PqLYsHEFh5779ncI/WcFsVnFsG83jR9FcGLUKujdIo5ylkksRiA8xvfdRPIEottXGcWyq+SSSouD2R8knDqC6vMQG1iIIAoFoP4IgUM7NERtYjSTKlLJzBKK92LZNbmaUYPcQoihTys7gC/cCDqX0LJ5gFMsy2fPwnUQHVlPOzaNqHhzHIdq3EstoAaB7AsiKRmZmhGjfSkyjgWNZnfjbM9ZLEJAVFUsPodZTi+KvSZJEs1Elkc1RlkNow+cTW30Jga4hwEFzudk1Ms05K+PE4ye3VPy0TKPlap2bbrmdd/zx7dzxvYdJlZpIooBHE6kWEp1luePgH9hIOjGDrOr4AjGys2MLvlI3mZkRZFWjbTQ58PQDyIpGo1qmWsrQNhr4I33k5sapFlIoqoYnGKNZK6G5/HQvOwt/uBfN7UP3BmjWyrgDUbzBOMXkFLo3iOb2UUjNdLIC3YMd388XxOULk5rag9sfQXP7GHvi52huL95QlPTUHmRVJ9q/Ct3jQ5JVXP4wpew8tm3h9oURJYVSdg5BFGk1yjRrpUPujWPbhHqWMVFsYVvtF3V/JUmibbbIFwvMlFtUQuvoueQt9G26CpcvjCAK4DgIoojdbuOPD/Lxv/sqpmkuxtf7/OM61ZbNMAxe/9ufwvAuo5ieJTuzr9MPKcqU8hlUlwezWUPz+MG2cfvCpCZ344/2kpkZpVUvd/yhmRFs20KSFVr1KkajiiCKSLJMtZDGaNboXXUO9UoBtz+CJxhFkBSCsV4EQaRRzeOP9CCKItVCGt0bQJQV6qUsqsuLorloVYsIgoiqe2nUijjtNp5ABLPVoFktIogSxeQEkqxhGg16V56D2WwQ7lmGKEnk5sYI9SxDFCWKySmCXYOYrRrpyb2Eu4exLBNw0D2HZRAch+jwWaTHn8Tr+uXGMUcLhQiCgGNbNJpNkoUKNXc3wbUvIzK8Cd0TQBRFnIMJf4dqIUUll8CxW2A2wRVk71NbufryC09SyOU0WDbHcShmE9QKKUrZWWyrjaK6EUQRtz9Eq1rEahsHL9gdjOMNdlFKT6O63Miqi2J6Bpc/giiKZGc6QdRAtLcT9/IEiQ2uIdq/Cs3lJdK7AsNo4A114Y90k09O4fYH8fijzI5sR/eG8Ia7KaamcPlCeEJxcvNjKKoLd6CzWpU1F95AjGoxi4CAZRjs3/5TLLOJpKiAg9lsoLl8uP1haqUM7kAUlz9Cbr5jjWVNJzs/RqR3JX2rzmV67zY0t4/E2FO028+1KLbZQhm6kFI5jyAImKZBtVY9tDwIAUEA22ozn5xnsgrCypcz9LJ30LvmQlRVwzKNQ44rIJCZ2U8pM0viwNPMje0knZjE7fFz/84Mj21/6qR996fcsjVbBv98x7cJRnsW8o15JFVFc3esidlqEO5Z8ctfl2Pjj/aSnRujkJzE7Q9jmwaVfKIjKI8Pze1H9wbwhrpQXR403UvbaCAIErrHj4CAaTTRPAHaRpNWs4o31N3Je1YLeINxTKNJMTVFpGcF4FDKzhKKDwJ0HPvhdaQmd5Ob248v0kNzIZYmqxqxwfW0m1WC8SEkWVmYfrsQBZFqPonLG+yUHeWTKJqLaj7N0IZL0Nx+eleec+QbJQi4vEHypRK6XUcNBqnUq7SMJi6lk8BPpeaYrwuowxcSXXc5ge7lyIpy1Om3bTTJTO+jmk/g9oXxBKKd88wfwO3z84O7H+C1L78Qr9eDaZrcdddP+Pa3vst//9e3eeqpp2k2GwwPDx8MQB8Pp34aNU2+9p27EQUHlzdIbHAdkiQhigqq7iHcPYwoKYd+yAFfqIt6JUe4axjN60eURMI9y3Fsm1JqmkjfShzbolbIEOpZ1vl7ZhZvMIogSlTzSbyBKKKkdLIDuhtJVqiXckiygub247QtHMdCd/sxmzVajSreUBeze7fgCcYwW3Wa1VJnmnd76BpaR7NaIja4FlGSmB19ktjgakRBpJiaXFiFip3SJLcX27bpHt5AtZQhN7efWjFNo1rEF+5+nrvl4I0OsH/nY6iyTaNeBdsmV7doh1cSWH0ZsWWb0HTPMXfXC6JEJT+P0awjKwqy5ur8p6j4Ir04jsDux3/BvXffw1fu+A+e2P4UyUSaRr3F/FySbVuf5Pvf+yE9vV0MDg4c13d/WsT2b//1A8JdfRitBrKiEupehicQQXN5nxPsfAZZ0dA9AfKJCfzhLgAq2XlC3cMomptqIYk/2ovj2OQTBwh3D4MgUitl8Uf7EASBYroTMhGAYnqKUPcwAgLl7DzeUBxBFEmM7cAf68VqtZje/TA9q86hlE1QL2WxjBa6J0gg2kerXiXSt4J228Bs1vGFuzt9mUYTb7CLZrWA2awjKSrxwXUYjSqtWolSZo5o30oG1l1EtH8V2dlR/LGB522QEQQBX/dy0hP7EP39eIcuILbmogU3Qjru1kFRFPGGujFbnbIrSVKw2waSrNGql8gnxikk5qHdKTDoGIJOSZIoikiShCAIPPjAwwwO9TFwHII7bUFdB3Aci1ajQrNawLatw8qVRRwHWo0q4OAsTKeSJGMazY7TKyu0GjVkzYVttaktdDfp3iDVYhrdG1xwzidxByK4vMFOkNYXxBvsYn7sKdyBELKqMr3nMVy+MM1GhdT4TmRVwwFm925DkiQC0T5kRUNz+3EFIhjNKgD+SB/NegnbMjsVItkEjUoBly9MbHA9ZrPB9N4tiKLE6gtezaoLXok/2odjW1htk6GNl7Hzvm8+/31yHFSXh5VXvZO+DVfgCcZwrPYxW7IjHU9WNAbWXUj/mgs6sT4ESpkZkpO7qJdyyKrG0YLJjuOg6zpf+uJXKJXKx3zu05pBUDU3ZrOBYdQRJQlYWHE5kJzczfxTdxE2xjjw1AMIooRj26w87xrSU3vR3D7cvhDpqT1obh/eUBeNarGTn9TcVPJJBMATimG1TSyzY5Xq5SzVYhbdF2Jm71bqpQKSrFErZamXMqi6m2opS3ZuDF+oi2D3ELVSBn+kF1+0l1a9jMsbon/NBeSTE+geP6rmJjW5l0JqiuVnvwzN7SM1sZv5sScY3nQ5G694PfHhDdi29Vx/ShA466o3kxh7smOpjoTT8bWcEyof7zRA27ZFPnGA5MRO5kcfJ7H/CYrpKRy74z44jk3Tcg7pi3Ach0ajjuPYB31px3Fo1Fvc8pefPuYRnFaxOY6D5vZQzs6Tmx9HEEWm925FzmxjY7dAOTvLvrkWy8++6qBDarVNVpz7ChJjO3AHYoS6hhnd+hNcvgia7uHA0w/gC/eg6l5Gtt6Nyx2gWSuy95EfovuCtA2D2ZHtyIpKoGuAkW130W41kGSNerWAY9sEo/14w13Yto0nECUYH8I0WwSi/XhCcfKJAx0/y3YoJCfxRXrpW30exdQMs/u24Y/0sPlV72bFOVd3hH6E1eazbgKiJNE2DUrZWRY7PSWIEoIoUs7OkZ0ZYW5kO/P7nyA/N47RqqG6fciKdnBnJIFfZmMFQWBqeoKxA3sZXt5HLp9icurAQcGJosDk+Cx33fWTYxrLKd8ySykVWVctULFtLEHodAAtxJkalQLxobXMJcYpKmHWv/JGitl5UqOPIdEmsupSBEHE7Q8TiA1Qyc0jSjKNaoFKbg5Z0RbynAeQVR27bZKZ24/LF6Y9M8r8/ieRVRVZVpjb/ySyrNC78lxq5RySonSCuqlp3MEooiThDkQQEOkaWks+OYXa70V3+zBbDSqFNIH4AIXkFEazTmxgDZtf+a6DX9zxTHOO4zC04VJGtv4EX6j7hHPvgtjZ961RydOslWhUiwsxNQtRElFdnqN+vtXujL3dbvOh33kvb3/723C5XBiGwf3338+XPv81FLWziJMVmdtvu4OLL76IUCh01OOecrHVTZPBXIJznnqwU14tCLQliUlZJdG7kvLgWnpWnkdqchdeO0uv3KbsMknkf1lQ6Ng23cvPYv/2n+INxdDcfvLJKbyhOC5/hFajgiAIyJpO22hithr4Ql3oHj+Z6RG8oTieYJxCYoKeFWejewLk5jrxsGD3MGarTqRvFbZtMzu6jd6V53aqdHFwbAdZ0TshDX+Y4Y2XoXuDnQCt4xy0EMeL3TYZ2nAJI9t+wrpLX4d9NGt4JBasjdGo0KyWqJWz1Ms52q0GdttE1t2AfNQFhWPb2Lbd8acX/jYwMHiwI0sURYrFCpJ86HTvcXu4//4H+a3fuuGoQzzlYrO9Pv5DVtl57tUHfRDZtliVS3Lh/idY+8S91ENx9hYSZIIeHvUPE7rwOnr6RCrZWSRFxx2IIQgwfNYVPHnP1xEVlUjfCnJzYwAEov0HU0eBaB+55CS2ZeLyBPEEYii6B7cvRLR/FTjOwThdo5InGO0jn5ykkptHVd3EB9fRalQIxPrIzY0hiBIDay9gcMMlWGYLx3Gw2sbRLvnYEAQ0l4/44DrSk7uJ9q/hhadUAYSOUBuVAtViila9QqNaoG00UXUPkqx0tkI91lWrAG3bwbYdJEni8//0L/zwzh/j9/tJJdNkMvkjtgNmMpkXPPQpF1sg4KcrHKBeyePyhgCHtiixN9bHSNdApy7N5ScQ60OUJAKZeaZ33seawRjrlw9y22c/w6s+eGtnlaa5WHPxayilp3F7gzg9wxSSU7gDEUI9y6jkEqhuL/5QF+1GFd0bJNQzTHZ6H7GBNXgCMQqpKbpXnEWoexmJAztZvukKzGadrqH1mK0m2dkRqsU0q867lv41F2IaDXAc2oe1xS0GjmMT6VvJ0w98i/jQOmzr+a2kKIo0qgVK2Xkso0W5MI9Rry6kpiRU3bNwzOPzAZ9ZGNgOSAK4XC5SyRypZB5wjrjRoNk26IrHXvjYp2Ovj2vedCNj+3az8twrEeVDA7hto4ms6rj9ERTNQ2Hn9xFFSBQshs6+mmC8n0a1jKJ2fCNBlNj3yJ1E+lcgigrVYhpFdeHyhyjn5nEsi2DXMOXcHI1qkZ5lmyimp2nVK3Qv20QxM0WtmMMbigMCXcs2MLX7USq5BIMbLiHSu/JZ/tcpulWCwJY7v8DFr/vdQ1agsqxSr+SplTK0GlWqhRSNagHN5T2mnoVn9uY9mpWrFbOIssagD0KB8FGPJ0kStWqVfWO72bFjOy7X0R8AcsrENjk1xd0/voctj23ngcefYmjztaQO7GRg7QWH+jmCgNGo4vaF8UX7OnEfzQ0OZGf3EfOAS2ozVYS+Vecd/OXufeT79K7ajNGsUUxNEx1YjdU2SU3sIj64DklRyCcm8Ue6UTQ3qcndBLuGaFYK9Kw4h/T0XmqlDIFoP6Ge5ejeAALCCYYbXhyCKNKslqjkEwub1VQ7zn61SLWYoVkrIggSoiQivFBgVxBwcDDLZbSShCVZSH0L/aSH3XcBKGVmaTWbbF61DNcRrNgzK9FCscCBif2cfc5Z3HbbP9LT0/PC13UyxZbL5di6ZTs/vedeDhyYQhREVFWjXM5Tj66jXsxiWW2ifSsOMfeOA0ajjO4JEYwPkBh/ih5PC0WCRCpPXfDRu+o8FM2Dbbc7Wwhk5sjM7CM2uI5qPkk+OcHAugtpVAqUs/P0LN9ErZInPz9OuGc5bbOJ2xelkJpEcCDct5xw9woc7BcdMD0hFjYCbJTzNGqlzg/OH8FoVKmVsjRrRSyzhSDJyLJ6TD8CyzSwslXWeFdCw8fa3ov56YH/Rylco17IERtYA0LnfY1qgWatgtms4o8PsqE3hioJC0Pr/L9Wq5JIzuE4NpdcehFveeubuOKKK479EhdbbLVajbGxcX5w54/ZtvUJBER0XT8sOyCQLNeRe9aTGNtB1/A6ZPVQE9zp3JbRvUEcy2JudCvhgfVEepZTK6RoFKYwakW611+1EKuSmd79CIIk4wt1Uc7N0zaahHuWkZrcjcsXwXFsov2rKCQmySfGiPav7STCRQG7/eJqx06IBWtitU3q5TylzMzC9g6uBdF1OrskWUFW9KMKTOislelM9R1xVApJrtXexKUbLmb7+DZ6gxvZM/sYezw7yBWmUF1eGpUC7VYDzRPAE4hgNGqIksLquB+XotBum2RyGQrFHAMDfbzxTW/g7W9/64vaJHrRxNZut7n77rv54ufvQJY0dJd2VOdUEgSmmzJ6uI/xJ+9j7UXXLdR3HRwajUoely+ML9yLrChkZkaQ6vNcsPlsJvfvZcfecTZd896D04EAjGy9i54V59BuNzubvLi8nfSQYzO583zw0c0AABQ5SURBVGFC3cOsOOdqRElenFXki0SUZOrFHJm5fbg84YXOrQqNcp5ydg5JUVF09zFYWQEci0a9SlES8Tbq+EJdCGLH2r8+8HuYQoMbLryWH2y7m4HA+YwVtnN3498xa1V8oe5DgrrNWglBlOh3QyIxj2kZfOAD7+UjH7kRv9//AmN5gZEuhtjq9Tp/+LE/oZAvH1fhXavVIqt1Ickq2ZlR+tddcOjNFQSa1SLeQIxA1yBP//wbNIsp+jZeSfeKcxAEkak9W4gPrMLlDXQeTNGoMrN3C25/mK7hTex99E4UVWfF5pejqJ0GktO1/6EsqzRqZXJzowiCiObxd6awSp5yfh4BAUXVj3EZImA2a+RrVYT+LoLnX4NgmpR+9E3kdgtRlpE0jYuMV7Cy+wIS1ad552U3kkiLzOVG+Xn660yq4wfjx6IkY7TqlBITiEaVt7zljXz4wx+iv38AXdcX5/oX4yD/9LnbyWdLiNLhKyJhoWKgs9nJ4V+yrut4aknM2FoU3UM1n8Ibiv/yfQsxsFa9SiWXZNPVb8NxBPKJSYqTjzPcG2ZtFzz80LfZfN2H6NTU+1i5+RULVRQCvkg3qzZfg9GsnxZnX5QUzFadQnKiE1zV3KhuL41ygfS+rQg4KJobZcGNOJrQbEdGFCzAQRAgl00w8Gd/w1nXn8e2L/+I6Ob11E0f/q3fQ1RULNNgS+HHrOYSmk2bdGmWe8e+z775nQwHNzHR3oOjy9TyKex6kcsuPo/3fOrvOe+8807K1vWLYtne+fYPYBrP9XmKxQLpdBJRlggFQkQiR4jFOA7zVRP3wEYmnn6Q/jUXICvqIW8xjSaK4sIb7kIQZXJPf59wJEqq2EINLyM2sGrhW3rupTSqRUqZWXqWbzplFk0UOz0AtVKGVr2CbVnIqobZqlNKz+DYNoIkouhe6sUMqu464saBHSRwWghGirg+TtI8D1Hx4dgWudn99H/15wyuCdCeeIp9P92NsuZ6mnd9CXbej+3YyIqOW/Lx292f4cd7/xlFsfnQlZ8glVb48wcuY8W6Pm547XVc/9rrGR4ePqn3ZVEsm/Wc4KNAPp8hEg/wJ5+4FVEQePDBh7n/vofoivceamEEgS63RKKQpH/1eSTGnmRo42WHVEeomotWvUqjrOCP9eNd9QpEt4/B5VonyX0UEbn9EerlPJZpPCemt5gIoohjWRitOuXMLM1apWOlgXolS72URVZcxIc3HPxMPnGAaimDywrh8gY59Mci4JglNGuC9YMTvO4agQcfNZjf26RWrR5cB9QmyyR0P8vXn835689mfKdD87zrEBJj6NUCDtAUmnxv7nP0ugZ55brfRsDgodl/5Vvf+zfOP//8k3ZPDmdRxGa2m6iyB2tBIKIoMjDUx1e++i8H33P1y68mELiNLY8+8RxtyLJMsDxDw70RTzBGZnofkb6VB19/pqarUkhitQ1C3ctwHPvo1RTPfNa2iPavYM8v7mT9Za9bdOsmIIAokJzYRatexh/pRVI0JKXJzMgWHMdhYM0FBGMDCJKCJCmMPflzhHoOyWphVOu43L7O6uZZQxNEEbf1JL/3/ibnX9bHtp9luOoKF1V7nK1TVyAJBqIjEgxkqM5HSPjc9EUKzNz+VzjeXlqaj3ApiySK1IsZnshuoRa8iLnHRlh2gYcv3/+3i3ofjuleLcY0+tBDv+APP/pxVq5cdfDLtG2b33jttdxww/UAfPOb3+ben/7ieWvXBUFgvlRD7dtIYv+T9K3e/Jz3OLaNpOq4PH5U3XtcwpFkhak9jzC07uIjWOLjQxBEREkmO7efejmH5vIhKwqm0SA9tQ+7bdK1bCOiJHf6QkWB5PhO8rN7iXl1bNOkWC7g9wfIlcqI7jCRQ2KNApKi0CPdwydvrDOS1FF1EZdRJhxo83f/eQEjk24EwUFEIPwXX8SU4hy45U30XnI26z7xl+z67uPMf/ItbFi1jJtu+gOuuvoqvF5v55FDbvcJXf+Lvm+LFfr4/G23c/dd9+Hx/FIE7Xb7YJW343DUx0tLkkSjXmW6qRDsXsbUnkdZtfkVB63lMzTrZVyeEL5w13N7FV6AcnYOBJFAtPf4c4aCCIJApZCkmksgihKy5sZqtyilZ2nUSoTi/ai6D90XRBBEiulp5kafQDLKlAsZ/D4/Ho8Py2pj2zaRcJS5xByW5ic+vB4QaC4EdBXNhVjZzh231kgXZPo3RNi83CAzU+JHP4fP/e/VOEInvCRvWE8ttgbB38+yG15Gd2+T6mfv4JPXX86GDeuRT6L7cDwsmtjq9TpvftPb8OjBY67HEkUR0zTJF7JkMmm6e+NccuklPDrRotloUM7N071s46EBYVGkVavgDkTxhbqOSzSiLDOzdyvdwxsXWvBeiM5qul7JUy/nMFuNTkhBUqjkEjRrJURZwRuM4g11nntQLeWoZmYoze8nn56mr7sPWVFoNTud8aFQGN3lolIugSCQTiexPRF8wTiWaaC43GhuP4IgUsuM8o2/G6VQMHlwK3zwo73c8olpNqyC+7cHGSlejmi38MgWkXiAUu+5tINdXB03+dN3vIFI+Oj1ZaeaRc0gZLM5Xn3t9axY8fzlMZ3SZJtGo04yncCyDC677BLe/4H3ce655wLwvR/9jM/+x30U5vcR6RlG9wQPEZVt250yZm8QbyB2XIITBJGp3Y8wvOny52l566SNLLNFo1qkkJpC0XQ0t7+zzelC6ijUvQxfpAerbeLYUM3PkT3wFF7ZQZElcvksbreHVqvF6lXrKBbyWLaFbdtIkoTb42Fmegqj3abUajO8/mJESTpYOt5qVLAtuHJzho+/ZxSXT+A9v1vnDW+JcOM7Hf7hs02K8s286y3Xs3r1quP5mk4bi56uuueen/LxP/7/WL5sJZqmY9udunVBEGm3TebmZ5ianmD9hnV86lN/dsTcmmPb/O4nbmU8azO69W5WXXDtc95jNOvoniDeUPz5a/efh0YlTyk7R/eyjTzbDIuiTLNeYn7/k7h8nR2KjEaVailNZmaE+OA6QvEhTLN5cM+Q2b2PEtZkRCzmEjNEo92dnYpMg3isG2nh8Y1ej4/R8T2sW7OJgD9IMtnZgmF0bB8V02bF2S+jVSthNDql2qrmxrYtGk2Jm962hV075vjzP9KJ9fvINCS+csfL+dNPfe24v5/TyUlJxI+Nj/Ppv7qVRx97DMdysCwLy2nT39fLRz/6+1z98qsJh0NHbXQtFIu88t2fxOvzM7//CZafc+Uhq09BEGnVK7h8IfyRvoPhFFEUKWZmcSwTQZTQvSE0t++QzIQgiqQn9xIbXIMsa9RrBXKzY0iSjOLygG1RzifJz40T7BokEOvDcQTc/lCnTH1sB5pdRxdtypUSsiRTLBUZHFjWqUETQRRERFEikZxjeHA5wWAIRdHYN7KTVSvWgCAyOzdFMp2k5shEepejaoc67pYN1UqR9ct7+c2rl7H1ob+hq0tn9dl/xjvefROKcmb4YsfKSav6sG2bdDpNoVDAcRw8Hi/9/X1I0rFboaee3s3Hbv0PKvk5JEkl1D10WHWIg9msdTZfjvTRNpqUMtNUCilEUcLrD+GL9mI0W3gCsUM3NBZY6EnQEUUZSVZoVPLkU1NoLi8efwTNE0B3+2jWq6Qmd5GZ3EXIo6MrCg4OrVYLcAiFIiSTCYaHOrs4plLzxGPdFEt5li9fzXxihv7eoY6Vs23m5qcYGlhOLp9hdGwvhuIj1re6Uw7kOFSrFZb1xXjzDa/kqisuZs3KFQiiSDabRpZ1gsETy1GeLs74B6Xd8g//wr07pkmOPs7A+ksO7WEWBOy2iaRoePwxyrl5UpO7EABvpAdN93Z2D/KHCcYHO5ZxoVXQNOqYjRrVYppydo5220DVPAS7BlFUF6bZpJSeJTXxNDSK2GYLl65jmAYejx9ZlvD5/FSrFVRFJZVO0d3dSzzahSBAKp2iv2+QdCZBwB+iUi3T1zuAaRocmNhPtVahaVi0ZY1QzwrMtk3Y7+bS8zbwW9dfy2WXXPiitjg4kznjxebYFm/7/b8mVTKY3vUwK8+/5jmVEM1KEbc/QqtRZX58B7o70GlK9viRVB3L7Dwxr220aNaKVAopWvUylVyCVr3C8KbLEUQZx7FpG03SE09TmhulVS+xZuU6iuUiOAKhYIhKrYzX40dTNYyFHoRMNkXLMOjt7mNwYBnQeURPo1FHlmQkSaJY6vy7VCnTcgTc4T5cvgiyJLC8P8q73ng9v/HqaxYt6X0mcsaLDWDfyCjv/dMvoCgSzUqBcN/yQwQnShKtehXdE6SQmqRWyuHxh9E9QXBsfJE+asUUptmglk/TqBWQFY1NV/wm6Zn9OI7A7PgO2vlZ4kEfzUaDfCGL2+VFlhW6u3qpN2u4XR5arSap9Dxul4f+vkGqtQqZbIpSqcSK5atRFXUhBywwdmAfAgLT0xNYoognNkQgNki9UcerOLzvra/lIx96z3Nywb+qvCTEBvCf3/kRX/7eY2QmdhAbWruwY+MvcRwHo1FF8wTwh3tp1UpUS2lwHCr5BPVyHlV3gygiIFCvFBjacCmpA09h56fBMg4mww2jhabpeNxeNFWjVq+i6y5M06Ar3il/zhey9PUNUSzkKJWLzMxO8fIrX8W+/XvQNY1sNk2uWED2xQh2DWFYDoLV5I3XXcUH3vs2+np60PXjL0B8KfOSEVurZfCRT/wdUwWbmd2PMrjh4kOaPAShs0GMLxTHardITo0sPGPKQRQlJOnZTyd2aDVqna3jjTJGvYxt24RCEURBQNP0hXO2cBwbXXcRi3XhdnkOhnISiVlcLjfhcIzxiVFy+U6GIJ1JYysePJEeBMWNaFtcefHZvOG1r+T8zWcRDh+9ieRXmZeM2ADK5TLXf+hmHNuhnJunZ8XZBwOzgiBQLWVxeULUihkKqYlOp/3zFHOarQZGs4bSLNCoFlmzeiP5fIaAP0gqk8Tj7qTdgoEQpXKRYDCEzxugU0vWqdHbN7obVVHJ5rM0LQfVF0Vxh1BVhWV9cX7j2st43XXX0Nfbewrv0pnLKe8bPRH8fj9/8ZHX8+l//QmiKFNMTeOP9f2yxMhxEEUBRdM7Vs2xEYQjh1ocp7N5im23EQWRbDZJd1cfxXKBTRvO5cBE5/HW2VyGgf4hpmcO4NJcCKJAPp8jmZqnWK2AHsAXW0FY96CJFq+4bDPvf9ebWfMSieqfSl5SYrMsi4GeGC4zgzy0jqldDxOI9x+WrlqwZC9Unu7Y2I6NJqs07Sr9fcNomobb7cE0Dfr7hhg/MMrKlauZnBzH7w/y+I4tGKaBIahEB9YQ6w1QLuTYuKqfT950I+ee8zy7SC4BvETENj09xb9//b948vGnEQQRj+OQyM7Qu/Ic9m//WSeddUg4REBZ2LNNOkIqSxQlbMdBFEQq1TKSJJJKzzPQP7zwescXDIci7NixnXKlhCVp+LuG8XjD1CoVemNBPvY77+LySy8mFAz8ysXETgZnrNiSyST33PMzHn14C+lUDhAPKZUJmEUqdpCu5RtJT+ym61kVsILAUSybTT453ekNaNZwTAPd5SIW7SaZmicSiZHNpkml56k2DWRvhNDK1TRbBr1dQV7/mldwzcsuZf26NUsCO07OKLFZlsVjj27hxz/6Cbt2jSAKEpqmHrEey+dy0ShOonRvoJiY6Dx09lmIooTNc1v12kYLzd15Cp+saBjtOm3Lom22mJ2bYnzqAI7ixh3qJ9zjp1YuMhh1c9Pv/wFXXnEpqvrrERM7GZwxq9FCvsCnPnkLU5NzeDzuYyobchyHmYaAr2clEzseID68Ho8/RqtRplEpUK/kUdRnIvICjt2mlJ1Fdflp1csYjRrtVg3BqCMoLlyRXvyRHtqmQT2fJOQR+b3feT/vfd/7lqzYInBGiK3RaPLWN78LXXW9sGN/GHbbJO0axLHbzI5sY/X5r6JRLdCoFGhUCyiqTrNepZyZxTQa+CJ9uH1BBFGibTRoNaq4/VGEhVr9wuwIm9at4k8+/sdcd911J+mKfz05I6bRPXv2oCr6c4T2TKFlrVZFVuSDQdVnI8oKSnYEp3cT7kCM6T2P4Y/2YjQ6G8xYbRPdGyDYPYggKgtr1U6jsqy6aRsG6fGnGOgKc+MH380Nv3kD8Xj8uKpTljg2zgixlcvlwyL8AALTM5OousSll1xMKpVh5849LB9a8Zwa4FgwwHxuEl+4G1EQKSQO0DYNFN1DKBhdeK67vaBlAaNRo5pP4NcE3nTDa7jhdbewcdPGF9zyaYkT44wQm6IoNBqNQyoeHMdm83mb+L//8PcH//7440/wF5/6WzyHdQfZjkNUbjNVyeLvWUl0YDWtRpVSerazxT0OtmVSLWZx0eK8s9bxmze9j994zW+ctk6jX0fOCLGdc87ZTE7tZ+3qTQdjso7jcNZZZx9su2s2m1htG/V5KiQURSUql6m1GjiOg+OAg0OjWsKq5oj6Vd7/vjfy3ve+99c6P3k6OSMWCACJRIK3vvnd9Pb0H/TLHAfq9TKRaJhCoYQoKGja84ceBEHAapuMzc6TLRRoV3O8611v5w//6A+OabO6JU4uZ4zYAG699e+5/95fEDjsKcKO4xx1dyRJkmm1mkzPTJLLZbj0sov56Md+j7Vr157wNk9LLB5nlNja7TbvfMd7aBvCC64GRVHCNA0ymRTJVILVa1bwlre+mSuuuJyhoaFTNOIljoczSmwAoyMj3Pjhj+HzBp9TIi0IApZlUa6USKWTeL0urrr6St74xtdz9tkn/xnnS5wYZ5zYAKampvjdGz9KNpvH4/ECz3QdlSlXimw+bzMf/vBv87KXHft+rkucfs5IsT1DIpHgwQceYuu27axcuZzzztvMhRdeeLqHtcSL5IwW2xK/Wixll5c4ZSyJbYlTxpLYljhl/P8JMUczHH1lxQAAAABJRU5ErkJggg==;" vertex="1" parent="bsMbISX9EA4oYNUM3-fa-5">
          <mxGeometry width="104.33230769230768" height="70" as="geometry" />
        </mxCell>
        <mxCell id="bsMbISX9EA4oYNUM3-fa-4" value="TBOX" style="text;html=1;strokeColor=none;fillColor=none;align=center;verticalAlign=middle;whiteSpace=wrap;rounded=0;fontStyle=1;fontSize=8;" vertex="1" parent="bsMbISX9EA4oYNUM3-fa-5">
          <mxGeometry x="54.2230388109001" y="53.84615384615385" width="42.1139554087531" height="16.153846153846153" as="geometry" />
        </mxCell>
        <mxCell id="bsMbISX9EA4oYNUM3-fa-41" value="" style="shape=flexArrow;endArrow=classic;html=1;rounded=0;fontSize=15;fillColor=#f5f5f5;strokeColor=#666666;" edge="1" parent="bsMbISX9EA4oYNUM3-fa-42">
          <mxGeometry width="50" height="50" relative="1" as="geometry">
            <mxPoint x="131" y="65" as="sourcePoint" />
            <mxPoint x="161" y="67" as="targetPoint" />
          </mxGeometry>
        </mxCell>
        <mxCell id="bsMbISX9EA4oYNUM3-fa-55" value="车端" style="text;html=1;strokeColor=none;fillColor=none;align=center;verticalAlign=middle;whiteSpace=wrap;rounded=0;fontSize=15;fontStyle=1;fontColor=#4D4D4D;" vertex="1" parent="bsMbISX9EA4oYNUM3-fa-42">
          <mxGeometry x="48" y="90" width="165" height="30" as="geometry" />
        </mxCell>
        <mxCell id="bsMbISX9EA4oYNUM3-fa-8" value="" style="rounded=0;whiteSpace=wrap;html=1;fontSize=17;strokeColor=#CCCCCC;" vertex="1" parent="1">
          <mxGeometry x="414" y="90" width="250" height="460" as="geometry" />
        </mxCell>
        <mxCell id="bsMbISX9EA4oYNUM3-fa-9" value="车联网云服务支撑平台" style="text;html=1;strokeColor=none;fillColor=none;align=center;verticalAlign=middle;whiteSpace=wrap;rounded=0;fontSize=15;fontStyle=1;fontColor=#4D4D4D;" vertex="1" parent="1">
          <mxGeometry x="456.5" y="519" width="165" height="30" as="geometry" />
        </mxCell>
        <mxCell id="bsMbISX9EA4oYNUM3-fa-10" value="" style="rounded=0;whiteSpace=wrap;html=1;fontSize=13;fillColor=#dae8fc;strokeColor=#6c8ebf;" vertex="1" parent="1">
          <mxGeometry x="456.5" y="259" width="167.5" height="132" as="geometry" />
        </mxCell>
        <mxCell id="bsMbISX9EA4oYNUM3-fa-11" value="..." style="rounded=0;whiteSpace=wrap;html=1;fontSize=17;fontColor=#808080;strokeColor=#808080;" vertex="1" parent="1">
          <mxGeometry x="456.5" y="484" width="167.5" height="30" as="geometry" />
        </mxCell>
        <mxCell id="bsMbISX9EA4oYNUM3-fa-12" value="预见性维修" style="rounded=0;whiteSpace=wrap;html=1;fontSize=12;fontColor=#808080;strokeColor=#808080;fontStyle=1" vertex="1" parent="1">
          <mxGeometry x="456.5" y="411" width="167.5" height="30" as="geometry" />
        </mxCell>
        <mxCell id="bsMbISX9EA4oYNUM3-fa-13" value="智能保养提醒" style="rounded=0;whiteSpace=wrap;html=1;fontSize=12;fontColor=#808080;strokeColor=#808080;fontStyle=1" vertex="1" parent="1">
          <mxGeometry x="456.5" y="447" width="167.5" height="30" as="geometry" />
        </mxCell>
        <mxCell id="bsMbISX9EA4oYNUM3-fa-14" value="故障主动服务" style="text;html=1;strokeColor=none;fillColor=none;align=center;verticalAlign=middle;whiteSpace=wrap;rounded=0;fontSize=12;fontStyle=1;fontColor=#4D4D4D;" vertex="1" parent="1">
          <mxGeometry x="456.5" y="259" width="80" height="30" as="geometry" />
        </mxCell>
        <mxCell id="bsMbISX9EA4oYNUM3-fa-44" value="" style="rounded=0;whiteSpace=wrap;html=1;fontSize=13;fillColor=#dae8fc;strokeColor=#6c8ebf;" vertex="1" parent="1">
          <mxGeometry x="456.5" y="120" width="167.5" height="132" as="geometry" />
        </mxCell>
        <mxCell id="bsMbISX9EA4oYNUM3-fa-45" value="驾驶行为分析" style="text;html=1;strokeColor=none;fillColor=none;align=center;verticalAlign=middle;whiteSpace=wrap;rounded=0;fontSize=12;fontStyle=1;fontColor=#4D4D4D;" vertex="1" parent="1">
          <mxGeometry x="456.5" y="120" width="80" height="30" as="geometry" />
        </mxCell>
        <mxCell id="bsMbISX9EA4oYNUM3-fa-18" value="&lt;span style=&quot;font-size: 13px;&quot;&gt;实时故障预测&lt;/span&gt;" style="rounded=0;whiteSpace=wrap;html=1;fontSize=12;fillColor=#d5e8d4;strokeColor=#82b366;dashed=1;fontStyle=1;fontColor=#808080;" vertex="1" parent="1">
          <mxGeometry x="479" y="298" width="120" height="70" as="geometry" />
        </mxCell>
        <mxCell id="bsMbISX9EA4oYNUM3-fa-46" value="&lt;span style=&quot;font-size: 13px;&quot;&gt;油耗分析模型&lt;/span&gt;" style="rounded=0;whiteSpace=wrap;html=1;fontSize=12;fillColor=#d5e8d4;strokeColor=#82b366;dashed=1;fontStyle=1;fontColor=#808080;" vertex="1" parent="1">
          <mxGeometry x="480.25" y="160" width="120" height="70" as="geometry" />
        </mxCell>
        <mxCell id="bsMbISX9EA4oYNUM3-fa-38" value="" style="html=1;shadow=0;dashed=0;align=center;verticalAlign=middle;shape=mxgraph.arrows2.arrow;dy=0.6;dx=40;notch=0;fontSize=12;strokeColor=#d6b656;rotation=30;fillColor=#fff2cc;" vertex="1" parent="1">
          <mxGeometry x="627" y="367.74" width="139.33" height="40" as="geometry" />
        </mxCell>
        <mxCell id="bsMbISX9EA4oYNUM3-fa-49" value="" style="html=1;shadow=0;dashed=0;align=center;verticalAlign=middle;shape=mxgraph.arrows2.arrow;dy=0.6;dx=40;notch=0;fontSize=12;strokeColor=#d6b656;rotation=0;fillColor=#fff2cc;" vertex="1" parent="1">
          <mxGeometry x="634.32" y="175" width="125.68" height="40" as="geometry" />
        </mxCell>
        <mxCell id="bsMbISX9EA4oYNUM3-fa-35" value="" style="html=1;shadow=0;dashed=0;align=center;verticalAlign=middle;shape=mxgraph.arrows2.arrow;dy=0.6;dx=40;notch=0;fontSize=12;strokeColor=#d6b656;rotation=0;fillColor=#fff2cc;" vertex="1" parent="1">
          <mxGeometry x="319.44" y="166" width="120.56" height="40" as="geometry" />
        </mxCell>
        <mxCell id="bsMbISX9EA4oYNUM3-fa-51" value="" style="html=1;shadow=0;dashed=0;align=center;verticalAlign=middle;shape=mxgraph.arrows2.arrow;dy=0.6;dx=40;notch=0;fontSize=12;strokeColor=#d6b656;rotation=0;fillColor=#fff2cc;" vertex="1" parent="1">
          <mxGeometry x="319.44" y="298" width="120.56" height="40" as="geometry" />
        </mxCell>
        <mxCell id="bsMbISX9EA4oYNUM3-fa-52" value="故障数据" style="text;html=1;strokeColor=none;fillColor=none;align=center;verticalAlign=middle;whiteSpace=wrap;rounded=0;dashed=1;fontSize=13;fontStyle=1;fontColor=#808080;" vertex="1" parent="1">
          <mxGeometry x="330" y="286" width="60" height="30" as="geometry" />
        </mxCell>
        <mxCell id="bsMbISX9EA4oYNUM3-fa-53" value="行车数据" style="text;html=1;strokeColor=none;fillColor=none;align=center;verticalAlign=middle;whiteSpace=wrap;rounded=0;dashed=1;fontSize=13;fontStyle=1;fontColor=#808080;" vertex="1" parent="1">
          <mxGeometry x="330" y="154" width="60" height="30" as="geometry" />
        </mxCell>
        <mxCell id="bsMbISX9EA4oYNUM3-fa-54" value="数据传输" style="text;html=1;strokeColor=none;fillColor=none;align=center;verticalAlign=middle;whiteSpace=wrap;rounded=0;dashed=1;fontSize=13;fontStyle=1;fontColor=#808080;" vertex="1" parent="1">
          <mxGeometry x="178" y="395" width="60" height="30" as="geometry" />
        </mxCell>
        <mxCell id="bsMbISX9EA4oYNUM3-fa-56" value="节油建议" style="text;html=1;strokeColor=none;fillColor=none;align=center;verticalAlign=middle;whiteSpace=wrap;rounded=0;dashed=1;fontSize=13;fontStyle=1;fontColor=#808080;" vertex="1" parent="1">
          <mxGeometry x="639.3199999999999" y="154" width="60" height="30" as="geometry" />
        </mxCell>
        <mxCell id="bsMbISX9EA4oYNUM3-fa-57" value="N天会发生故障" style="text;html=1;strokeColor=none;fillColor=none;align=center;verticalAlign=middle;whiteSpace=wrap;rounded=0;dashed=1;fontSize=13;fontStyle=1;fontColor=#808080;rotation=30;" vertex="1" parent="1">
          <mxGeometry x="640.13" y="349.15" width="99.49" height="30" as="geometry" />
        </mxCell>
        <mxCell id="bsMbISX9EA4oYNUM3-fa-60" value="" style="group" vertex="1" connectable="0" parent="1">
          <mxGeometry x="800" y="90" width="181" height="192" as="geometry" />
        </mxCell>
        <mxCell id="bsMbISX9EA4oYNUM3-fa-47" value="" style="shape=image;verticalLabelPosition=bottom;labelBackgroundColor=default;verticalAlign=top;aspect=fixed;imageAspect=0;image=data:image/png,iVBORw0KGgoAAAANSUhEUgAAAKYAAACmCAYAAABQiPR3AAAgAElEQVR4nOy957Nl13nm91tr7XTSzaETOiDnTIEAJYqUNCNpKHMkjmose1SUXK7yF7vKZf8n/uAPLueascflmVGyRxJFySQFgCJBgAQaQKPROXfffE/ee6/kD2ufc283WtAQDfJekOepWn36nrz3fs673vCsdwnvvWeCCfYZ5F5/gQkmuBsmxJxgX2JCzAn2JSbEnGBfYkLMCfYlJsScYF9iQswJ9iUmxJxgX2JCzAn2JSbEnGBfYkLMCfYlJsScYF9iQswJ9iUmxJxgX2JCzAn2JSbE/BShty5TbFzc66/xMwExEQr/h8GsXcaaEozGW4dwHisc2702QoFzjlLnWOORUiJlhEeSNRpIFaPSOgtHHtnrw/jMYELMfwD9lfM4W+AKjS4LvNXgPNI7EA6LRUqBtZaiHKJLixACIQTeQ15ooqROUquTZA3iNCNK68weemCvD21fI9rrL7Cf0Vk5w7DbBmfwRoM14AMpPQIhQWEqf8giTYlyBulBCIHFk+AQxuH6Bf3+Nl4mZPUGsugxfeKZPT7C/YsJMf8ebF55j7IYYIsBAkMESOGQQoC3AEjvMFbjHWAswhVIo5EiTOfCObIowQuLs5bCGIz16LLLUPcxxYD5R1/e0+Pcr5gQ8y7YvHaafNjDlD2SSKCEI8IjvEf44E8Kb3HekSYSKSVeeqSPsDiUCBYTJynLHKkUsYxQscdIgfcFum/IixIunWb++KN7fcj7DhNi3oH+2kVM0cfrHCUcsRBIHHiNdxbnfZi6vUcKMMYFYhqD1hpTligBEoHwFuE90oXnxlKglMA5j3MGrXN63Q7ze33Q+xCTdNEdcKbE2xKBIY0Fwhu8K7Emx+ocZ0qcMwjhUUohlUKqGFSEkBKhIoQIp9UJiOM4+JtOo7XGO4MQgkgKYiXJ+z3Wrl7a46Pef5hYzDugJOAsOI2wHpxGYpBCICLJzm/ZY73D+QTrBdZJtJcYJ/EIlAThBdoCCBAKIQXeSxwCCXgBHksU79XR7l9MiHk3CIcAhCdM44C48zlegAAvBCDxKBwKLyyWMN074T/6OiHxSKwAF56F8O4nfECfPUyIeQek9wjvqjylBz8iKASaBqp5IQkhkcSLalSPCyGwAsQdKWIvJPiRxRXhbzwI+1M8ws8GJsT8GIjbeCUq2xkIGAgm72JKd0Pi73jcieqOEUGFG7/zBDuYEPMOuDuJVhFoRMrwt8IJiaeypt6ANygs3lsUHikk3GYxbyfp7YSdEPNOTIh5F4xJ4yVgGQc8vvIlhcRXp05QIjwob4MLgEPgkT4ENuG1wZfESyQeJ0RlJV3lNvy0j3D/Y0LMjyAEM2H4cDsmTnW/jwAFwlYTu8VjUBi8NwgRJnyPh4qAeDm2xrKywkKEevsdPsMETIh5F4Tqjq0ibuF3pmCHqgg2MqkiBDtIbBUIOREFq4gcW8zwelkFTCGdNPJVlbcoX+7Jke5nTIgJXL/8Po1ayszSg5T5AK0LsiTBFANWVla4dOEiN26u4EWQsxlgfm6Rg0cO8/CD96OLgpmZRXp6jW5vm+mZFpevXuPUqVP0ej3iOCaKEtqdHovLB1hcXuaZZ57FFjm9zVvUn3oEOmfYXh8wc/+ze3069gUmsjfg+sUfUQ4H1LOUletXeO07/x+3rl9hcW6WhflZHn30UZYWD5CXmjitMT07y9rGFh98eJpT75/m4IElTp48SatRY3F+nnZni6cef4Ljx48yNTXD9vY2QggcEus9p8+c4/z587S31jm00OSXfumXyOrz+KjFgaMPsfTAE3t9SvYck5IkMDMzQxRFWF0yPzfDwtwsxWDI+uoaX/vt3+HQoUNIBcvLi0xPT7O9vY3E8eLzz3Ho4DJvvvkGn3vhOY4cOsQHp9/ngePHeOShB2k16+SDPlmW0GzWqdVTZqeneeKxRxDCY63mscceY3FxkUajQb3ZIMuyvT4d+wI/91P59vplZhZO0N/aor3dYX6myZe+9CVatYyTP3qTzc0NZmdnEUKw1W7jiViYm8M5x/rmBmms+Prv/wsW5uaxuuDwwUWMLpDCY7WmXktBCqSU2GGBKXNqaUotTXjyiSd48OGHaE3N0O5p4jhm6vBEQAwTi8nMwjEA6vU6wnu2N7eYnZ7hsUceptFo4K2l295i0OuQSInC0tlcY3N9FV3mNOt1FmammW41OHRgmRNH76Ozvc2Fc2epZwnCO9Zu3qTfbjM/M00tTVhbuUkiBV/+4i8hRURvMGCQ56hJ0XyMn3tijtA88Cjz8/MYY+j1eszNzfHCc8/y/rsn0UXJzNQ0SaSIpCBLYzrbW7z1xvc5dvgAi/NzZEnM2TOnObC0yMufe5GL58+xtblOq5YwNzNNs14jH/TZ3Fij191ieXGBRqNBrVFHqJhao8X8/OJen4Z9g0nwU2Gweo5+e4thZ4NEQRoJrM559523uXn9KtZaFpYOIKVkc7tNo9XixAMPcOy+o6RpwsrKCvUsodvuIHFMTTX5kz/5E/CeeqNBltXZ2GqT1jJm5hY4ePAQzakWVkCpPSpp8cDDz1Bbvn+vT8W+wISYFYZrF1m7eZVmGiF9yaC7TS1WCG9JkghjDO12G+Og2WyS1RtY7zHGkEQS7z2bG2vUkhSlBFub6ywsLNDtdtFaE0UJRWmot5oMhgULC0tstLeptVp0BpooafHIL/zmXp+GfYPJVF6htngC6yXIiDPnznP92k2UilBK4YxFCs/MzBRz8zMkaYS1GpwhkuC9x2pDLUnRuqAshkw1WxT5kCSOaDQaRJFkaqqJ04Zmo8Zw2Ofs2bNsd7qoJEHbiX3YjQkxdyGOUxyCTqfHVrtDUe6qyPiPP1VyVPse3VGVGYUQyOrOkYrIOYczFmMMN26t4kVMnKSf7sF8xvFzny7ajemZeaQv6Q9KXD5AqRi8x4uR+ueT/46FuF22ZK1Fa0Pe7vLs/CIqrt/DN//Zw4SYu9A6FAKPQv8J3liSrI4tB0hGa3gCQe826bqx8KOCF4BntwsvZYSUpqoCeYyzeGB+aZmoeewnc1CfUUyIeReU2mFLg3FBXeRGKqGxuDfcODFSCv09/qEXgZgCvA/KdqUUiAhwOAvWMSHlXTDxMe8CqWKsh26vf7saSARD6MSdguKRmLhSt99hPUfqpLD0IhDdGENZlgihfkpH9dnChJh3QZbV8U6wtdUGAglH0rUx/M4aH8ftinRf/e2FBKnYUb6HwMcYQ1EU9IY5UTwJeu6GCTHvAqUUxljaW9sAuxTmbkxSJ3dWACl/x4rKXRG8EAKEwAsw3mG9wRhDXpYURRECrAk+ggkx74JYCgadDu2NTbIoRjqPt6HjhlCS0mlKr5Gxx+ucyBsSAQoP1oSmBh6iKEJrHV4nPFoX1BsZ4FhbuY5SAu8ml+BumJyVuyCr15BSsrGxwerq6phcZVmidVABxXFMnudIROgCVxG3ntaJ4xhjHJ1OhyhOsdZiEcRxjC4ta+srbG9vk6iEqdbcXh/uvsSEmHfB1MIcSavBemebD8+fo1/k1Ot1kiRBWk+qEupxjUjGxGmGjBO8UBjrKbTFeUGS1mhNzZCmNcrSMBwUeC/wFrrtHr1OH5AcPHhkrw93X2JCzLtg8dASB44cQKaKy9evsr61icNTS+soEWGGGpcbYiKsF6gkJc5qyCgm14ZhUWKsR0YJ+bBERglZVkeXltXVddZWN/BeMDc7z9Khw3t9uPsSkzzmXTC3MMt9J45S5G1Wrl3m0pXLxHHE4eUDpGmK0xab65AyUoJ+UVIWmlwbZBwDnlxruvkA4QVzc7N4D1euXObMmbOsr28yP7/A0RP3c/D+Sfvru2FCzLsgiSKWDyxi8xMMe9vcXLlFt92mfPxxHrn/Ier1JlYbHJ4Cx41b17lx/RbWlCwtHWB5eTGoiQZ9vBcMhjk3rt3kwsVzDPo5i4tLLC4sh2T7BHfFhJh3gR7m1OOU5aUF3MOPcOncWTbW1rh48SLCeGZm5siSGlGWstXvcvXaDS5cuITVJcPcoKKIZnMKawz9Tp/NzXUuXbhMr9fhyMEjHDp8gEgl9HPNlStnOHr04b0+5H2HCTHvwODWRcrBEKyjkdV48vFHSSSctZa1tTXWV9fJ0joLs0tMz8+x3t2k0+9hjMFYx+r6GoUuiVXQcPa226HJlrVMT8/SbDYRKKSUTNWbDLudvT7kfYkJMe9AggyRdZmTxoKiP+D4kcPU4ogzZ85x6+YKhS65vr7KpZUbxGkU2g5KGfxP52i32+CCgMNrg5SS6akpFhcXmWlNjYmq+z3iKok/we2YEPMORAeOITtr5EWJzUvqtYQoSji4fADnHCpO2NjcxiFopk0GgwE4h5cykNE6fLVrhUQwu7AQ8ptZjVqthlIK733VVVjCYMjg8gXqxyZLKnZjQsw7sHn5Q7QxNBoNWvUZuttrWA+1NObofYdJaw2ur9xikJckSYZwoaWM9yNShvqllJJIykBQKUmimCRJ8EJgjMULUEKi2x3yjTb1icDoNvzcE/N8CUJ47o+DCmPu2CPcPPsDtjpd2u0B07UUowusKVFpwvKBRWqtBuvb2/R6AxIniKrWMd5bvAXvLVJGID3OeKRk/LgxodHBSFXkpEKktws5Lg/aOA0npqd/6udjv+DnbjHaBesZOosVHq0UW1pz+fJFVi+ep26HPDA3xYnZOgvKk9kcUQ5JpMdaS2k0IsogjtnodFlfXcf1c2IhKzGGC9Udb/Fe4IQjEhEylggU1mmMDh3elIxxqkbb1lgrDDeHA9T8DMefeYoD9x1HiYjYeJ5Jfz47c/xcWMzLvZyuM/hGhlURlzvbfO+dH/LWB6e4tL5GZ3uLael45bGHOXb8RVpHlnHbG6xcu86U9NRaTZI4ouwU5MM+sWww1WoQC0l7ZR1pfFjH4wVSCjwRzjlsRVLhBF5avPdIFaynEDCUHjMzTTfXnLm4xpuv/ZCrf/FnpK0WTz72JJ9/8nkuHb6f41NzPDP18yWP+7mxmG8Ncv72vbf5y9df5e0LH1JGkmxhjvUyx+QDGqbk0cVZvvjg/Xzh/qM8PF1n3lt8e4vpOCaRisJojPeQpKg0BSfo3Nyg6A3o9/sURhMJCSos5zXOoqKw0tJX+00ig4rdWssqEeeyWV69co1XT73Hmh7SOHwEWcsoeiXRQLMsMl469gi//PhTPHPsBC8d+/loivAzTczzxnPq6lVef/cdvvWD73Fh4xay2SCabtA1mm63C1NTqDiipgtUe4t5XfDC0cN85YVnefnRh5lxBtvZgnxILYqIk0CqQmuEEzSjBp2tNpubm+SDYQh6ojARaRzGA5HCSEnuPSiFjSKKsuSaFfzPb51kJamxaUu60uGjGIoSUDRas8TtgmygaZSWw9PTfP7ZZ3nlpZc4cfQwmYCf1dT8zxQxz66sE80v4CJ47co1/vjbf81333uPQglKBVb6IPKF0MnXKxwJwkFNKmreofo90jLn6FSDBxZm+NqXv8hyqphRjszmZLagLh2Rs1htSZMZdOnJe1262236narBQRyj0oyhEPScp68ibL1JL1Zc3drivXPnOXlzletZnU6aYIUcN4slrGMDD8oKhNakQhELQZkXNGo1Pve5F/iNz32OLx66j2fEz55H9jNFTIA/vnKVf/WNv+CNS5dwU01u9bu4SFYtpV1gpXfVVicCpRqYMmyhkkiBKi0UOTOJYrmeMKvgxYdO8PKjJzg206Buh0R6QM1bYiJKGyOJ8UajhznDXpc8z7EOrFJ0jMU1W3RlzJn1dX50+TJnV1bpO0HRbLDqIP+YmrlSClsUICVJluG9RxcFcZpypNHgFxcP8LVXXuHZEw9z/OO30PhM4WeGmK+u3uTPX32NV99/n1v5kJWypNfdhoMHQFbExAVL5BzSe5wEUWviixKMhShGIPF5jjKGOg7T3aLhNfOJ4qEDCzz30AmefOh+Ds1Nk6qIfGhJopRICpw2DLsd2u02nf6AgTF0teH8rRU+uH6DlaKgzOroJGO7LGkPC2RzGif+fvVhrVZjOByC1qAUMopwxkBRQFHw6NICsr3Nr33uFf7j3/gtXmn+bKSYPtPEPO8dXTTffusH/OW3vs17Fy4ykJJ4dp4ySRjgKZ2rVKc7xAybj4KTQC0BbcA5iFMQcfjbaHCOqVpG4gxRmSPyHrEuqEWS6VpKI014+MRDpElCHCuE8wwHPTqdDp1el15RstEbsF2WbJeagVDYWgNZa+DSDI/AlfbvXf0LoYIkhMA5F8gJEIdkvcIxvHqe5QMHiIaao1Oz/MFXvsaXn3n+M+97fmaJ+Y43XNhY4d9+65u8/s6PuHJzhemlJZLWNGvtDt4JssVF8uGgWgdeEdOBYERMB8kuayXjsJrRAVQrHNsdUAoiSSpBWQ1Gh6b+eHxeEkeSOA7CDOEdhSnQ1lC68MPIWjOoRpMcQdEvQDtIM8hqIdD5uC37hkNEpZ63NrSVGXX18E5DZMAUtOotaPdJeiW/84tf5uu/+VWO1lsc+4wq6z6TxHzTFnzrnR/yN2+/ybfefZtouoVUMYPS4hDEWQ1tBQz6UKuzY5JMsJgVMb1w+MgTmgtFYcMoQyCniiGKUFMz2K1t6HYgktBskiiJLnN8PiRBhr0rhMALhxAeL0Mt3CmBihKGRQnGB4tcawXXYlBCrwu19GOJKeXOsl8IPqeUEl2WUA5gfgpsCb0BIkmZi1LMygbPHTzOH/7WV3nlgcd4KPvsBUefOWK+trnBN06+yb9/8/u8feU8U8eO0i0NrtSM1297AVFEnKToPN+1Q5kJN8JWPa8c0lmkDPtCWu/HO5+N14N3etBoIKeaRFFE2e9Crw+RJKo3yLzAO4NxFuMNDgtCgPB4KWAwgDgGlQARWB/cBalQkcTq/scSM8syiqLAl2V43yhCShm+sxI4qwNBsywQPs9ppTVmnURfW+W//U++zhcefISXDy3/JC/Lp47PFDHf3mjzZ299j//r1b/mXHeD+MASg/4Q4mSHSHbU9mLc/iL8Mwp+RtO68AjnUNoSVdO2R+FVBDLGeHDGEDeagdzWBIspFbjg6ymhoAzCDedNII4ShIXmFdmqiFt4GX4X1iOcQIlQSzei3NW06y7QGqRExvF4ObDPc1AKVa9hCw1xVPnRBryFvAALy0mddLPD13/9K/zuF7/MM63Gp3xFfnL4zBDzXL/kf/h3/4Y/e+vv6DRibvkCmq2wo95497KRfygQvkoHVu0A/XgXMirShJ11Uy2IXNXeZbSDriAEJgLA7+qyUZGb8B7KSZSLq02pHF6McqVuh5jhLZBOojzhNT7sZW6FR0cOIz/ZXpLSQ2LDdy4UEDlQ1fFZhzCeOeOJN9v8/j/+DX7v136dF5qtT/RZP218JpyPc7nh3/71N/nbk2+j6yldG6bkKE0xfV1N34z3GAePrLqt4Xd1aRsHQYxYixUSxKibW3jIw85WzWLU87Iis9hNzojxDrzCf3SD1FGivHqf8B3D+6nxjmuffINT5SA1O38XVGkxWZVFhWHTW5pTGX998kfgDK2v/jPibo8Ts7Of+HN/Gtj3xLzk4ftnP+DffPubXGxvER9aZuAMNKcx/RzhFMqPWrPsfmXYWPTObZnH8AKExCiJkbsi87GlG039/va/x5uTghVu7DI4qihfsMsq72AU6CPAVa8NDbrubQW18uG7pDb8sLSVOzODlPhIkCcZp9ZuYt4c8tRDj/L1p/b/7mv7el35BV2w7TV/9vp3uNjdpHbfAdrW4pOEmZk52O6G6dE7lIMd6xPI44WrGl7tsnJ3Qsid5myqynlKV43Rc9yuwW0xlpUeJ8zOZ9w5jYtRYyOPkx4jPVp6dOQxyn+8f/kPwAsolcPK8NmRA2kdmMql8cGaa+GJF+dYcyV/9M1vAHDu5son/tyfBvY1MUWc8oMzp3jj3GnKmQZ+tkURSUSakvcKSBuERleu8vHCsHJnOLlzP77qcemqMZ5m4e+t5o27vEnCBBOBT4CkmsphPMUHKXs1dr3BqJuwqD5egVEOoz42t/4PwkhHP/H0UkupAjkTB7FxoGXwv4UCYxCNOsNE8N3TJ/njS+coo/2d4NzXxBy4kr/+7ut0paWoJ9xsb4VKjVDkt9aZnQsSMC98RURfkdEHQo6s3y7ijQyadJUb6SvCOrfz/0pAEcqXVXs3r8DHtw8XI7yorLYPFsuBtJXRtNW4rU9hJdIYTeH3Ut5W4FOHSR15HI45co7UVL6nkZDUIUro9Xt0rcZkCX/6N9/g8cWFe/jgnzz2tY95+foNTl28gM5ijIRq3QJeG0hq2KKseONCL0rhwgUXjtt7WTKObAQhmg2tAh3+thzi7v/vNGMFqohdsPO+EuENsddIb3d9lti1DfQOJ0Oz1+r7jdNWcE+2QQLpzve2TpJpqh9KeErhCHnU3gCfRsQi4ocfnuK725scilKON/dnCmnfEvP7N1f44OZ1tnEMECAU8ew8emULvOTQ0aPcOPU+cql5R3RbWTyxqzX12FqNOv6G7r6CUELcDQnVfSGoUN4FIhNm6pEbKnzYazzyJdLfhdBC4gFbpVaNDGP0d7itOmrulq1VhBIfmePdR7MKo5xY9bG2+pFSFQ8EsqouRRBn1GoZ3c4aqZZ86wdv8Xtf/tX/0MvxU8e+JObF3FIcXOJf/p//E2sCjErAS8xGj0jFOODG+k1YnsFjkE6O0zH+DgvkS01tepbCWNywhDTBGAPWU5ueZtgf7pABg8KigNhaEmdIrSG1lqy6rRlH7BxxtTryowQKFnOkrzRSohWUUlJEUCrQUmAlDKKEQX0ajQrqJi8QKiIRMd46rC6I4xgpBYN+B5SlNt1iWAxg2AvlzRIgGhe1ysijvQ0RurQh+Z4XkKQMV9ss1Oexfc1fvP5DfutX/9FP9DreC/YlMctM8fblC6wZTSEVCIm0cjxFWQEuCldipzwgKwNyu9NWa80waHfCxWnUUbHCmBJsyXDYDTk/D8I5EmdJrSO1msw66kaTGUPNalJriJ0lsY7IG6QPEzt+VNkZdR4eJejlmKBGQlmJlbWsyCqhH8O6G1AktfGyXpNrClEQRREyjsg3VmF2FtWoYU3BsMgRkcLXm1C6ENxAZUh9KHyN3OKRS+McUiicStFegIjYNI53L97gmQcO/YSv5ifDviSmAH7w5ptBh1hhV778tjhi5MtBRdJdU6EABtvbyCyjNj2NtiVldxPiCDWVYm0RIiAXotmmcczkjqnSM1U46tqR2pCGcULiJGipKFSEkWFqHVV0ZGU9x22vfag+xQ5iC5mWY19zVF0aRp7GsKCXWFwkKSJJLgVDJSmVwyhBev8hiq1NbEkQpHjwpUURYyU7dXZfuSBjN4bK3w6NGIgVIo0ZaoNVni3T5/UfvcnvP/DVn/DV/GTYl8TsWs87p95Dm6o+XWEUTHzUK6xud0XfIWPjUNMt7KBPkftQ6haWVhwjfcnW+gpTrYzYeeoaGiVMFdAsoaFDZKsqK2ilpJQwiCGvpmQjg1Ua+5+VD6p8VR101W1Vihw9B8JjmYGDCjr9AUPh0PWUsp7SxbJRltjCQjMGryHOIIqgX4KTiLgGZQ6RCh9eFabCwQfXJlSwFAgVEvlKUBYGkcT0rOatM+9ysvPLPD21/8TF+5KYl29eZ2VtFTE9xehse1Gl5dhlManykRByhVVlZXfEayMBOscIQzNNEMM+vr3JdKvF0UaTZKtDXRuElxWZIpQDKxX9BKyIKJWgUJJCSfKo8hWlII9gkHiMrMqMLpQcIxcsZWQJeUUbCBrbcP/oean1LOJIjGGAZTg09G0fq0A1Umyrwc0L56AxRTY1S2E8flhAbQqf1GCQhx/uOPiSY266kX5AKJCVqgkBwqFjiVdwZXOV09cv8/TU0z/R6/lJsO+IeSoveevddzGIIBvbiUx2DILYmb5kJdpwYpfFHOUucdDvwlSDlrOIbofj9RqPP/wgM0lKce0m/avrpNZjhUMrKBTkccQwchQqIo+gkJJSRWip0FJiRBB8FAqKxAThBOyaVt045x6I6UksJBVBgxV1NEuD7HRoIahlMUIYzCAnzlIWZ+c58OADrBy7n3fOnufa1Wuo1iy+UcdZgx32odkAtxO87QhPRvV+gkMep4GY3kGscJHHIun6gjdPvc/zx07wYH1/iTv2HTFXe21ef/tNVC1FWxOmr9F0LXaREsA7EqvAS0pVGc+xgsgDDmZaJMMB+eY6x7M6v/Xii3zu+ANcevsk33v/PLM2QnhBP5YMIkknidiqCbbTiF6sGMQRRoUADB9VVSNR7YgGWBWS87vTN9V38MJRyED2yLmKlK6yzIpSQVFKcufIlCNF0hSKxMLBgeVQJ+fLzz7PgULw7e2TbPd7mNmUtrDgSkinYLiTQ/Vi9OuVY58c4yCJw1IR7yEK+2Nagl/7g/ff5Xe+/CsTYn4cLgMbxZAPLp4nOriMLvKKmLswDnxcxUSPwKE8OOd3KjjCgbOoYoDsdDkxM88/ef55Hptb4Id/9Td8+MYPqEd1BlFCrhSDGDqpZCuTbGWKdiYp4ij4cHJUHJeBiFYGLjpJasK0bEWVLZAuaDbHyX4Ah5ESK1yI0gWoqtYeL82x3u2QasuMVDRVjO8NWf/gHP0L12j0DL/6+KMsN1r80Wuvcvn6FWbuO0g3VtjtW5BkVcoqlE39KIFPFfiYApE28FZXs4kKindAKMnZG9fYLgsuAnIw5Fi99lO40v8w9hUxNfDnr32LeKZFDqG1n9bhVz6q7XrG9WghPHE9osxzcI66UHjjMOWAFGglMfGwQPY1v/srL/PYwcP86f/6v3Dr3EUePnIfVztdVufqbKUJRkGhBHkkGUagZVUfdzsaz3F9fVcAU9OC2CqsBCM9Vsoqke7GCiIQSA8SGbyMaqovVMQN6YimmrRKhys0wghmYqh5Q5pb3vj33yAzjheeeYLuY4/xnXOn2OquU58ZUOYAACAASURBVJ+Z4kbZJvIl9XqL3JQ4r4izBsNBCTonmZ2nHILPy8riCygNojoAKSWqXucvX3uVpa9+jRf2CSlhHxHz/HDATWG4tLZKGQn6pkSqoCh3Y1ma30lcVtWNbm+dLEloxgqph0TDnFRb6s5Rs5anHniAV379OSLt+Jv/+4/YWt1k6eBhugjWIsWNZo31LPQFGucfRx83qnXvxu59y4XDCYVW4bVWiGA1hccKuStIqyqi3lV6jlDeNFJhYsLUKkIAllg1DpIEhuWDB/j+669y/toFvvQ7X+HQkXm+ffJN3r94hqePHqWdOzrtdTCWtDlFouroxGMMYRlIVVUaC6NGzqfwOBECug+vX6VrNR8Ugsf2SROvfUNMk8ScOn+Oi2srDJUg15YoSRCjsp21uyJugUQisMTTGabfhhLun1vg+Ucf4fHFgxytN5mVEQdn5zl16hR/8c1vcnNzg6mlJa5ub7FVFCw8/QzbRYmJ0h0dsHdIW+Uld8W4O3XvygoKMAo6tVEqgF0+ZvWycewWLK2rhvAO4WXlE0cgHUOnUIlEOYUVwWI3jGRle51mqpDba/zVH/07fv8//zq/+PiDbHa3uNHpcCMvObu6wbkbN7m21WZr7RpxYwbVqlH0Q7pNeLmjERiJiatDK5Xgg2tXuL6xyszC/tnaZd8Q06mYd86dZrMcMIhlEB4IhTEjn9EHx0wGIkTGIa3FFl1mI3j+gWP85rMv8tLhY8xrS7OfU/eKa5fO88F3vsPmtWvIZoOb/R56dpaoXufUVhvTmAIXgRulfMKqR1mpzWGnrYwU7KQLvQvfJap8yTsXlFVayN1T/1i8PC4KjEgd/NhcQTsNrkChJC0NzWQelUguXDjHfWbA//N//Cv+8F/8c47PzPL43ByDeoNrgyHvX7/ON9/4AX939gIiSUiaUxSDgnCJ7675dAJy6bHDgpNnzvDU4eOf6jW9F+wb2dsAzXsXzuNroY+5SNOwT7itxBhCjsuHWIc1BlXkNLbbfPHYMf7TL3yBL564j/m8CytXYOMGorvK29//DtevnSObzkiX5tlEsF2r059fZKs3IDPQzA3NMlR6YudQPug7jfSUqqpvq6B/dONc6Ugg4giF6l3yOVsNXT1kQRiQBqSVSBdG8F8rMwoYJenGis0sYa0es1JPyZfmeGdthUOPPUqvLFm9do2//bP/lwUH6vp15jY3eFh6fu3BE/z2S5/jcyeOUjcFZWcTvEFU1n4ksLLjMqmglJJSSaKpJj987z3MXa7LXmHfWMyL169xbX0FX4tB5yHflhuEjBBK4iKC1TQatEYYqBvPi4eP8ZUHH+HF+QXExjpue5MjzSaNhRbkOc+99AQXeht8eOEq2rRo3HeIq72C3q1NsuMPYntdYnS1NKJK5IuRUqdK5n+cyty7QKxRrbRSjsuRKsmPZHPh6SMZnB9VqnZbWhkCvsJDqRKMhK3VWzz/5BNcPH+Ow7UGDx87wu/+R/8U2R9yJG2Qdzuofo/68jJfeOgBVnt9Vl77HtvdbWqzS+QmROheiB3Z3i6NqhWKOK1x4do1bqysMluf4cRU/VO/vj8u9g0xT556n+4wZxALiBO81uMpUFbiWudc8DWBNE5YkPBbjzzFi7U5Dg011jmSRkKjBsNijUsrt1h+6hFemalx/puv8u2z13CNWbLZZXqlJ3dA5hiK4o7pltuL8rsDntt0nq4KxlylNBrVzd1YeTQiumPkU8qdGRwHLjRhYPSYCGkpL2DoExYPHWFzWKKimOmFeX7vD/4QN+iysrLGfYsLxBaa5ZD1jQ2mFhZ49vhxzq1t0jlzgW3vQkVst65lZO1FdZAS+mWJ1Jp3T73Po899/lO6oveGfTOVf3D1MkMBNh+G3KW2gMRbh3MeYUV1EQ2RdCzGkmNZxq88/RSHsgTV6VArNb4oWFtfYWA19z14jI3OOgcOzvGrX3yF5594GFEWFP1OcBiLYVXcroas8p+3h7DsEO+jYwTh5c4SobvJ4W5bOux2bkfPHYkARiKMalmIdYbVGzf4/BNP8V/+wX9GsdXG5DkHDh+iKHMo+gglUP0+cmOLx6dn+UdPPM3DC0vk6xtEbvTmd/k+ACKi1xkik5T3L1xiEO+PJRf7gpg/3Ojwd6ffp2gkoXzmVTAzMkEldZyT2EGOFAJiR8qA6c46/9XXvkJCDy+HOFeGpLeqEWezWJnQ7Re0VMxsWfLy8hL/9W/8Bg+lEWzcBFlA4sP8bWKw1XCqGpUUaJy43pGSjYekqkXHOCUwUqCloFQSXa2+tNWaI3AIV/mgzlVbSYO0EZGNiE1ULfUYOaUFkiH0Nnn64AL/ze98jfu9YNE4ppVirb9Jrw5brYRtKWi1ppnVkF1d5eWZJX776ec4LCPm4hgGRWhRYwXCybAxQZ6DVGSlZK42R07EmxfOcsNrLn6M5/LTwr4g5odXrzGUVLXxigEqAeOxhUaNqj/WEktPPOzxpaceYTnxSAqc1Lv8QAVeIX2EcoJMKAZbWzSlog688twzLM1MMz3VCBbTs2tx2q4xXoD2D2HXc0VFYnYtFdr1HmFN+ShIAryrSps7WtPR/cGqGhbnpvnKP/5V+mtrJMbghwOySFKvZwyspogVuQrd4FInmDKOeWM51mjy3LFjuG4H6S31JEHg8UYTCULRwrpqJgo/qoESnLp6hf4+YMU++Arw+qmTIfviJFJE4CGK4uBPOo1KI4g8EkfdGGaF4su/8As0lUK5EGSEmdMhvSPynthIIivxDtLmNMncHHJ2GjHVZIinyDUk6S7f8hNgRCQLwkqkkUQujJHM7bZy4WhpxyjDIHYsqqcKlEbDhdWYm70BM4cOUz+4iKtnyCzBeIcrCxpRREKI7J1zIesUSaRwHJpp8fLTT1KzBZk3xLFDSAdOBwOgIoQTODxlVVI1wvOjd0+i7/WCfgrYc2K+A7x18SxeSKLq14tzVR9zC4nCSwcxJMKQDQuePnSIh5aXEGWOHK/lrspsfpfczEUYLUmmZjm9cpMPN9b5u9On6HtP3ulAlN0R2Px4EJW6aUcxVLmqfjR2Wd3x54wCj3DrZRUcieo1TgZXwkd4FO3C8JevvsamCW0XfTNDO0s+6FNTEdKKkKynIqVyoAfMxoqn7zvMAwuzNLzGFf3wmApBpHQChcBJgcaNyfnB+bPkbu+puedR+aVhn3PdbbyIkRq8CukNJQkBSizReQ+kJTaOGV3yK48/SSMf4socmYT1saMViMoKpBdIJxFSMFCSdul5/fQZ3ri1zunVdURjGkWGzcs79Js/PkYi4Lvh9i4gu5LqY3U5QOWrVu+hXGgO5iqXYO7AEf7qjTeY1YZfPnaEpdZhBI56lmGHBVKlRJW63imP8AZb9Iml52CtyecffIDLGz+g091GzM5AJHCmACOIozgo57UG79BCstHZZq29BbNLn/ykfArYU4t5wZS8deU8nQi8VEgnqn5X1dQkZMhMl/2g4tZDTkxN8dKJE9Deoi7suD0MVecNgQ8pGxv8TKKMIqoxqDd46+plelnMdqmpZY07mfOJsRMY3T7GvYxGfYp2W80RqiyAF6FMGRp1KXAxEJMToWt1/ubkOzSOH2GYJrRNQaPRwBYlwoISEU44rC8R0oIeooZdGrrg+fuPs5AqfNkHDFWEhXAenAhqJEVQt+PQwnP24oVP5bzcC/aUmEbCdz98l7KRhLaRXoTI24MpdZWucZAIUB5b9njyviMcjBPSIqcmREXMncgXqlndS/CKUmSUWYN2mrIeRfSTBJxB55p6lNxTvwEvwjFo6XYNxmOUqA9rc0ameTd7GaelRsFS+DNCuAhczOZWh2hmjrxZY817BmnCUEhKA7FM8TaohJz3lF4jhCOWhqQsqJdDjs9OsVRPqCUidCC2JUhJEqV44zHehVJvJMmtRiYx754+xcV7ubCfAvaUmE7A2atXIEnCrmKEDUGptsiD4BNRz0IXaq05urSMGOak1pBVOszd7+eFC2u6haKUCQOhWMk1r39whq6XlNailg5QDAb40txl+e2PARFcj3GGSYFTbhzkjzJOu3P1Ox0+uM2/HUXyeDlO1oOErEF3mKMbDf70te+wZg1qZppOoRFxBl4ghMTi0c4ipCeOBIlwJN7SUDCVJTTSGI8FE8TXWRxaZ4eoU0CksNZArLh09QrunqLCe8eeErM/HHDt5g2wmjhL8Ui01lDtWCulBBVBtwfOk0hBM8vwuqSRZQz7A2y1XgcpsM6Re08hBEMBbQ8f3Fzhv/vf/yUnL19Dzs5DlGC7PerNOndb2vZjYZTmHK08u9u4I+s07rE10nmOVHxVpw9fVX6kryIjBDSn0EnK9z48w3//r/81axbaXqLjlNxBXhRBGiIlxpRID2msEN5S5DnPPPEkxTAPu7Y1m6A1vV6PJEmCur29DUqiakHydvnyZXr93ic/L58C9pSYne02rawOw5JOr4uVjrRRR0URxtmwbUieg9ZECGZmZlhYXCKp13B4arUaWVZHyiiMNIYkJleCQZZgZqY4vbbBunaUKsPJqhGWlMGy+k9BtnBbJ7g7B7sqLP42Vdwusdx4DnciCIy9DL6y8CCTBKRkuygo0oxL7S4frm0QzR2g6ySq0SCqpVVjhPArCBuyOkpjiOIUFcdkaYrVptqMAGQc4aQI53d5GfIc7z2bm5u0Wi02Nzfv/dzcA/aUmMNuj7TQgCBKguDWeBfybFKAtag4BRWjByW6tHS8ZV3nrPe6GCEYDAsGg5xBP0cbF7bDq8Vsp4pVBW9du8JKYXBxvZK3KRACIcD6e0yLjGrlbjQ/756n7xyMnN/QLKGqp7Mrog/qn6B8p0rGe2vC9FuWyOYUNwYF711bZTvK2BYJuQxtBl0V0AgvESpBJDVcViOXkqH1RHEW0ldegozwSqKdDedYSLAOZyzeOkyp2VzfuLdzc4/Y03RRPUqQm11mDiwhpyK2h31cMYA0RakIayJsaYEUUWqclOSJIlqYR3lHWrVPMc5Q6BLjHWWkaDvHyVvXeOvGGh9srNMWAlQWohBtQEqssHh5b/0p8SDMKKqG29a4Ax91E8L9TuyyCOPtWwhBUFUZCi2xHaa0QSMQp7gko4PirYtXWYzf54VDS0RTUHOG1BkwLrgAQlBIGAhFGcXcavewRoSiRVKndGC8DZ+bZtj1DdR0EznsM9Oaolzbop7trZJ9T4l5YHqGo/VprvQL1qI+LpWh9mw11kOSZZSDIVmaorAYM+Bav8+WWkZYT7G9Sa2WopSi1AV9p4nSGt0k4tTmCn/65vdZUw2KuIEUCa6kWl8NLtJhK5V7QOQgs0G/eadcbqQoGjXCui0AImgiIfiaocthRVXlcRZiNAKIpGToFdRSekUJMuH0yga9669x8J99leOHZ0lKR1pEJNKirKAQkiJOGMYZrjHNam9AqUGqiERElCYP1j5JiaIYYx21KMH6AUV/wKOHjnD8yNF7Ojf3ij2dyh9dWOTXnv8FphHYtVshiT49FR4sQ/+eNM6IiVBOMshL3r9yhVv5ADk1RX1mFuslUkbEUUqa1YladfxUg14tYk1YuonCJAnOyyDcJUbiQwQacU8WU3lPUzumCkezdLRKR0M7MhNGUi3VFd5Xani3U46vovXdms1xJ2NlQDiUN6FbMoQXGQ+1FmXa4Gq/YBBnrA/6tId9ijxHFwajHdZJci/po1gvNWvdIU5EmMKH/YG0CbtppAoz6BI1p+i1O2Asw16flz//eR5rNe/p2t4r9rzy80++8CWu6yEfnu4BBu3K0KHM2BCha0OhNfVIIuKU86u3OLe6yv3Tiyw1muDCZk9SeoR0bHa7nB30uLi9wSCNKLOwRIOBQ3pFLY4x3lF4HeR1dy42+zEQOahpR137apVkyGMG1XsQC2sJyLBkdxwQQTAJdmctjhvdNxJ5VMGPHebEaYQtNURJWAKSNEkW6py6dp1njxxFyYRMCmpGIb3AyAQbx+g45u/eOcmVlVVUUsPlOmwRKCUkEehA0lojobu9Qb3V5IWXXual51+8hyv66WDPifmFo0tcfP4lzuttXrv4AfQ2SBrTkCSUwwFJlGKtI2m10KXgRxeukLf7fN9JDuSaY406ibNkWUY806QdC053tzi/vo4sS+qxw9oCn3tSoWjFKaXTOJOjRCV1w+8sOxM7U24ojjLu5CZ2/99DS5fMFgV1Y3e6uklBEclxS5nQglBgqmUMVsiqIhRSQlFlsK0DbzwIh7SO2EHiHaUpqdXCXkO11hS9fgdXgvQx33n1b1ke3M98vk298FA6hqVlTRuuSs91pViRCRdWV1k89iCuNHjvieIELxS2vc1U2qRVDFDOc7zR5L/43d/lgZm936xq3+zz862tLf78e6/xje++xoXVm9h6RjI7TU/bsHxXhSGlQBlD2i+Y7nV5oBhS6/fIGnW2ux1mDi5xdWOD2vIyG8McoyIcEVTJe6UUSCi9pnSeOJ7CIDB4jPBo4ccNUL0UCBdaWEf+o21eWrpgcdgnsxorREXMoMUcjsmpKoJKCiVuazEjPMQ+fIYRHl9F67GQpEiUF6FvJmAIM0OEIvICZT3NMueQ7jPlHdvdHmQZYnaaG0VBv5HSjiM2nMfHNYRKw3J8YxFeksYxM0B88zr3z8/whV/4PL/2y1/k+NxBGAw4vsedOfYNMQFObnd4//plfnTxHG+cO80H165Aq8nAO3JtMM6DUMQqIVEJ87rgyMYaM+UQESlKbYmiiG4+oN5oYESoaDg8BkFpwtZ6XhASyjJhmFuQCSiJSwRWBYIZPB477t4WW0itJzU75KybgmndJ3E7xDQyopSMCVlEEi0DQbUM/x91E5YefKGJBcQqQUqQqNA1Q3u8MzTrLbzReO2wVoMTQTznJZk1TOc5jThmGEm2vGOQxXRiRVcJTC3FJAleRUQiwhmPLzRKO1IRM43ht198lpcefYjHH3qEh+rze02BMfYVMQEuFjl9CVe3Nri8tsL3T75DZ5jT6fXp9geUo+lIREzrEn/2DM1yiEpislroJ144Q2lCB4/eYECSpURZLVSHrEU7iwciFA3VDKIRAboSMWhvQj7Ve2IZ9hEadW9Lq2YEwWpqIgokZqcuLqKKoIpSyvEUbioyOiGqFtchHdSUCukc3npwdlwhVEiE9+SDnFhJUhkTxQqJxDmLMw5lNJnX1FsNjJLc6HfYNIbagSVoNBHNOt28xHqBQlFPM5bnFnn4+P08+uCDHF9apC5KXpjZWyXR3bDviLkbHxYD0rSOJpDGe0KgU0UQtdLxF//b/8j5d95hc3OTja1NZubn0MYFP04I0lqGcfD/t3emz1Gc6QH/9THTMz3SCF1gjY6RAEnoNmDJFlmIQV4IyHiX7C7lcrJb66qN8ye49kOyW6lKdr/FVakK/uDKF1ewvYmXNUf54IgXXLaQy8ACstCBdQsJcQhJM9M9feVDa8QRgvEiMaNhfp/Uo+7pZ0Y/9fQ87/M+r2lbxC0Ty3aLHiSPjFeSsWY0BNvBws1p2qKA5JERZAlJEjD1OIJzu0Nbou5StpjPX1o4ojk/+1FcmHRmI2IJbhc6t5DDvb9MNG3Fca98kmkiWhYi4DhuZ3hBEJAEEUkQwHbce9r5n+9ooYwkWMzNTlO4qoDJW7dQcoL4CwtpbXuBTdu2Iil+DATcyksQLBvRcJAch9V+z13v9cDMNSqCqbOSRdK//DyIauXOaaTiHWN483hFZsYnGOrrZ9WqVaiFq9jZvouJiUnGJybo7e9DFHQwbQTHxicIiLIXAQEjqmMYc+SoKoKb1gYkV1DHnSLsxB1kx62cTywMkBhOdFM+9vxozd1Zt8TsWGl+FCjRec2+dzUNbOKmjuyR8Mqe+eJo9z7QMAxsw0JVVSzTRNd1DMNAQkBVVYLBIFkBPw0NWxFlif868HvMaJTI5CTmteusU4IM3Jiicn7JGfflSbdbJt5DKkkJKS7mw7Cuei1/+upLd7hZEGhubqZwzVoArg0P0d1zibGxMXr6LjM2NkYsFkOUJbJ8CkLAz9zstLv04vw64IBbbGtZ2AuV9K621j1ZX+cuKRPHzm8lZlLOp33Amv8Gbi/sY4kOSlYA3Y6j6THic3H3qimKeCQZURIZnRwjJyeHopIiSkpKKC8ro6ysjFAoRFF5FTNTQ4yOjqKeOIplgyB5COXlAVBxp5TLjGUvpu0VmHN0bG0GRVGYNiIk/hwFZWE2l4Xv2v/CxbP09fdzqbubwdERPHI2cSuOHo9jmhrY7n2lV/EgyyLxuNuyzy38vd0u5nYZ220xBce+I71kLxRtJCRN/C4hpi2CbutojoUlOYgBBVVVWbFiBbm5uQQCATZv3kx2djZNlfdf/zFYGOabP50h4thEYxo+BXLy8xbvDU4Sy17MQEEOan4Qw7DwKDJXZ6epfMD+DfXraahfDz90t7uGupmcnKS/t4fLfX1MjF8hNhdxl1yxJQQnsZCUjSUIC8ON7nLT88M3uKkfBHHhYz8homQndrHvyoeC+7jpQG5uPsXFxYQryikvC/NUqIi6cM1DvwdjU1N4Atk4hoVXUQkVl37n9zHVWPZiPlVSiihLGJqOaVsMj47wF80Pf3xduIa6cA3bWp5feOxi52kGvrnM+Pg4586dQ5JlpiO30CwDf0BFt0y0eJxAdgDTctD1OA4Ofp8PQRAw4wa2beLxeFCzfVwZG8fr9ZKfn49txsnKyqK6upqSUCnrG5spr3jQv9K3MzY6gRYz3BEgXxZrSise6flSgWUvZk52NorHh+O10WMaowNDj/yc9S3PUt/y7ML20PkuxqeucLGnm5OnTmHFTQpW5HFjepr8FbmYXhk9rmHMRpEkCcXjwRE8xKMa12fmWB0up7GxkbXVVRQWFpKfn0tx4ZpHjjPBzYmbOJqFT/axKi/1Uj9/DstezLKVFZQXFjMSGUKwbMb7Hl3Mewk31hGmjtKy1Uxdvc5XZ8+gRTSyZT/XBkfJz80j3x8gGo+iRXU8ioji9yH4FcYmrvBs0zPs2PlXrAot/pWsr6ub2MR15JhFVsBDw+qqRT9HMkj6vPLFYEN9I0YkRpbXx+z0Lc6eOrUk5ympXM2m722mcFURN65PE8zKJlRYhF+QMOeiyJZD0KeiCDKRm7cYHxllQ30jGxrWL4mUAL0Xv4Z4fH52h0VTTd2SnOdxkxZibnx6A3pMR57vwX7uq3NLdq7nX2hj954fsK6+lhuztzAMg7hhIIgisiyjaRqRSITCwpVs2fyX/M0rf0t9y9J1UDtzphPFKyEKFj6fTE1r05Kd63GSFmIWVVezqjjEnKZjInChp3tRn79r6PJd2+07d/H3f/cLNjQ9jSU7xLCIOiaGLCAoHlasLKCpeSM/+NEeqjduXNRY7orr4jn6h/qwRBPBB+Gq1OkI/Kgs+3vMBN/b8X32v/Mefr+fKzPTHD1+jO+3vbAoz10Xvv1FZXCgj/KKSmpr66mtrQfg5Bd/dJPcqkppaZiCggLCoaWvAO/4/BSao6NbcdQVWWzcmhq9LReDlB4r/6789d6fEAgE0DSNxqeb+IfXf5nskJaMqZFBfvVPv0JzNKZu3qCkrJR9//ofyQ5r0UiLj/IEzRvXY5txDD3GxXNn6ej8ItkhLRmHPz5CRI+jxWwEy8sPd/042SEtKmklZtvWbTiWjUeS8XkVDrz/+/9335GRxU8rPS7OfNVBT38fkUgELWawpqKK0FPLf7TnTtJKzJaW52hoaMA03ZrN7u5uPv74w/vuW1oavu/jy4GOjg4GB4bxeLx4vV6am5tpaGhIdliLSlqJCbBnzx5UVWV2dpaioiIOHTpEX19PssNaNDq+OElnZyeBQADHcaisrGT9+vXJDmvRSTsx162rpbW1FUmSsCyL0dFRDhw4kOywFo39+9/h6tUpJElCkiSee+45amoevuBjuZB2YgK0t7dTU1PD4OAgiqLQ1dXFO+/8Z7LDemTe3PdvjIyMUFBQwMDAAK2trWn3EZ4gLcWsqFhDW1sbpaWlyLKMIAgcPnyYgwf/kOzQ/mzee3c/x4//Dzk5OQQCAdasWcv27dspK0ufpPqdpKWYAM8/v42dO3cCEIlE0HWdjz76iM8//yzJkX13Dh38A0eOHMG2baLRKNeuXeO1116jqjo9xsXvR9qKCbB378s0NjYuJN2npqbYv38/n312MtmhPTTv//fv+OCDD4jFYvh8PrxeH3v3vsyGjc9++8HLmLQWE+D1139JQUEBwWCQvLw85ubmeOuttzh+/OgDjxsaSn6e88jhgxw7dswtFInHEUWRtrY2frL35WSHtuSk1ZDkg/j1r/+Rrq4uTNNEVd3Zl6+88grt7buTHNn/ZXRkgCNHPuTo0aMLk9P8vgAtLS289NJLlJUv3xzsw5L2V8wEr776KhUVFeTk5DAzM4Oqqrz99tu88cYbSY1raLD/ru2zZzp59913+fTTT/H7/QAEg0G2bt3Kiy+++ERICU/QFTPBb3/7L1y6dInJyUlyc3PxeBTy8/Npb2+nra0taXGNjQ5w9uxZDh06zNTUFLm5uRiGgWna7Ny5k5/+7OdJiy0ZPHFiArz55r9z/vx5hoeHEQSJrKwsZFmmpqaG9vZ2mpoeb7Htxx8d4vTp0wwPD3Pjxk0MwyAQCBAIBNi160V+9OO9jzWeVOCJE7O/v5e1a6v48svT7Nu3D9O0MU0TWZbdTheSRHNzM9u2bVvy5PXFi+f53Xv7mZmdZnBgGICVK1dimialpWXs3r2bZ5pb73vsyNA4peHQksaXTJ44Me/lN7/5ZwYGBpicnMTv9+P3+4lGoyiKQigUYvv27ZSUlFBVtW5RztfT082FCxfo7Oykt7eXgOojHtfxeLw4joPP52PTpk3s2LGDsvDizaRcbjzxYgL88eRxTpw4QW9vL6Zp4vP5cBwHXXfbbauqSlFREVVVVVRWVhIKhQiXPZw0l7/pYWJigp6eZYMihQAAAbBJREFUHnp6ehgbG0PTNDweD16vF9sCTdNQVZWmpia2bNnCM8+0LPErTn0yYt7BwUPvc+LECfr7+/F6vRQWFnL9+vUFiUTRXSDLcRwCgQDBYJCCgoKFggpBEDBNE03TiMVixONxRkdH51d5A0VRUBQFgGg0SiQSZUVOHnV1DWzatInNmzcn8+WnFBkx78OFi2f55JNP6OjowO/3E4vFMAxjQdCEhIIgoOv6QqdiUZxf/CkeR9d1TNMkLy8PSZIwTZPZ2Vk0TSMYDFJRUUFJSQnbtr5AXV16FmI8Chkxv4Wjxz6kv7+fr7/+mqtXr2IYBqIoLogpSRK2bburBeP23kwILMsyN2/exLZtFEWhuLiY2tpaamtrKS4upqQ4PQswFoOMmN+BgcE+rly5wuXLbkvD2dlZpqensSwL0zSxbRuPx4Pf70dVVbxeL9XV1YTDYTa1bkl2+MuKjJgZUpInZkgyw/IiI2aGlCQjZoaUJCNmhpQkI2aGlCQjZoaUJCNmhpQkI2aGlCQjZoaUJCNmhpQkI2aGlCQjZoaUJCNmhpQkI2aGlCQjZoaUJCNmhpTkfwG2L93gx60KVQAAAABJRU5ErkJggg==;" vertex="1" parent="bsMbISX9EA4oYNUM3-fa-60">
          <mxGeometry width="181" height="181" as="geometry" />
        </mxCell>
        <mxCell id="bsMbISX9EA4oYNUM3-fa-59" value="车主司机" style="text;html=1;strokeColor=none;fillColor=none;align=center;verticalAlign=middle;whiteSpace=wrap;rounded=0;dashed=1;fontSize=15;fontColor=#4D4D4D;fontStyle=1" vertex="1" parent="bsMbISX9EA4oYNUM3-fa-60">
          <mxGeometry x="35.75" y="162" width="109.5" height="30" as="geometry" />
        </mxCell>
        <mxCell id="bsMbISX9EA4oYNUM3-fa-21" value="" style="rounded=0;whiteSpace=wrap;html=1;fontSize=15;strokeColor=#CCCCCC;" vertex="1" parent="1">
          <mxGeometry x="768" y="320" width="250" height="230" as="geometry" />
        </mxCell>
        <mxCell id="bsMbISX9EA4oYNUM3-fa-22" value="&lt;font color=&quot;#4d4d4d&quot;&gt;CRM平台&lt;/font&gt;" style="text;html=1;strokeColor=none;fillColor=none;align=center;verticalAlign=middle;whiteSpace=wrap;rounded=0;dashed=1;fontSize=15;fontStyle=1" vertex="1" parent="1">
          <mxGeometry x="856" y="522" width="74" height="30" as="geometry" />
        </mxCell>
        <mxCell id="bsMbISX9EA4oYNUM3-fa-23" value="客服中心" style="rounded=0;whiteSpace=wrap;html=1;fontSize=12;fillColor=#dae8fc;strokeColor=#6c8ebf;fontColor=#808080;fontStyle=1" vertex="1" parent="1">
          <mxGeometry x="803" y="485" width="180" height="40" as="geometry" />
        </mxCell>
        <mxCell id="bsMbISX9EA4oYNUM3-fa-24" value="呼叫服务" style="rounded=0;whiteSpace=wrap;html=1;fontSize=12;fillColor=#dae8fc;strokeColor=#6c8ebf;fontColor=#808080;fontStyle=1" vertex="1" parent="1">
          <mxGeometry x="803" y="412" width="180" height="40" as="geometry" />
        </mxCell>
        <mxCell id="bsMbISX9EA4oYNUM3-fa-25" value="进站服务" style="rounded=0;whiteSpace=wrap;html=1;fontSize=12;fillColor=#dae8fc;strokeColor=#6c8ebf;fontColor=#808080;fontStyle=1" vertex="1" parent="1">
          <mxGeometry x="803" y="339" width="180" height="40" as="geometry" />
        </mxCell>
        <mxCell id="bsMbISX9EA4oYNUM3-fa-29" value="" style="shape=flexArrow;endArrow=classic;html=1;rounded=0;fontSize=15;fillColor=#dae8fc;strokeColor=#6c8ebf;" edge="1" parent="1">
          <mxGeometry width="50" height="50" relative="1" as="geometry">
            <mxPoint x="891.25" y="410" as="sourcePoint" />
            <mxPoint x="891.72" y="380" as="targetPoint" />
          </mxGeometry>
        </mxCell>
        <mxCell id="bsMbISX9EA4oYNUM3-fa-30" value="" style="shape=flexArrow;endArrow=classic;html=1;rounded=0;fontSize=15;fillColor=#dae8fc;strokeColor=#6c8ebf;" edge="1" parent="1">
          <mxGeometry width="50" height="50" relative="1" as="geometry">
            <mxPoint x="891.25" y="484" as="sourcePoint" />
            <mxPoint x="891.7200000000003" y="454" as="targetPoint" />
          </mxGeometry>
        </mxCell>
        <mxCell id="bsMbISX9EA4oYNUM3-fa-61" value="" style="html=1;shadow=0;dashed=0;align=center;verticalAlign=middle;shape=mxgraph.arrows2.arrow;dy=0.6;dx=40;notch=0;fontSize=12;strokeColor=#d6b656;rotation=-90;fillColor=#fff2cc;" vertex="1" parent="1">
          <mxGeometry x="863.07" y="287.21" width="54.05" height="40.81" as="geometry" />
        </mxCell>
      </root>
    </mxGraphModel>
  </diagram>
</mxfile>
